<svg id="Layer_4" data-name="Layer 4" xmlns="http://www.w3.org/2000/svg" viewBox="0 0 6100 6100"><defs><style>.cls-1{fill:#ffca31;}.cls-2{fill:#7e5fa8;}.cls-3{fill:#ee3134;}.cls-4{fill:#3893d0;}.cls-5{fill:#3b56a6;}.cls-6{fill:#27af54;}</style></defs><title>Artboard 1</title><path class="cls-1" d="M3226,664l-807,470v933l807,470,807-470V1134Zm345,1135.93-345,200.93-345-200.93V1401.07l345-200.93,345,200.93Z"/><path class="cls-2" d="M2074,2667l-807,470v933l807,470,807-470V3137Zm345,1135.93-345,200.93-345-200.93V3404.07l345-200.93,345,200.93Z"/><path class="cls-3" d="M2074,1330l-807,470v933l807,470,807-470V1800Zm345,1135.93-345,200.93-345-200.93V2067.07l345-200.93,345,200.93Z"/><path class="cls-4" d="M4378,2667l-807,470v933l807,470,807-470V3137Zm345,1135.93-345,200.93-345-200.93V3404.07l345-200.93,345,200.93Z"/><path class="cls-5" d="M3226,3333l-807,470v933l807,470,807-470V3803Zm345,1135.93-345,200.93-345-200.93V4070.07l345-200.93,345,200.93Z"/><path class="cls-6" d="M4378,1330l-807,470v933l807,470,807-470V1800Zm345,1135.93-345,200.93-345-200.93V2067.07l345-200.93,345,200.93Z"/></svg>