<svg width="636" height="256" viewBox="0 0 636 256" fill="none" xmlns="http://www.w3.org/2000/svg">
<path d="M128.215 33L94.3477 52.7246V91.88L128.215 111.605L162.083 91.88V52.7246L128.215 33ZM142.694 80.6718L128.215 89.1043L113.737 80.6718V63.9328L128.215 55.5003L142.694 63.9328V80.6718Z" fill="#FFCA31"/>
<path d="M79.8675 117.061L46 136.785V175.941L79.8675 195.665L113.735 175.941V136.785L79.8675 117.061ZM94.3462 164.732L79.8675 173.165L65.3889 164.732V147.993L79.8675 139.561L94.3462 147.993V164.732Z" fill="#7E5FA8"/>
<path d="M79.8675 60.9502L46 80.6748V119.83L79.8675 139.555L113.735 119.83V80.6748L79.8675 60.9502ZM94.3462 108.622L79.8675 117.054L65.3889 108.622V91.8829L79.8675 83.4505L94.3462 91.8829V108.622Z" fill="#EE3134"/>
<path d="M176.561 117.061L142.693 136.785V175.941L176.561 195.665L210.428 175.941V136.785L176.561 117.061ZM191.04 164.732L176.561 173.165L162.082 164.732V147.993L176.561 139.561L191.04 147.993V164.732Z" fill="#3893D0"/>
<path d="M128.215 145.011L94.3477 164.735V203.891L128.215 223.615L162.083 203.891V164.735L128.215 145.011ZM142.694 192.683L128.215 201.115L113.737 192.683V175.944L128.215 167.511L142.694 175.944V192.683Z" fill="#3B56A6"/>
<path d="M176.561 60.9502L142.693 80.6748V119.83L176.561 139.555L210.428 119.83V80.6748L176.561 60.9502ZM191.04 108.622L176.561 117.054L162.082 108.622V91.8829L176.561 83.4505L191.04 91.8829V108.622Z" fill="#27AF54"/>
<path d="M277.109 161H263.516V110.281H277.109V161ZM262.719 97.1562C262.719 95.125 263.391 93.4531 264.734 92.1406C266.109 90.8281 267.969 90.1719 270.312 90.1719C272.625 90.1719 274.469 90.8281 275.844 92.1406C277.219 93.4531 277.906 95.125 277.906 97.1562C277.906 99.2188 277.203 100.906 275.797 102.219C274.422 103.531 272.594 104.188 270.312 104.188C268.031 104.188 266.188 103.531 264.781 102.219C263.406 100.906 262.719 99.2188 262.719 97.1562ZM301.016 110.281L301.438 115.953C305.031 111.547 309.891 109.344 316.016 109.344C322.547 109.344 327.031 111.922 329.469 117.078C333.031 111.922 338.109 109.344 344.703 109.344C350.203 109.344 354.297 110.953 356.984 114.172C359.672 117.359 361.016 122.172 361.016 128.609V161H347.422V128.656C347.422 125.781 346.859 123.688 345.734 122.375C344.609 121.031 342.625 120.359 339.781 120.359C335.719 120.359 332.906 122.297 331.344 126.172L331.391 161H317.844V128.703C317.844 125.766 317.266 123.641 316.109 122.328C314.953 121.016 312.984 120.359 310.203 120.359C306.359 120.359 303.578 121.953 301.859 125.141V161H288.312V110.281H301.016ZM384.172 110.281L384.594 115.953C388.188 111.547 393.047 109.344 399.172 109.344C405.703 109.344 410.188 111.922 412.625 117.078C416.188 111.922 421.266 109.344 427.859 109.344C433.359 109.344 437.453 110.953 440.141 114.172C442.828 117.359 444.172 122.172 444.172 128.609V161H430.578V128.656C430.578 125.781 430.016 123.688 428.891 122.375C427.766 121.031 425.781 120.359 422.938 120.359C418.875 120.359 416.062 122.297 414.5 126.172L414.547 161H401V128.703C401 125.766 400.422 123.641 399.266 122.328C398.109 121.016 396.141 120.359 393.359 120.359C389.516 120.359 386.734 121.953 385.016 125.141V161H371.469V110.281H384.172ZM485 155.844C481.656 159.906 477.031 161.938 471.125 161.938C465.688 161.938 461.531 160.375 458.656 157.25C455.812 154.125 454.359 149.547 454.297 143.516V110.281H467.844V143.047C467.844 148.328 470.25 150.969 475.062 150.969C479.656 150.969 482.812 149.375 484.531 146.188V110.281H498.125V161H485.375L485 155.844ZM520.812 110.281L521.234 116.141C524.859 111.609 529.719 109.344 535.812 109.344C541.188 109.344 545.188 110.922 547.812 114.078C550.438 117.234 551.781 121.953 551.844 128.234V161H538.297V128.562C538.297 125.688 537.672 123.609 536.422 122.328C535.172 121.016 533.094 120.359 530.188 120.359C526.375 120.359 523.516 121.984 521.609 125.234V161H508.062V110.281H520.812ZM576.453 161H562.859V110.281H576.453V161ZM562.062 97.1562C562.062 95.125 562.734 93.4531 564.078 92.1406C565.453 90.8281 567.312 90.1719 569.656 90.1719C571.969 90.1719 573.812 90.8281 575.188 92.1406C576.562 93.4531 577.25 95.125 577.25 97.1562C577.25 99.2188 576.547 100.906 575.141 102.219C573.766 103.531 571.938 104.188 569.656 104.188C567.375 104.188 565.531 103.531 564.125 102.219C562.75 100.906 562.062 99.2188 562.062 97.1562ZM611 161.938C603.562 161.938 597.5 159.656 592.812 155.094C588.156 150.531 585.828 144.453 585.828 136.859V135.547C585.828 130.453 586.812 125.906 588.781 121.906C590.75 117.875 593.531 114.781 597.125 112.625C600.75 110.438 604.875 109.344 609.5 109.344C616.438 109.344 621.891 111.531 625.859 115.906C629.859 120.281 631.859 126.484 631.859 134.516V140.047H599.562C600 143.359 601.312 146.016 603.5 148.016C605.719 150.016 608.516 151.016 611.891 151.016C617.109 151.016 621.188 149.125 624.125 145.344L630.781 152.797C628.75 155.672 626 157.922 622.531 159.547C619.062 161.141 615.219 161.938 611 161.938ZM609.453 120.312C606.766 120.312 604.578 121.219 602.891 123.031C601.234 124.844 600.172 127.438 599.703 130.812H618.547V129.734C618.484 126.734 617.672 124.422 616.109 122.797C614.547 121.141 612.328 120.312 609.453 120.312Z" fill="black"/>
</svg>
