<?xml version="1.0" encoding="UTF-8" standalone="no"?>
<svg
   xmlns:dc="http://purl.org/dc/elements/1.1/"
   xmlns:cc="http://creativecommons.org/ns#"
   xmlns:rdf="http://www.w3.org/1999/02/22-rdf-syntax-ns#"
   xmlns:svg="http://www.w3.org/2000/svg"
   xmlns="http://www.w3.org/2000/svg"
   xmlns:sodipodi="http://sodipodi.sourceforge.net/DTD/sodipodi-0.dtd"
   xmlns:inkscape="http://www.inkscape.org/namespaces/inkscape"
   version="1.1"
   id="svg2"
   xml:space="preserve"
   width="1333.3333"
   height="1066.6667"
   viewBox="0 0 1333.3333 1066.6667"
   sodipodi:docname="404-5"><metadata
     id="metadata8"><rdf:RDF><cc:Work
         rdf:about=""><dc:format>image/svg+xml</dc:format><dc:type
           rdf:resource="http://purl.org/dc/dcmitype/StillImage" /></cc:Work></rdf:RDF></metadata><defs
     id="defs6" /><sodipodi:namedview
     pagecolor="#ffffff"
     bordercolor="#666666"
     borderopacity="1"
     objecttolerance="10"
     gridtolerance="10"
     guidetolerance="10"
     inkscape:pageopacity="0"
     inkscape:pageshadow="2"
     inkscape:window-width="640"
     inkscape:window-height="480"
     id="namedview4" /><g
     id="g10"
     inkscape:groupmode="layer"
     inkscape:label="ink_ext_XXXXXX"
     transform="matrix(1.3333333,0,0,-1.3333333,0,1066.6667)"><g
       id="g12"
       transform="scale(0.1)"><path
         d="M 0,0 H 10000 V 8000 H 0 Z"
         style="fill:#ffffff;fill-opacity:1;fill-rule:nonzero;stroke:none"
         id="path14" /><path
         d="m 8006.34,376.012 c -51.63,0 -103.53,1.957 -156.03,6.75 -200.53,18.316 -403.82,27.468 -603.36,53.609 -457.96,59.988 -916.12,63.539 -1377.41,63.539 -183.1,0 -366.21,1.672 -549.27,1.672 -266.68,0 -533.24,-3.543 -799.39,-20.973 C 4105.69,453.41 3689.8,449.09 3273.85,449.09 c -62.66,0 -125.33,0.09 -187.98,0.23 -4.11,0.012 -8.18,0.012 -12.29,0.012 -230.2,0 -459.51,-13.883 -689.37,-23.691 -230.9,-9.852 -455.44,-26.02 -685,-26.02 -20.75,0 -41.55,0.129 -62.39,0.41 -229.43,3.09 -578.76,68.5 -742.429,235.188 -97.18,99.051 -84.004,337.34 13.32,432.841 42.512,41.71 111.049,74.39 167.039,94.26 159.49,56.64 321.78,56.77 488.44,57.94 2.06,0.02 4.1,0.03 6.15,0.03 114.99,0 234.56,-22.69 344.75,-54.2 100.27,-28.67 202.73,-38.72 304.71,-56.57 83.46,-14.6 172.75,-21.59 261.06,-21.59 57.45,0 114.51,2.96 169.23,8.71 148.07,15.57 297.2,22.8 445.71,35.08 184.41,15.23 364.89,48.26 548.65,65.97 92,8.85 181.87,30.84 273.66,40.83 243.44,26.49 487.31,32.22 731.19,32.93 19.97,0.06 39.93,0.09 59.9,0.09 115.91,0 231.81,-0.85 347.65,-0.86 94.4,0 188.74,0.28 283.09,0.28 322.78,0 645.29,-3.24 967.19,-31.89 99.76,-8.87 198.87,-3.5 297.24,-24.63 98.77,-21.21 198.47,-40.55 299.66,-44.33 86.55,-3.24 173.37,-4.3 260.28,-4.3 154.64,0 309.56,3.37 463.69,3.92 15.45,0.05 36.97,0.14 63.65,0.14 345.03,0 1546.55,-15.52 1460.36,-329.288 C 9117.88,719.992 8925.3,563.063 8817.28,512.539 8680.83,448.73 8531.6,410.98 8381.39,398.238 8254.79,387.52 8131.35,376.012 8006.34,376.012"
         style="fill:#f6eaea;fill-opacity:1;fill-rule:nonzero;stroke:none"
         id="path16" /><path
         d="m 7987.6,2710.52 1.94,-60.46 -106.72,-38.85 -61.5,46.6 -0.05,70.38 59.38,3.32 1.87,15.48 19.44,12.51 85.64,-48.98"
         style="fill:#e1cfb5;fill-opacity:1;fill-rule:nonzero;stroke:none"
         id="path18" /><path
         d="m 5804.79,2232.84 22.93,-531.83 -67.21,-904.311 -100.59,-7.14 -122.21,821.321 -169.05,694.99 436.13,-73.03"
         style="fill:#353a85;fill-opacity:1;fill-rule:nonzero;stroke:none"
         id="path20" /><path
         d="m 5665.3,722.039 h 151 l 6.25,49.859 -54.13,37.403 -108.77,-7.731 5.65,-79.531"
         style="fill:#292949;fill-opacity:1;fill-rule:nonzero;stroke:none"
         id="path22" /><path
         d="m 5092.78,2391.02 -22.07,-402.01 65.49,-1195.319 100.71,-5.031 150.94,783.98 133.13,859.72 -428.2,-41.34"
         style="fill:#353a85;fill-opacity:1;fill-rule:nonzero;stroke:none"
         id="path24" /><path
         d="m 5232.81,718.16 -146.99,-6.16 -14.97,42.379 57.18,51.73 108.9,-5.437 -4.12,-82.512"
         style="fill:#292949;fill-opacity:1;fill-rule:nonzero;stroke:none"
         id="path26" /><path
         d="m 5678.36,3605.31 -314.27,33.67 c 0,0 -174.83,-18.68 -293.46,-433.88 -66,-231 -86.09,-594.93 -90.92,-872.39 7.42,-39.59 50.53,-212.95 232.87,-183.55 313.11,50.51 479.77,101.01 616.13,75.76 116.15,-25.25 106.33,134.67 93.57,256.71 l -46.29,377.61 -197.63,746.07"
         style="fill:#d67086;fill-opacity:1;fill-rule:nonzero;stroke:none"
         id="path28" /><path
         d="m 5617.67,3996.5 c -79.21,17.46 -160.75,33.1 -240.04,17.41 -17.37,-3.44 -36.01,-9.49 -45.43,-24.48 -3.65,-5.81 -5.58,-12.51 -7.37,-19.13 -20.01,-74.38 -45.39,-184.65 3.58,-253.18 9.33,-13.07 21.88,-23.45 35.36,-31.87 18.01,-11.26 37.96,-18.91 58.59,-22.98 -4.26,-18.5 -10.21,-36.61 -17.74,-54.03 18.13,-27.34 102.72,-30.61 118.37,-4.4 0.87,22.68 1.75,45.36 2.63,68.04 10.29,4.16 20.24,9.22 29.58,15.38 36.15,23.8 59.98,59.94 73.8,100.36 15.07,44.02 36.27,85.86 50.03,130.72 5.02,16.35 8.98,35 0.37,49.78 -9.15,15.73 -28.9,21.08 -46.67,25.03 -5.02,1.12 -10.03,2.24 -15.06,3.35"
         style="fill:#c17e72;fill-opacity:1;fill-rule:nonzero;stroke:none"
         id="path30" /><path
         d="m 5652.37,3789.98 c 38.06,39.08 82.6,93.73 86.04,143.35 2.84,41.04 -2.84,97.01 -25.83,132.46 -21.52,33.17 -76.54,51.39 -109.26,70.61 -30.84,18.11 -61.68,36.23 -92.53,54.35 -6.41,3.77 -13.01,7.6 -20.33,8.87 -8.67,1.51 -17.51,-0.71 -26.03,-2.91 -72.9,-18.84 -145.79,-37.68 -218.69,-56.52 -14,-3.62 -29.96,-8.91 -35.11,-22.42 -3.14,-8.22 -1.29,-17.4 0.58,-26 8.28,-37.84 24.17,-76.52 28.1,-114.87 6.05,-30.26 4.89,-57.35 27.01,-79.47 20.82,-20.84 48.51,-32.21 65.17,-57.71 12.03,-18.41 16.65,-40.58 26.07,-60.45 42.69,-90 215.53,-66.02 275.34,-8.59 6.1,5.86 12.69,12.34 19.47,19.3"
         style="fill:#353a85;fill-opacity:1;fill-rule:nonzero;stroke:none"
         id="path32" /><path
         d="m 5611.7,3578.43 216.02,233.38 -50.89,632.5 94.92,41.69 199.71,-636.47 -70.59,-195.81 -289.64,-389.33 -99.53,314.04"
         style="fill:#d67086;fill-opacity:1;fill-rule:nonzero;stroke:none"
         id="path34" /><path
         d="m 5851.44,4477.08 c 0,0 0,56.97 0,57.88 0,21.13 -53.2,70.47 -66.71,88.18 -7.73,10.12 -43.15,-44.99 -43.58,-54.1 -0.73,-15.54 21.67,-48.83 27.83,-64.97 l -18.9,-26.99 26.75,-32.77 74.61,32.77"
         style="fill:#c17e72;fill-opacity:1;fill-rule:nonzero;stroke:none"
         id="path36" /><path
         d="m 5225.24,3529.85 -244.5,203.35 -31.67,633.76 -99.53,29.01 -115.37,-657.01 95.41,-184.99 337.75,-348.41 57.91,324.29"
         style="fill:#d67086;fill-opacity:1;fill-rule:nonzero;stroke:none"
         id="path38" /><path
         d="m 4870.85,4389.76 c 0,0 -7.4,56.5 -7.52,57.4 -2.74,20.96 43.58,76.79 54.7,96.1 6.34,11.03 48.61,-39.01 50.22,-47.99 2.75,-15.32 -15.15,-51.23 -19.15,-68.03 l 22.25,-24.32 -22.28,-35.96 -78.22,22.8"
         style="fill:#c17e72;fill-opacity:1;fill-rule:nonzero;stroke:none"
         id="path40" /><path
         d="m 1386.44,3924.26 c -39.52,19.34 -76.72,43.39 -110.58,71.47 -11,9.13 -22.74,22.01 -18.87,35.78 4.44,15.78 25.25,19.16 41.59,17.72 30.79,-2.7 61.02,-11.71 88.27,-26.3 6.74,2.13 -1.94,12.96 1.07,19.36 1.37,2.93 4.97,4.05 8.2,4.23 44.18,2.44 61.41,-57.71 76.53,-86.66 -30.93,-16.23 -62.94,-16.84 -90.4,-41.45 l 4.19,5.85"
         style="fill:#efbfa5;fill-opacity:1;fill-rule:nonzero;stroke:none"
         id="path42" /><path
         d="m 3282.31,3208.45 c 0,0 56.38,-8.25 57.28,-8.38 20.91,-3.07 112.26,43 131.74,53.81 11.13,6.18 -73.09,48.62 -82.04,50.36 -15.28,2.98 -51.46,-14.37 -68.32,-18.12 l -23.97,22.62 -36.3,-21.73 21.61,-78.56"
         style="fill:#efbfa5;fill-opacity:1;fill-rule:nonzero;stroke:none"
         id="path44" /><path
         d="m 1879.04,849.52 -7.96,-61.95 115.94,-77.879 69.91,53.989 -53.98,69.91 -115.94,77.89 -7.97,-61.96"
         style="fill:#292949;fill-opacity:1;fill-rule:nonzero;stroke:none"
         id="path46" /><path
         d="m 1875.12,870.32 89.42,790.12 -107.58,884.53 24.19,188.15 480.51,18.26 17.34,-306.25 -80.67,-785.91 -303.48,-829.279 -119.73,40.379"
         style="fill:#292949;fill-opacity:1;fill-rule:nonzero;stroke:none"
         id="path48" /><path
         d="m 2438.17,3608.43 215.98,-126.93 171.31,-240.11 456.43,66.16 14.28,-125.72 -518.4,-172.78 -265.67,99.43 -73.93,499.95"
         style="fill:#babcbe;fill-opacity:1;fill-rule:nonzero;stroke:none"
         id="path50" /><path
         d="m 2714.24,2662.83 1.26,-797.32 -160.49,-1026.42 -115.52,1.14 -63.49,949.2 -148.62,950.05 486.86,-76.65"
         style="fill:#292949;fill-opacity:1;fill-rule:nonzero;stroke:none"
         id="path52" /><path
         d="m 2439.67,791.52 124.3,-63.711 63.08,61.843 -61.84,63.078 -124.91,1.25 -0.63,-62.46"
         style="fill:#292949;fill-opacity:1;fill-rule:nonzero;stroke:none"
         id="path54" /><path
         d="m 1807.23,2391.66 c 1.1,34.55 3.02,63.39 3.3,73.68 2.47,92.69 10.73,185.17 22.34,277.2 10.39,82.47 23.52,287.2 37.63,369.16 11.65,67.67 52.26,236.58 81.6,299.35 72.96,156.1 50.42,170.52 370.92,216.87 140.47,20.31 173.66,-67.23 288.5,-167.89 11.33,-9.93 10.7,-69.04 13.33,-84.7 4.63,-27.57 9.59,-55.09 15.27,-82.48 4.47,-21.53 9.4,-43 14.93,-64.31 h -0.01 c 0,0 96.41,-438.72 160.16,-531.89 63.75,-93.17 195.46,-223.44 -24.86,-302.98 -39.05,-12.62 -78.33,-24.63 -118.97,-31.05 0,0 -180.19,20.03 -272.85,19.33 -85.35,-0.63 -171.04,-9.27 -254.94,-23.74 -56.11,-9.37 -113.36,-23 -163.55,-49.22 -47.88,-25.01 -82.44,-61.8 -131.02,-87.7 -4.61,-2.45 -9.65,-4.99 -14.88,-4.27 -27.91,3.87 -29.22,101.92 -26.9,174.64"
         style="fill:#babcbe;fill-opacity:1;fill-rule:nonzero;stroke:none"
         id="path56" /><path
         d="m 2294.25,3587.51 c -13.11,-12.38 -48.75,-26.33 -91.39,-23.12 -8.6,0.65 -16.04,6.46 -18.47,14.72 -6.8,23.21 -12.04,46.89 -15.66,70.79 -31.63,1.27 -69.24,6.18 -83.39,34.5 -4.46,8.92 -5.78,19.03 -7.04,28.92 -5.22,40.89 -10.45,81.78 -15.67,122.66 -1.8,14.14 -3.58,28.73 0.19,42.47 6.61,24.13 28.76,40.6 51.07,51.93 56.91,28.91 126.43,36.02 185.14,10.97 15.63,-6.67 30.72,-15.82 40.88,-29.44 15.68,-20.98 17.37,-48.92 18.45,-75.09 1,-24.16 2,-48.32 3,-72.48 1.14,-27.79 0.38,-60.01 -21.43,-77.27 -11.58,-9.16 -27.57,-12.43 -37.15,-23.67 -16.9,-19.81 -4.47,-50.17 -8.53,-75.89"
         style="fill:#efbfa5;fill-opacity:1;fill-rule:nonzero;stroke:none"
         id="path58" /><path
         d="m 2522.27,4081.33 c 2.92,11.51 6.41,22.82 10.83,33.78 9.58,23.75 23.57,45.88 29.49,70.78 5.92,24.91 1.5,54.85 -19.35,69.71 -13.46,9.58 -30.98,11.06 -47.5,10.86 -54.44,-0.65 -108.63,-16.21 -155.11,-44.55 -44.29,-26.98 -81.05,-60.45 -134.96,-57.24 -50.65,3 -81.34,-13.99 -123.62,-45.53 -45.76,-34.12 -113.41,-59.64 -151.97,-99.82 -16.11,-16.78 -26.42,-38.43 -32.76,-60.8 -21.99,-77.51 5.17,-166.72 66.62,-218.83 13.78,-11.69 29.01,-21.57 44.63,-30.67 32.32,-18.84 71.3,-42.4 107.65,-41.9 -8.38,30.08 -64.46,115.8 -49.06,147.29 24.44,49.97 110.8,61.7 158.85,66.01 52.4,4.7 106.96,-16.67 158.03,-9.12 36.74,5.42 76.25,36.41 100.53,63.72 29.94,33.72 27.02,104.3 37.7,146.31"
         style="fill:#292949;fill-opacity:1;fill-rule:nonzero;stroke:none"
         id="path60" /><path
         d="m 2042.7,3559.24 -252.15,-64.76 -303.65,471.99 -128.15,-34.6 213.63,-679.45 491.58,-59.18 -21.26,366"
         style="fill:#babcbe;fill-opacity:1;fill-rule:nonzero;stroke:none"
         id="path62" /><path
         d="m 8178.87,940.801 c 11.07,12.199 24.01,18.859 38.61,16.558 14.03,-2.199 26.66,-11.718 32.44,-24.437 3.95,-8.672 4.79,-18.352 5.57,-27.813 4.04,-48.98 3.68,-165.257 -61.55,-181.988 -27.43,-7.043 -50.1,12.449 -57.43,37.059 -11.02,37.101 5.31,139.84 42.36,180.621"
         style="fill:#292949;fill-opacity:1;fill-rule:nonzero;stroke:none"
         id="path64" /><path
         d="m 8155.66,1679.63 3.41,-298.72 c -3.96,-132.69 16.75,-266.12 12.79,-398.808 -0.92,-30.512 -8.87,-62.704 -1.19,-92.942 7.52,-29.578 31.56,-34.808 56.23,-19.828 33.06,20.059 27.74,66.938 33.24,101.129 15.12,93.959 32.87,187.489 48.66,281.339 7.75,46 -8.21,110.49 -4.74,157.05 l 48.25,250.35 -196.65,20.43"
         style="fill:#f4c7b3;fill-opacity:1;fill-rule:nonzero;stroke:none"
         id="path66" /><path
         d="m 8496.97,2162.29 -130.02,-577.52 -27.61,-545.4 -206.16,4.63 -56.05,1525.55 399.64,-7.26 20.2,-400"
         style="fill:#292949;fill-opacity:1;fill-rule:nonzero;stroke:none"
         id="path68" /><path
         d="m 7883.99,951.66 c 11.57,11.551 24.74,17.449 39.2,14.289 13.9,-3.039 26.07,-13.289 31.29,-26.367 3.57,-8.922 3.99,-18.652 4.36,-28.16 1.93,-49.262 -3.4,-165.602 -69.13,-178.512 -27.63,-5.418 -49.41,15.41 -55.65,40.481 -9.4,37.769 11.26,139.629 49.93,178.269"
         style="fill:#292949;fill-opacity:1;fill-rule:nonzero;stroke:none"
         id="path70" /><path
         d="m 7992.66,1637.7 -17.49,-298.25 c -1.44,-82.88 -12.48,-165.11 -21.06,-247.44 -7.97,-76.46 4.43,-156.108 -35.54,-225.651 -12.53,-21.82 -37.86,-36.328 -55.55,-9.839 -13.64,20.421 -5.54,54.492 -8.16,77.652 -10.68,94.558 -23.99,188.808 -35.35,283.288 -5.56,46.32 13.42,109.98 12.15,156.66 l -36.41,252.32 197.41,11.26"
         style="fill:#f4c7b3;fill-opacity:1;fill-rule:nonzero;stroke:none"
         id="path72" /><path
         d="m 7731.78,2197.62 -16.78,-560.63 87.98,-566.91 209.7,-6.28 -9.26,613.55 110.96,508.81 37.26,333.06 -332.74,39.25 -87.12,-360.85"
         style="fill:#292949;fill-opacity:1;fill-rule:nonzero;stroke:none"
         id="path74" /><path
         d="m 7995,3705.79 358.48,8.57 207.84,-386.56 -73.88,-362.05 -13.15,-433.28 -511.35,-6.98 -168.26,27.32 44.68,462.95 -25.62,618.42 181.26,71.61"
         style="fill:#8cabef;fill-opacity:1;fill-rule:nonzero;stroke:none"
         id="path76" /><path
         d="m 8041.98,4040.32 c 70.58,150.42 270.49,69.65 298.01,-74.03 17.95,-93.72 -64.81,-203.91 -161.64,-219.83 -0.79,-3.53 -11.14,-34.04 -11.46,-36.86 -1.64,-14.56 -4.98,-28.73 -8.71,-43.05 -1.38,-5.34 -81.96,19.34 -90.93,22.14 -3.15,0.98 -6.63,2.24 -8.07,5.11 -2.76,5.53 13.95,47.36 15.17,53.04 1.44,6.7 2.89,13.39 4.32,20.09 -43.93,27.64 -68,79.01 -70.88,128.97 -2.89,50.19 12.99,99.21 34.19,144.42"
         style="fill:#f4c7b3;fill-opacity:1;fill-rule:nonzero;stroke:none"
         id="path78" /><path
         d="m 8191.74,4166.97 c 9.85,-12.42 12.51,-28.55 14.08,-43.93 0.94,-9.18 1.57,-18.65 -1.31,-27.33 -11.48,-34.64 -46.45,-29 -74.89,-37.49 -35.06,-10.48 -66.78,-33.31 -88.79,-61.17 -34.45,-43.64 -27.71,-105.28 -21.35,-158.19 2.24,-18.65 7.79,-46.6 -8.07,-61.31 -16.12,-14.94 -48.98,-8.82 -65.24,1.51 -14.85,9.45 -26.19,25.17 -43.1,29.91 -17.91,5.02 -43.42,-0.34 -50.1,17.31 -1.86,4.9 -1.47,10.61 -3.99,15.2 -8.52,15.49 -35.4,1.32 -48.5,13.01 -8.06,7.19 -6.56,20.49 -2.47,30.71 4.09,10.21 10.21,20.36 9.3,31.29 -0.77,9.4 -6.63,17.4 -9.83,26.22 -6.33,17.43 -1.2,38.68 12.38,51.35 25.26,23.56 68.18,13.94 94.87,35.79 13.9,11.39 20.74,29.23 27.29,46.1 6.54,16.88 14.12,34.6 28.79,44.93 18.13,12.77 41.75,7.72 59.94,23.21 10.69,9.11 18.51,21.62 30.23,29.28 15.45,10.1 44.15,16.05 62.44,20.08 29.02,6.39 59.69,-2.98 78.32,-26.48"
         style="fill:#292949;fill-opacity:1;fill-rule:nonzero;stroke:none"
         id="path80" /><path
         d="m 8295.31,3903.62 c -4.58,-51.52 -36.11,-104.34 -17.3,-152.16 18.97,-48.25 77.67,-62.91 128.19,-70.77 8.31,-1.29 114.49,-22.1 115.17,-20.11 11.88,34.95 24.12,70.57 46.23,100.01 22.1,29.43 56.21,52.11 92.29,50.47 -10.15,2.91 -14,16.14 -11.65,26.68 2.35,10.55 8.91,19.57 13.21,29.49 10.57,24.35 6.1,54.58 -11,74.33 -34.1,39.43 -104.41,32.16 -132.54,76.25 -17.44,27.34 -11.1,63.58 -18.36,95.44 -14.01,61.61 -77.71,81.06 -123.44,113.13 -48.26,33.85 -94.91,54.58 -155.2,51.1 -74.75,-4.33 -137.38,-73.2 -116.65,-146.6 26.59,-94.14 172.63,-102 189.95,-196.54 1.86,-10.16 2.02,-20.41 1.1,-30.72"
         style="fill:#292949;fill-opacity:1;fill-rule:nonzero;stroke:none"
         id="path82" /><path
         d="m 8247.43,3707.85 -111.21,-157.18 -52.27,4.28 -87.14,159.41 250.62,-6.51"
         style="fill:#f9f9f9;fill-opacity:1;fill-rule:nonzero;stroke:none"
         id="path84" /><path
         d="m 7996.81,3714.36 -202.13,-10.99 c 0,0 -226.88,-111.56 -241.89,-103.18 -15.01,8.36 -260.16,499.2 -260.16,499.2 l -120.08,-38.98 150.1,-561.48 145.08,-150.02 410.28,68.28 118.8,297.17"
         style="fill:#8cabef;fill-opacity:1;fill-rule:nonzero;stroke:none"
         id="path86" /><path
         d="m 7191.34,4067.29 -32.24,48.09 c -11.78,17.54 4.91,88.15 6.29,110.39 0.78,12.7 60.88,-13.34 66.31,-20.67 9.27,-12.5 9.2,-52.62 13.08,-69.46 l 30.74,-11.89 -3.97,-42.12 -80.21,-14.34"
         style="fill:#f4c7b3;fill-opacity:1;fill-rule:nonzero;stroke:none"
         id="path88" /><path
         d="m 2945.75,5521.04 -631.66,285.4 v 759.69 l 631.66,-285.4 v -759.69"
         style="fill:#373f8c;fill-opacity:1;fill-rule:nonzero;stroke:none"
         id="path90" /><path
         d="m 2945.75,5521.04 631.65,285.4 v 759.69 l -631.65,-285.4 v -759.69"
         style="fill:#333a7f;fill-opacity:1;fill-rule:nonzero;stroke:none"
         id="path92" /><path
         d="m 2314.09,6566.13 631.66,-285.4 631.65,285.4 -631.65,259.12 -631.66,-259.12"
         style="fill:#3f4991;fill-opacity:1;fill-rule:nonzero;stroke:none"
         id="path94" /><path
         d="m 7989.88,5945.04 -530.76,239.81 v 638.35 l 530.76,-239.82 v -638.34"
         style="fill:#5d66d3;fill-opacity:1;fill-rule:nonzero;stroke:none"
         id="path96" /><path
         d="m 7989.88,5945.04 530.76,239.81 v 638.35 l -530.76,-239.82 v -638.34"
         style="fill:#474ebb;fill-opacity:1;fill-rule:nonzero;stroke:none"
         id="path98" /><path
         d="m 7459.12,6823.2 530.76,-239.82 530.76,239.82 -530.76,217.73 -530.76,-217.73"
         style="fill:#717ddb;fill-opacity:1;fill-rule:nonzero;stroke:none"
         id="path100" /><path
         d="m 3341.96,5989.71 -86.95,39.38 13.12,28.99 86.96,-39.38 z m 144.93,-65.63 -86.96,39.38 13.13,28.98 86.95,-39.38 z m 144.93,-65.64 -86.96,39.38 13.13,28.99 86.95,-39.38 z m 144.92,-65.63 -86.95,39.38 13.12,28.98 86.96,-39.38 z m 144.93,-65.64 -86.96,39.38 13.13,28.99 86.95,-39.38 z m 144.92,-65.63 -86.95,39.38 13.12,28.98 86.96,-39.38 z m 144.93,-65.64 -86.95,39.38 13.12,28.99 86.96,-39.38 z m 144.93,-65.63 -86.96,39.38 13.13,28.98 86.96,-39.38 z m 144.92,-65.64 -86.96,39.38 13.13,28.99 86.96,-39.38 z m 144.93,-65.63 -86.96,39.38 13.13,28.98 86.95,-39.38 z m 132.39,-59.96 -74.42,33.7 13.12,28.99 74.43,-33.71 -13.13,-28.98"
         style="fill:#d67086;fill-opacity:1;fill-rule:nonzero;stroke:none"
         id="path102" /><path
         d="m 2523.43,5971.88 -18.94,25.57 76.69,56.84 18.95,-25.57 z m -127.81,-94.72 -18.95,25.56 76.69,56.84 18.94,-25.57 z m -127.83,-94.73 -18.94,25.56 76.69,56.84 18.94,-25.56 z m -127.82,-94.72 -18.94,25.56 76.69,56.83 18.95,-25.56 z m -127.82,-94.74 -18.95,25.57 76.7,56.84 18.94,-25.57 z m -127.82,-94.72 -18.94,25.56 76.69,56.84 18.95,-25.57 z m -127.82,-94.73 -18.95,25.56 76.69,56.84 18.95,-25.56 z m -90.44,-67.02 -18.94,25.57 39.31,29.13 18.94,-25.57 -39.31,-29.13"
         style="fill:#d67086;fill-opacity:1;fill-rule:nonzero;stroke:none"
         id="path104" /><path
         d="M 1443.02,4400.64 912.262,4640.46 V 5278.8 L 1443.02,5038.99 V 4400.64"
         style="fill:#5d66d3;fill-opacity:1;fill-rule:nonzero;stroke:none"
         id="path106" /><path
         d="m 1443.02,4400.64 530.76,239.82 v 638.34 l -530.76,-239.81 v -638.35"
         style="fill:#474ebb;fill-opacity:1;fill-rule:nonzero;stroke:none"
         id="path108" /><path
         d="M 912.262,5278.8 1443.02,5038.99 1973.78,5278.8 1443.02,5496.54 912.262,5278.8"
         style="fill:#717ddb;fill-opacity:1;fill-rule:nonzero;stroke:none"
         id="path110" /><path
         d="m 7624.6,6330.74 -11.75,29.57 88.71,35.24 11.75,-29.57 z m -147.85,-58.75 -11.75,29.57 88.71,35.25 11.75,-29.57 z m -147.86,-58.74 -11.74,29.57 88.71,35.25 11.75,-29.58 z m -147.85,-58.75 -11.75,29.57 88.71,35.25 11.75,-29.57 z m -147.86,-58.74 -11.74,29.57 88.71,35.25 11.74,-29.57 z m -147.85,-58.74 -11.75,29.57 88.71,35.24 11.75,-29.57 z m -147.85,-58.75 -11.75,29.57 88.71,35.25 11.75,-29.57 z m -147.85,-58.74 -11.75,29.57 88.71,35.25 11.75,-29.57 z m -147.86,-58.75 -11.75,29.57 88.72,35.25 11.75,-29.57 z m -147.85,-58.74 -11.75,29.57 88.71,35.25 11.75,-29.57 z m -147.86,-58.74 -11.74,29.57 88.71,35.24 11.75,-29.57 z m -147.85,-58.75 -11.75,29.57 88.72,35.25 11.74,-29.57 z m -147.85,-58.74 -11.75,29.57 88.71,35.24 11.75,-29.57 z m -147.85,-58.74 -11.75,29.57 88.71,35.24 11.75,-29.57 z m -147.86,-58.75 -11.75,29.57 88.72,35.24 11.74,-29.57 z m -147.85,-58.74 -11.75,29.57 88.71,35.24 11.75,-29.57 z m -147.85,-58.75 -11.75,29.57 88.71,35.25 11.75,-29.57 z m -147.86,-58.75 -11.74,29.58 88.71,35.24 11.74,-29.57 z m -147.85,-58.74 -11.75,29.58 88.72,35.24 11.74,-29.57 z m -147.85,-58.74 -11.75,29.57 88.71,35.24 11.75,-29.57 z m -61.84,-24.57 -11.74,29.57 2.69,1.07 11.75,-29.57 -2.7,-1.07"
         style="fill:#d67086;fill-opacity:1;fill-rule:nonzero;stroke:none"
         id="path112" /><path
         d="m 5285.73,4314.59 -1076.1,486.22 v 1294.23 l 1076.1,-486.22 V 4314.59"
         style="fill:#5d66d3;fill-opacity:1;fill-rule:nonzero;stroke:none"
         id="path114" /><path
         d="m 5285.73,4314.59 1076.11,486.22 V 6095.04 L 5285.73,5608.82 V 4314.59"
         style="fill:#474ebb;fill-opacity:1;fill-rule:nonzero;stroke:none"
         id="path116" /><path
         d="m 4209.63,6095.04 1076.1,-486.22 1076.11,486.22 -1076.11,441.45 -1076.1,-441.45"
         style="fill:#717ddb;fill-opacity:1;fill-rule:nonzero;stroke:none"
         id="path118" /><path
         d="m 5904.4,5151.28 -87.12,39.02 13,29.04 87.12,-39.01 z m 145.2,-65.01 -87.12,39.01 13.01,29.04 87.12,-39.01 z m 145.21,-65.02 -87.12,39.01 13,29.04 87.12,-39.01 z m 145.2,-65.01 -87.12,39 13.01,29.05 87.12,-39.01 z m 145.2,-65.02 -87.11,39.01 13,29.04 87.12,-39.01 z m 145.21,-65.02 -87.12,39.01 13,29.04 87.13,-39.01 z m 145.21,-65.01 -87.12,39.01 12.99,29.04 87.13,-39.02 z m 145.2,-65.02 -87.12,39.01 13,29.04 87.13,-39.01 z m 145.21,-65.02 -87.12,39.01 12.99,29.04 87.12,-39.01 -12.99,-29.04"
         style="fill:#d67086;fill-opacity:1;fill-rule:nonzero;stroke:none"
         id="path120" /><path
         d="m 4676.25,5139.53 -17.32,26.7 80.09,51.93 17.32,-26.69 z m -133.49,-86.56 -17.31,26.7 80.09,51.93 17.31,-26.69 z m -133.49,-86.56 -17.31,26.69 80.09,51.94 17.32,-26.7 z m -133.48,-86.57 -17.31,26.7 80.09,51.94 17.31,-26.7 z m -133.49,-86.56 -17.31,26.7 80.09,51.93 17.31,-26.7 z m -133.48,-86.57 -17.32,26.7 80.1,51.94 17.31,-26.7 z m -133.49,-86.56 -17.31,26.7 80.1,51.94 17.3,-26.7 -80.09,-51.94"
         style="fill:#d67086;fill-opacity:1;fill-rule:nonzero;stroke:none"
         id="path122" /><path
         d="m 3507.37,3254.33 -735.93,332.52 v 885.1 l 735.93,-332.52 v -885.1"
         style="fill:#5d66d3;fill-opacity:1;fill-rule:nonzero;stroke:none"
         id="path124" /><path
         d="m 3507.37,3254.33 735.94,332.52 v 885.1 l -735.94,-332.52 v -885.1"
         style="fill:#474ebb;fill-opacity:1;fill-rule:nonzero;stroke:none"
         id="path126" /><path
         d="m 2771.44,4471.95 735.93,-332.52 735.94,332.52 -735.94,301.91 -735.93,-301.91"
         style="fill:#717ddb;fill-opacity:1;fill-rule:nonzero;stroke:none"
         id="path128" /><path
         d="m 7477.31,4020.38 -735.92,332.51 V 5238 l 735.92,-332.52 v -885.1"
         style="fill:#373f8c;fill-opacity:1;fill-rule:nonzero;stroke:none"
         id="path130" /><path
         d="m 7477.31,4020.38 735.94,332.51 V 5238 l -735.94,-332.52 v -885.1"
         style="fill:#333a7f;fill-opacity:1;fill-rule:nonzero;stroke:none"
         id="path132" /><path
         d="M 6741.39,5238 7477.31,4905.48 8213.25,5238 7477.31,5539.91 6741.39,5238"
         style="fill:#3f4991;fill-opacity:1;fill-rule:nonzero;stroke:none"
         id="path134" /><path
         d="m 8132.31,2672.34 c -21.75,-22.09 -51.76,-41.21 -82.54,-37.29 -12.28,1.57 -24.49,3.73 -36.56,6.46 -9.51,2.16 -19.25,4.84 -26.81,11.11 -7.57,6.27 -12.42,17.05 -9.19,26.56 4.54,13.43 20.84,17.03 32.74,24.26 14.88,9.02 23.98,25.24 35.67,38.37 26.65,29.92 62.61,32.73 96.6,48.69 1.56,0.73 19.95,-20.5 21.64,-22.4 12.31,-13.82 13.43,-16.83 6.46,-34.32 -8.6,-21.58 -21.15,-44.32 -38.01,-61.44"
         style="fill:#f4c7b3;fill-opacity:1;fill-rule:nonzero;stroke:none"
         id="path136" /><path
         d="m 8365.36,3687.7 291,-443.23 -43.73,-246.91 -450.69,-312.21 -84.81,74.15 301.31,380.88 -11.69,240.7 -1.39,306.62"
         style="fill:#8cabef;fill-opacity:1;fill-rule:nonzero;stroke:none"
         id="path138" /></g></g></svg>
