<?xml version="1.0" encoding="UTF-8" standalone="no"?>
<svg
   xmlns:dc="http://purl.org/dc/elements/1.1/"
   xmlns:cc="http://creativecommons.org/ns#"
   xmlns:rdf="http://www.w3.org/1999/02/22-rdf-syntax-ns#"
   xmlns:svg="http://www.w3.org/2000/svg"
   xmlns="http://www.w3.org/2000/svg"
   xmlns:sodipodi="http://sodipodi.sourceforge.net/DTD/sodipodi-0.dtd"
   xmlns:inkscape="http://www.inkscape.org/namespaces/inkscape"
   version="1.1"
   id="svg2"
   xml:space="preserve"
   width="666.66669"
   height="496.81332"
   viewBox="0 0 666.66669 496.81332"
   sodipodi:docname="404-2"><metadata
     id="metadata8"><rdf:RDF><cc:Work
         rdf:about=""><dc:format>image/svg+xml</dc:format><dc:type
           rdf:resource="http://purl.org/dc/dcmitype/StillImage" /></cc:Work></rdf:RDF></metadata><defs
     id="defs6"><clipPath
       clipPathUnits="userSpaceOnUse"
       id="clipPath100"><path
         d="m 3592.46,1965.02 c -11.45,10.45 -21.66,23.15 -34.07,31.46 -19.59,13.12 -46.9,17.06 -63.51,33.67 -16.6,16.61 -20.54,43.91 -33.66,63.5 -13.01,19.44 -36.79,33.48 -45.86,55.35 -8.91,21.49 -2.11,48.19 -6.73,71.56 -4.49,22.67 -21.07,44.72 -21.07,68.71 0,24 16.58,46.05 21.07,68.72 4.62,23.37 -2.18,50.07 6.74,71.57 9.07,21.87 32.85,35.9 45.86,55.34 13.12,19.59 17.06,46.9 33.67,63.51 16.61,16.61 43.91,20.55 63.5,33.66 19.44,13.01 33.47,36.79 55.34,45.86 10.67,4.42 22.63,4.98 34.81,4.98 2.04,0 4.08,-0.02 6.12,-0.03 2.03,-0.02 4.07,-0.03 6.1,-0.03 8.34,0 16.63,0.25 24.53,1.82 22.68,4.48 44.73,21.07 68.72,21.07 23.99,0 46.04,-16.59 68.72,-21.07 7.62,-1.51 15.59,-1.8 23.62,-1.82 -7.85,-26.48 -7.26,-57.89 1.49,-84.66 -8.28,-28.73 -11.55,-58.13 -10.36,-82.91 2.06,-42.92 16.75,-77.74 46.38,-93.91 0.11,-1.07 0.2,-2.13 0.27,-3.18 0.51,-8.03 -0.3,-15.51 -2.3,-22.59 v 0 c -0.65,-2.26 -1.41,-4.47 -2.29,-6.64 -4.82,-1.79 -9.58,-4.61 -14.03,-7.99 -28.06,-1.23 -55.06,-3.16 -80.08,-5.77 -5.79,-0.61 -11.62,-1.57 -17.4,-2.89 -0.09,0.01 -0.18,0.01 -0.28,0.02 -2.18,0.13 -4.4,0.19 -6.63,0.19 -88.29,0 -211.7,-96.92 -211.7,-96.92 -11.52,-31.67 14.21,-144 61.88,-203.42 -6.49,-18.98 -12.82,-38 -18.85,-57.16 m 519.2,359.05 c -21,2.23 -42.76,4.02 -64.93,5.36 -6.68,25.73 0.35,60.01 10.19,100.82 5.18,8.6 9.75,18.01 13.96,28.22 8.83,-8.77 17.2,-17.84 21.8,-28.92 8.91,-21.5 2.11,-48.2 6.73,-71.56 2.25,-11.36 7.53,-22.55 12.25,-33.92"
         id="path98" /></clipPath></defs><sodipodi:namedview
     pagecolor="#ffffff"
     bordercolor="#666666"
     borderopacity="1"
     objecttolerance="10"
     gridtolerance="10"
     guidetolerance="10"
     inkscape:pageopacity="0"
     inkscape:pageshadow="2"
     inkscape:window-width="640"
     inkscape:window-height="480"
     id="namedview4" /><g
     id="g10"
     inkscape:groupmode="layer"
     inkscape:label="ink_ext_XXXXXX"
     transform="matrix(1.3333333,0,0,-1.3333333,0,496.81333)"><g
       id="g12"
       transform="scale(0.1)"><path
         d="m 0,449.129 h 5000 v 2.5 H 0 Z"
         style="fill:#e7e8e5;fill-opacity:1;fill-rule:nonzero;stroke:none"
         id="path14" /><path
         d="m 3943.58,334.59 h 509.008 v 2.5 H 3943.58 Z"
         style="fill:#e7e8e5;fill-opacity:1;fill-rule:nonzero;stroke:none"
         id="path16" /><path
         d="M 996.668,364.23 H 524.59 v 2.5 h 472.078 v -2.5"
         style="fill:#e7e8e5;fill-opacity:1;fill-rule:nonzero;stroke:none"
         id="path18" /><path
         d="m 3788.07,383.531 h 191.92 v -2.5 h -191.92 v 2.5"
         style="fill:#e7e8e5;fill-opacity:1;fill-rule:nonzero;stroke:none"
         id="path20" /><path
         d="m 3312.2,314.73 h -140.82 v 2.5 h 140.82 v -2.5"
         style="fill:#e7e8e5;fill-opacity:1;fill-rule:nonzero;stroke:none"
         id="path22" /><path
         d="m 3082.35,314.73 h -354.44 v 2.5 h 354.44 v -2.5"
         style="fill:#e7e8e5;fill-opacity:1;fill-rule:nonzero;stroke:none"
         id="path24" /><path
         d="m 2522.08,356.961 h -569.86 v 2.5 h 569.86 v -2.5"
         style="fill:#e7e8e5;fill-opacity:1;fill-rule:nonzero;stroke:none"
         id="path26" /><path
         d="m 439.152,3723.59 c -30.101,0 -54.582,-24.48 -54.582,-54.57 V 954.699 c 0,-30.097 24.481,-54.578 54.582,-54.578 H 2370.14 c 30.09,0 54.57,24.481 54.57,54.578 V 3669.02 c 0,30.09 -24.48,54.57 -54.57,54.57 H 439.152 M 2370.14,897.621 H 439.152 c -31.476,0 -57.082,25.598 -57.082,57.078 V 3669.02 c 0,31.46 25.606,57.07 57.082,57.07 H 2370.14 c 31.46,0 57.07,-25.61 57.07,-57.07 V 954.699 c 0,-31.48 -25.61,-57.078 -57.07,-57.078"
         style="fill:#e7e8e5;fill-opacity:1;fill-rule:nonzero;stroke:none"
         id="path28" /><path
         d="m 2602.12,3723.59 c -30.09,0 -54.57,-24.48 -54.57,-54.57 V 954.699 c 0,-30.097 24.48,-54.578 54.57,-54.578 H 4533.1 c 30.1,0 54.59,24.481 54.59,54.578 V 3669.02 c 0,30.09 -24.49,54.57 -54.59,54.57 H 2602.12 M 4533.1,897.621 H 2602.12 c -31.47,0 -57.07,25.598 -57.07,57.078 V 3669.02 c 0,31.46 25.6,57.07 57.07,57.07 H 4533.1 c 31.48,0 57.09,-25.61 57.09,-57.07 V 954.699 c 0,-31.48 -25.61,-57.078 -57.09,-57.078"
         style="fill:#e7e8e5;fill-opacity:1;fill-rule:nonzero;stroke:none"
         id="path30" /><path
         d="m 585.055,1283.17 h 1659.78 V 3395.38 H 585.055 Z"
         style="fill:#e2e2e0;fill-opacity:1;fill-rule:nonzero;stroke:none"
         id="path32" /><path
         d="m 564.449,1283.17 h 1659.77 V 3395.38 H 564.449 Z"
         style="fill:#fafaf9;fill-opacity:1;fill-rule:nonzero;stroke:none"
         id="path34" /><path
         d="m 610.898,1329.62 h 1566.87 V 3348.94 H 610.898 Z"
         style="fill:#ffffff;fill-opacity:1;fill-rule:nonzero;stroke:none"
         id="path36" /><path
         d="m 1606.14,1727.99 c 0,-116.98 -94.83,-211.8 -211.81,-211.8 -116.97,0 -211.8,94.82 -211.8,211.8 0,116.98 94.83,211.81 211.8,211.81 116.98,0 211.81,-94.83 211.81,-211.81"
         style="fill:#fafaf9;fill-opacity:1;fill-rule:nonzero;stroke:none"
         id="path38" /><path
         d="m 1618.85,2339.28 c 0,-38.59 -34.03,-68.4 -52.06,-99.56 -18.59,-32.14 -28.03,-76.31 -60.18,-94.9 -31.15,-18.03 -73.69,-4.64 -112.28,-4.64 -38.58,0 -81.12,-13.39 -112.28,4.64 -32.14,18.6 -41.58,62.76 -60.18,94.91 -18.02,31.15 -52.05,60.96 -52.05,99.55 0,38.58 34.03,68.4 52.05,99.55 18.6,32.15 28.04,76.31 60.18,94.91 31.16,18.03 73.7,4.64 112.28,4.64 38.59,0 81.13,13.39 112.29,-4.64 32.14,-18.6 41.58,-62.77 60.18,-94.91 18.02,-31.16 52.05,-60.97 52.05,-99.55"
         style="fill:#e7e8e5;fill-opacity:1;fill-rule:nonzero;stroke:none"
         id="path40" /><path
         d="m 1638.22,2950.57 -72.9,-55.57 26.32,-87.81 -91.68,-2.06 -30.25,-86.56 -75.38,52.27 -75.38,-52.27 -30.25,86.56 -91.67,2.06 26.32,87.81 -72.9,55.57 72.9,55.56 -26.32,87.82 91.68,2.05 30.25,86.57 75.37,-52.27 75.38,52.27 30.25,-86.57 91.68,-2.06 -26.32,-87.81 72.9,-55.56"
         style="fill:#dadbd8;fill-opacity:1;fill-rule:nonzero;stroke:none"
         id="path42" /><path
         d="m 4169.07,488.609 h 197.54 V 1293.03 H 4169.07 V 488.609"
         style="fill:#ededeb;fill-opacity:1;fill-rule:nonzero;stroke:none"
         id="path44" /><path
         d="m 2685.5,451.629 h 1628.99 v 36.9805 H 2685.5 Z"
         style="fill:#ededeb;fill-opacity:1;fill-rule:nonzero;stroke:none"
         id="path46" /><path
         d="m 2633.38,488.609 h 1535.69 v 804.422 H 2633.38 Z"
         style="fill:#f3f2f1;fill-opacity:1;fill-rule:nonzero;stroke:none"
         id="path48" /><path
         d="m 2740.1,810.922 h 1322.25 v 191.379 H 2740.1 Z"
         style="fill:#ededeb;fill-opacity:1;fill-rule:nonzero;stroke:none"
         id="path50" /><path
         d="M 2740.1,560.441 H 4062.35 V 751.82 H 2740.1 Z"
         style="fill:#ededeb;fill-opacity:1;fill-rule:nonzero;stroke:none"
         id="path52" /><path
         d="m 3012.4,989.18 h 777.66 c 6.91,0 12.56,5.652 12.56,12.56 v 1.12 c 0,6.91 -5.65,12.56 -12.56,12.56 H 3012.4 c -6.91,0 -12.56,-5.65 -12.56,-12.56 v -1.12 c 0,-6.908 5.65,-12.56 12.56,-12.56"
         style="fill:#f3f2f1;fill-opacity:1;fill-rule:nonzero;stroke:none"
         id="path54" /><path
         d="m 3012.4,738.691 h 777.66 c 6.91,0 12.56,5.661 12.56,12.559 v 1.129 c 0,6.91 -5.65,12.562 -12.56,12.562 H 3012.4 c -6.91,0 -12.56,-5.652 -12.56,-12.562 v -1.129 c 0,-6.898 5.65,-12.559 12.56,-12.559"
         style="fill:#f3f2f1;fill-opacity:1;fill-rule:nonzero;stroke:none"
         id="path56" /><path
         d="m 2740.1,1061.4 h 1322.25 v 191.383 H 2740.1 Z"
         style="fill:#ededeb;fill-opacity:1;fill-rule:nonzero;stroke:none"
         id="path58" /><path
         d="m 3012.4,1239.66 h 777.66 c 6.91,0 12.56,5.65 12.56,12.56 v 1.13 c 0,6.9 -5.65,12.56 -12.56,12.56 H 3012.4 c -6.91,0 -12.56,-5.66 -12.56,-12.56 v -1.13 c 0,-6.91 5.65,-12.56 12.56,-12.56"
         style="fill:#f3f2f1;fill-opacity:1;fill-rule:nonzero;stroke:none"
         id="path60" /><path
         d="m 4212.22,3491.25 c 0,-97.81 -79.29,-177.11 -177.11,-177.11 -97.81,0 -177.11,79.3 -177.11,177.11 0,97.82 79.3,177.11 177.11,177.11 97.82,0 177.11,-79.29 177.11,-177.11"
         style="fill:#f3f2f1;fill-opacity:1;fill-rule:nonzero;stroke:none"
         id="path62" /><path
         d="m 4136.46,3491.25 c 0,-72.08 -58.44,-130.51 -130.52,-130.51 -72.08,0 -130.51,58.43 -130.51,130.51 0,72.09 58.43,130.52 130.51,130.52 72.08,0 130.52,-58.43 130.52,-130.52"
         style="fill:#e7e8e5;fill-opacity:1;fill-rule:nonzero;stroke:none"
         id="path64" /><path
         d="m 4002.9,3491.25 c 0,-13.07 -10.6,-23.67 -23.67,-23.67 -13.08,0 -23.67,10.6 -23.67,23.67 0,13.08 10.59,23.68 23.67,23.68 13.07,0 23.67,-10.6 23.67,-23.68"
         style="fill:#ffffff;fill-opacity:1;fill-rule:nonzero;stroke:none"
         id="path66" /><path
         d="m 4087.15,3272.25 c -30.79,0 -53.26,5.32 -55.22,5.8 -7.15,1.75 -11.53,8.97 -9.79,16.13 1.75,7.16 8.97,11.56 16.14,9.82 0.91,-0.22 92.59,-21.7 155,27.4 39.86,31.35 60.07,85.13 60.07,159.85 0,7.38 5.98,13.36 13.35,13.36 7.38,0 13.36,-5.98 13.36,-13.36 0,-83.43 -23.69,-144.32 -70.42,-180.98 -39.21,-30.75 -86.53,-38.02 -122.49,-38.02"
         style="fill:#e7e8e5;fill-opacity:1;fill-rule:nonzero;stroke:none"
         id="path68" /><path
         d="m 4255.3,3469.83 c -13.66,0 -24.77,11.11 -24.77,24.76 v 46.88 c 0,13.66 11.11,24.76 24.77,24.76 13.65,0 24.76,-11.1 24.76,-24.76 v -46.88 c 0,-13.65 -11.11,-24.76 -24.76,-24.76"
         style="fill:#e7e8e5;fill-opacity:1;fill-rule:nonzero;stroke:none"
         id="path70" /><path
         d="M 4438.89,113.238 C 4438.89,50.6992 3570.82,0 2500,0 1429.18,0 561.109,50.6992 561.109,113.238 c 0,62.532 868.071,113.231 1938.891,113.231 1070.82,0 1938.89,-50.699 1938.89,-113.231"
         style="fill:#f3f2f1;fill-opacity:1;fill-rule:nonzero;stroke:none"
         id="path72" /><path
         d="M 2536.1,1747.05 H 4463.89 V 3151.37 H 2536.1 Z"
         style="fill:#17282f;fill-opacity:1;fill-rule:nonzero;stroke:none"
         id="path74" /><path
         d="m 2985.52,2524.46 c 5.72,0 11.51,-0.18 17.06,-1.27 6.6,-1.31 13.13,-4.08 19.44,-6.76 8.57,-3.64 17.44,-7.4 26.38,-7.4 8.95,0 17.81,3.76 26.39,7.4 6.31,2.68 12.83,5.45 19.43,6.76 6.89,1.36 14.15,1.3 21.16,1.25 9.6,-0.08 18.67,-0.14 26.59,3.14 8.11,3.36 14.52,9.9 21.31,16.81 4.85,4.94 9.86,10.06 15.55,13.86 5.75,3.86 12.44,6.57 18.91,9.19 8.93,3.63 17.37,7.05 23.51,13.18 6.13,6.14 9.55,14.58 13.18,23.51 2.62,6.47 5.34,13.15 9.19,18.91 3.81,5.68 8.92,10.7 13.86,15.55 6.92,6.79 13.45,13.2 16.81,21.31 3.29,7.92 3.22,16.99 3.15,26.59 -0.05,7.02 -0.11,14.28 1.25,21.16 1.31,6.6 4.08,13.13 6.76,19.44 3.63,8.58 7.4,17.45 7.4,26.39 0,8.94 -3.77,17.8 -7.4,26.38 -2.68,6.31 -5.45,12.84 -6.76,19.44 -1.36,6.88 -1.3,14.14 -1.25,21.16 0.07,9.6 0.14,18.67 -3.14,26.58 -3.36,8.11 -9.9,14.52 -16.81,21.31 -4.95,4.85 -10.06,9.86 -13.86,15.55 -3.86,5.76 -6.57,12.44 -9.19,18.91 -3.63,8.94 -7.05,17.37 -13.19,23.51 -6.13,6.13 -14.57,9.56 -23.5,13.18 -6.47,2.63 -13.16,5.34 -18.91,9.19 -5.69,3.81 -10.7,8.92 -15.55,13.86 -6.79,6.92 -13.2,13.45 -21.31,16.82 -7.92,3.28 -16.99,3.21 -26.59,3.14 -7.02,-0.05 -14.28,-0.11 -21.16,1.26 -6.61,1.3 -13.13,4.07 -19.44,6.75 -8.58,3.64 -17.44,7.4 -26.39,7.4 -8.94,0 -17.8,-3.76 -26.38,-7.4 -6.31,-2.68 -12.84,-5.45 -19.44,-6.75 -6.88,-1.36 -14.13,-1.31 -21.16,-1.26 -9.59,0.08 -18.67,0.14 -26.58,-3.14 -8.11,-3.36 -14.53,-9.89 -21.31,-16.81 -4.85,-4.94 -9.87,-10.05 -15.55,-13.86 -5.76,-3.85 -12.45,-6.57 -18.91,-9.19 -8.94,-3.62 -17.38,-7.05 -23.51,-13.18 -6.13,-6.13 -9.56,-14.58 -13.18,-23.51 -2.63,-6.46 -5.34,-13.15 -9.19,-18.91 -3.81,-5.68 -8.92,-10.7 -13.86,-15.55 -6.92,-6.79 -13.45,-13.2 -16.82,-21.31 -3.28,-7.92 -3.21,-16.99 -3.14,-26.59 0.05,-7.02 0.11,-14.28 -1.26,-21.16 -1.3,-6.6 -4.07,-13.13 -6.75,-19.44 -3.64,-8.57 -7.4,-17.44 -7.4,-26.38 0,-8.94 3.76,-17.81 7.4,-26.39 2.68,-6.31 5.45,-12.83 6.75,-19.44 1.37,-6.88 1.31,-14.13 1.26,-21.16 -0.08,-9.6 -0.14,-18.67 3.14,-26.58 3.36,-8.11 9.89,-14.52 16.81,-21.31 4.94,-4.85 10.05,-9.86 13.86,-15.55 3.85,-5.76 6.56,-12.44 9.19,-18.91 3.62,-8.93 7.05,-17.37 13.18,-23.51 6.13,-6.13 14.57,-9.56 23.51,-13.18 6.46,-2.63 13.15,-5.34 18.91,-9.19 5.68,-3.81 10.7,-8.92 15.55,-13.86 6.79,-6.92 13.2,-13.45 21.31,-16.82 7.91,-3.28 16.98,-3.21 26.59,-3.14 1.36,0.01 2.73,0.02 4.1,0.02 z M 3048.4,2504 c -9.96,0 -19.31,3.96 -28.35,7.8 -6.35,2.7 -12.36,5.24 -18.45,6.45 -6.37,1.26 -13.37,1.21 -20.14,1.16 -9.69,-0.08 -19.7,-0.15 -28.56,3.52 -9.06,3.76 -16.13,10.97 -22.97,17.94 -4.89,4.98 -9.51,9.69 -14.76,13.21 -5.33,3.56 -11.77,6.18 -18,8.71 -9.01,3.65 -18.32,7.43 -25.18,14.28 -6.85,6.86 -10.63,16.17 -14.28,25.18 -2.53,6.23 -5.15,12.67 -8.72,18 -3.51,5.26 -8.22,9.87 -13.2,14.76 -6.97,6.84 -14.18,13.91 -17.93,22.97 -3.68,8.86 -3.6,18.87 -3.53,28.55 0.05,6.77 0.11,13.77 -1.15,20.15 -1.21,6.09 -3.76,12.09 -6.45,18.45 -3.84,9.04 -7.8,18.38 -7.8,28.35 0,9.96 3.96,19.31 7.8,28.34 2.69,6.36 5.24,12.36 6.45,18.45 1.26,6.38 1.2,13.38 1.16,20.15 -0.08,9.69 -0.15,19.7 3.52,28.56 3.76,9.06 10.97,16.13 17.94,22.97 4.98,4.89 9.69,9.51 13.2,14.76 3.57,5.33 6.19,11.77 8.71,18 3.66,9.01 7.44,18.32 14.29,25.18 6.86,6.85 16.17,10.63 25.18,14.28 6.23,2.53 12.67,5.15 18,8.71 5.25,3.52 9.87,8.23 14.76,13.21 6.84,6.96 13.91,14.18 22.97,17.93 8.86,3.68 18.86,3.6 28.55,3.53 6.76,-0.06 13.77,-0.11 20.15,1.15 6.09,1.21 12.09,3.76 18.45,6.45 9.03,3.84 18.38,7.8 28.34,7.8 9.97,0 19.32,-3.97 28.36,-7.8 6.35,-2.7 12.35,-5.24 18.44,-6.45 6.38,-1.26 13.38,-1.21 20.15,-1.16 9.69,0.08 19.7,0.15 28.56,-3.52 9.06,-3.76 16.13,-10.97 22.97,-17.94 4.89,-4.98 9.5,-9.69 14.76,-13.2 5.33,-3.57 11.77,-6.18 18,-8.71 9.01,-3.66 18.32,-7.44 25.17,-14.29 6.86,-6.86 10.64,-16.17 14.29,-25.18 2.53,-6.23 5.14,-12.67 8.71,-18 3.52,-5.25 8.22,-9.87 13.2,-14.76 6.97,-6.84 14.18,-13.91 17.94,-22.97 3.67,-8.86 3.6,-18.87 3.52,-28.55 -0.05,-6.77 -0.1,-13.77 1.16,-20.15 1.21,-6.09 3.75,-12.09 6.45,-18.45 3.84,-9.03 7.8,-18.38 7.8,-28.34 0,-9.97 -3.96,-19.32 -7.8,-28.35 -2.7,-6.36 -5.24,-12.36 -6.45,-18.45 -1.26,-6.38 -1.21,-13.38 -1.16,-20.15 0.07,-9.68 0.15,-19.7 -3.53,-28.56 -3.75,-9.06 -10.96,-16.13 -17.93,-22.97 -4.98,-4.89 -9.69,-9.51 -13.21,-14.76 -3.56,-5.33 -6.18,-11.77 -8.71,-18 -3.65,-9.01 -7.43,-18.32 -14.29,-25.18 -6.85,-6.85 -16.16,-10.63 -25.17,-14.28 -6.23,-2.53 -12.67,-5.14 -18,-8.71 -5.26,-3.52 -9.87,-8.22 -14.76,-13.2 -6.84,-6.98 -13.91,-14.18 -22.97,-17.94 -8.86,-3.67 -18.89,-3.59 -28.56,-3.52 -6.77,0.05 -13.76,0.1 -20.14,-1.16 -6.09,-1.21 -12.09,-3.75 -18.45,-6.45 -9.04,-3.84 -18.38,-7.8 -28.35,-7.8"
         style="fill:#ffffff;fill-opacity:1;fill-rule:nonzero;stroke:none"
         id="path76" /><path
         d="m 3188.73,2753.48 c 0,-77.51 -62.83,-140.33 -140.33,-140.33 -77.5,0 -140.32,62.82 -140.32,140.33 0,77.5 62.82,140.32 140.32,140.32 77.5,0 140.33,-62.82 140.33,-140.32"
         style="fill:#ffffff;fill-opacity:1;fill-rule:nonzero;stroke:none"
         id="path78" /><path
         d="m 3148.57,2891.29 -1.78,0.73 c -0.98,0.98 -0.98,2.58 0,3.56 l 109.62,109.62 1.78,0.74 h 217 c 1.39,0 2.52,-1.13 2.52,-2.52 0,-1.39 -1.13,-2.51 -2.52,-2.51 h -215.96 l -108.88,-108.89 -1.78,-0.73"
         style="fill:#ffffff;fill-opacity:1;fill-rule:nonzero;stroke:none"
         id="path80" /><path
         d="m 2875.64,2358.12 h -217 c -1.39,0 -2.52,1.13 -2.52,2.52 0,1.39 1.13,2.51 2.52,2.51 h 215.95 l 108.89,108.89 c 0.98,0.98 2.58,0.98 3.56,0 0.98,-0.99 0.98,-2.58 0,-3.56 l -109.62,-109.62 -1.78,-0.74"
         style="fill:#ffffff;fill-opacity:1;fill-rule:nonzero;stroke:none"
         id="path82" /><path
         d="m 3602.2,2997.04 -1.75,0.9 c -0.69,0.96 -0.47,2.31 0.49,3 8.34,6.01 17.41,11.55 26.97,16.48 4.02,2.07 8.76,4.28 14.12,4.28 h 0.05 c 5.19,-0.01 9.55,-2.03 13.76,-3.99 1.62,-0.75 3.25,-1.51 4.92,-2.14 14.27,-5.37 29.95,-1.24 46.55,3.13 14.79,3.89 30.1,7.92 44.9,4.98 3.67,-0.73 7.14,-1.87 10.49,-2.97 2.04,-0.67 4.07,-1.33 6.16,-1.91 20.05,-5.57 42.27,-2.18 63.75,1.09 4.47,0.69 8.93,1.36 13.34,1.96 29.06,3.94 51.49,2.31 68.55,-4.99 2.84,-1.22 5.6,-2.61 8.34,-4 6.72,-3.41 13.06,-6.63 20.62,-7.24 8.38,-0.68 16.18,1.97 24.44,4.77 2.66,0.9 5.33,1.81 8,2.59 24.17,7.09 50.89,4.58 76.72,2.15 l 4.68,-0.44 c 70.07,-6.49 141.2,-6.98 211.42,-1.44 1.17,0.08 2.22,-0.8 2.31,-1.98 0.09,-1.18 -0.79,-2.22 -1.98,-2.31 -70.46,-5.55 -141.83,-5.07 -212.14,1.45 l -4.69,0.43 c -25.44,2.4 -51.73,4.87 -75.11,-1.99 -2.62,-0.76 -5.22,-1.65 -7.83,-2.53 -8.3,-2.82 -16.88,-5.75 -26.16,-4.99 -8.41,0.69 -15.43,4.24 -22.22,7.69 -2.67,1.35 -5.33,2.71 -8.09,3.88 -16.32,6.99 -38.01,8.52 -66.28,4.69 -4.39,-0.59 -8.82,-1.27 -13.27,-1.95 -21.94,-3.34 -44.61,-6.8 -65.55,-0.99 -2.15,0.6 -4.25,1.29 -6.35,1.98 -3.38,1.1 -6.57,2.16 -9.98,2.83 -13.84,2.74 -28.65,-1.16 -42.98,-4.92 -16.52,-4.35 -33.61,-8.84 -49.15,-2.99 -1.78,0.66 -3.5,1.46 -5.22,2.26 -3.98,1.85 -7.79,3.39 -12,3.59 -4.4,0 -8.41,-1.88 -12.15,-3.81 -9.36,-4.83 -18.26,-10.26 -26.42,-16.14 l -1.26,-0.41"
         style="fill:#ffffff;fill-opacity:1;fill-rule:nonzero;stroke:none"
         id="path84" /><path
         d="m 3981.15,2939.73 c -8.82,0 -17.46,3.04 -25.89,6 -8.58,3.02 -17.26,6.18 -26.48,6.07 -6.33,-0.05 -12.27,-1.64 -18.56,-3.32 -3.95,-1.06 -8.03,-2.15 -12.21,-2.82 -10.88,-1.75 -22.11,-0.68 -32.96,0.37 l -1.31,0.12 c -48.81,4.68 -98.86,6.51 -147.27,8.28 -16.7,0.62 -35.34,-2.07 -37.66,-11.41 l -1.8,-1.61 -2.17,1.09 c -5.03,9.08 -20.52,12.98 -33.25,12.14 -14.01,-0.94 -27.06,-6.35 -38.57,-11.13 -1.09,-0.45 -2.35,0.07 -2.81,1.17 -0.45,1.09 0.07,2.35 1.16,2.8 11.82,4.91 25.21,10.47 39.93,11.45 12.21,0.81 27.49,-2.39 35,-11.05 6.99,10.78 30.02,11.23 40.33,10.85 48.47,-1.77 98.58,-3.6 147.52,-8.3 l 1.31,-0.12 c 10.59,-1.02 21.52,-2.07 31.86,-0.41 3.97,0.64 7.95,1.71 11.79,2.73 6.27,1.68 12.76,3.41 19.64,3.47 9.83,-0.04 19,-3.17 27.94,-6.31 11.04,-3.89 21.47,-7.56 32.03,-4.83 3.46,0.9 6.49,2.42 9.71,4.02 1.71,0.86 3.43,1.72 5.22,2.49 15.97,6.85 34.81,5.63 53.04,4.45 10.47,-0.68 21.31,-1.38 31.53,-0.57 1.24,0.09 2.22,-0.79 2.31,-1.97 0.1,-1.19 -0.78,-2.22 -1.97,-2.32 -10.53,-0.84 -21.52,-0.13 -32.15,0.57 -18.53,1.2 -36.04,2.33 -51.07,-4.11 -1.7,-0.73 -3.35,-1.56 -4.99,-2.38 -3.27,-1.64 -6.66,-3.34 -10.56,-4.34 -2.89,-0.75 -5.78,-1.07 -8.64,-1.07"
         style="fill:#ffffff;fill-opacity:1;fill-rule:nonzero;stroke:none"
         id="path86" /><path
         d="m 3602.2,2873.74 -1.99,1.33 c -0.45,1.11 0.07,2.36 1.17,2.81 16.3,6.7 33.53,12.35 51.22,16.79 8.53,2.14 18.45,4.35 28.62,3.51 5.98,-0.49 11.67,-2.04 17.18,-3.52 5.62,-1.53 10.94,-2.97 16.61,-3.41 6.48,-0.5 13.33,0.34 19.97,1.16 10.03,1.23 20.42,2.51 29.78,-0.85 2.99,-1.08 5.61,-2.55 8.15,-3.97 2.59,-1.46 5.04,-2.84 7.82,-3.79 13.01,-4.46 25.97,1.44 39.68,7.7 12.37,5.64 25.15,11.46 38.98,10.06 9.54,-0.98 17.59,-5.32 25.38,-9.52 8.92,-4.81 17.32,-9.36 27.47,-8.8 4.56,0.25 9.03,1.6 13.35,2.91 l 1.26,0.39 c 35.42,10.64 74.23,14.55 112.26,11.3 l 1.98,-0.17 c 5.23,-0.47 10.63,-0.95 15.76,-0.34 3.24,0.38 6.32,1.17 9.58,2.01 2.3,0.6 4.6,1.19 6.96,1.63 14.44,2.73 29.2,-0.19 43.48,-3.02 2.76,-0.54 5.52,-1.09 8.26,-1.59 36.7,-6.71 76.6,-5.45 112.36,3.55 1.16,0.29 2.32,-0.41 2.61,-1.57 0.29,-1.15 -0.41,-2.32 -1.56,-2.61 -36.35,-9.14 -76.9,-10.42 -114.18,-3.6 -2.76,0.5 -5.54,1.05 -8.33,1.6 -13.87,2.75 -28.22,5.58 -41.84,3.02 -2.27,-0.43 -4.48,-1 -6.69,-1.57 -3.25,-0.84 -6.62,-1.7 -10.14,-2.12 -5.58,-0.66 -11.21,-0.16 -16.65,0.32 l -1.97,0.17 c -37.48,3.2 -75.75,-0.64 -110.65,-11.14 l -1.25,-0.37 c -4.57,-1.39 -9.29,-2.82 -14.37,-3.09 -11.32,-0.62 -20.7,4.43 -29.74,9.3 -7.42,4 -15.09,8.14 -23.78,9.03 -12.65,1.3 -24.91,-4.29 -36.76,-9.7 -13.87,-6.32 -28.2,-12.87 -42.85,-7.85 -3.15,1.08 -5.89,2.62 -8.54,4.11 -2.49,1.4 -4.85,2.72 -7.49,3.67 -8.41,3.02 -17.83,1.86 -27.81,0.63 -6.84,-0.85 -13.92,-1.72 -20.82,-1.18 -6.07,0.47 -11.84,2.04 -17.41,3.54 -5.56,1.51 -10.81,2.93 -16.41,3.39 -9.49,0.79 -19.02,-1.34 -27.21,-3.39 -17.49,-4.39 -34.53,-9.98 -50.63,-16.6 l -0.82,-0.16"
         style="fill:#ffffff;fill-opacity:1;fill-rule:nonzero;stroke:none"
         id="path88" /><path
         d="m 3602.2,2819.55 c -0.96,0 -1.84,0.65 -2.09,1.63 -0.29,1.15 0.41,2.32 1.57,2.61 19.48,4.89 39.77,8 60.3,9.26 5.87,0.36 12.07,0.56 17.73,-1.25 1.29,-0.41 2.52,-0.92 3.74,-1.44 1.69,-0.7 3.28,-1.36 5,-1.73 3.64,-0.76 7.7,-0.11 11.64,0.51 17.99,2.86 35.98,4.13 53.97,3.84 1.18,-0.02 2.13,-1 2.11,-2.19 -0.02,-1.18 -0.8,-2.1 -2.18,-2.11 -17.72,0.29 -35.48,-0.97 -52.79,-3.72 -4.75,-0.75 -9.22,-1.46 -13.63,-0.54 -2.12,0.45 -3.98,1.22 -5.78,1.97 -1.11,0.47 -2.22,0.94 -3.38,1.31 -4.96,1.59 -10.71,1.39 -16.17,1.06 -20.27,-1.25 -40.29,-4.32 -59.52,-9.14 l -0.52,-0.07"
         style="fill:#ffffff;fill-opacity:1;fill-rule:nonzero;stroke:none"
         id="path90" /><path
         d="m 3837.76,2826.91 c -1.15,0 -2.11,0.91 -2.15,2.07 -0.04,1.19 0.88,2.18 2.07,2.23 11.99,0.43 24.18,0.41 35.95,0.38 h 0.91 c 85.86,-0.18 172.88,0.23 258.71,1.18 h 0.02 c 1.18,0 2.14,-0.94 2.15,-2.12 0.01,-1.19 -0.94,-2.17 -2.12,-2.18 -85.85,-0.95 -172.92,-1.35 -258.77,-1.18 h -0.91 c -11.74,0.02 -23.88,0.05 -35.78,-0.38 h -0.08"
         style="fill:#ffffff;fill-opacity:1;fill-rule:nonzero;stroke:none"
         id="path92" /><g
         id="g94"><g
           id="g96"
           clip-path="url(#clipPath100)"><path
             d="m 3387.56,1965.02 h 724.102 v 690.719 H 3387.56 Z"
             style="fill:#2b3c43;fill-opacity:1;fill-rule:nonzero;stroke:none"
             id="path102" /></g></g><path
         d="m 2671.78,1854.65 h 186.23 c 10.62,0 19.31,-8.69 19.31,-19.3 v -34.12 c 0,-10.62 -8.69,-19.3 -19.31,-19.3 h -186.23 c -10.61,0 -19.3,8.68 -19.3,19.3 v 34.12 c 0,10.61 8.69,19.3 19.3,19.3"
         style="fill:#406fbf;fill-opacity:1;fill-rule:nonzero;stroke:none"
         id="path104" /><path
         d="M 2663.8,1854.65 H 2866 c 6.22,0 11.32,5.09 11.32,11.32 v 7.56 c 0,6.23 -5.1,11.32 -11.32,11.32 h -202.2 c -6.22,0 -11.32,-5.09 -11.32,-11.32 v -7.56 c 0,-6.23 5.1,-11.32 11.32,-11.32"
         style="fill:#ffffff;fill-opacity:1;fill-rule:nonzero;stroke:none"
         id="path106" /><path
         d="m 3515.11,167.84 h -30.23 v 1587.64 h 30.23 V 167.84"
         style="fill:#17282f;fill-opacity:1;fill-rule:nonzero;stroke:none"
         id="path108" /><path
         d="m 3541.71,606.18 h -83.42 c -9.4,0 -17.01,7.621 -17.01,17.011 v 21.801 c 0,9.387 7.61,16.996 17.01,16.996 h 83.42 c 9.39,0 17.01,-7.609 17.01,-16.996 v -21.801 c 0,-9.39 -7.62,-17.011 -17.01,-17.011"
         style="fill:#17282f;fill-opacity:1;fill-rule:nonzero;stroke:none"
         id="path110" /><path
         d="m 3201.18,167.84 h -30.23 l 313.93,466.25 h 30.23 L 3201.18,167.84"
         style="fill:#17282f;fill-opacity:1;fill-rule:nonzero;stroke:none"
         id="path112" /><path
         d="m 3798.82,167.84 h 30.23 l -313.94,466.25 h -30.23 l 313.94,-466.25"
         style="fill:#17282f;fill-opacity:1;fill-rule:nonzero;stroke:none"
         id="path114" /><path
         d="M 4469.71,3137.13 H 2530.29 c -7.87,0 -14.24,6.38 -14.24,14.25 0,7.86 6.37,14.24 14.24,14.24 h 1939.42 c 7.86,0 14.24,-6.38 14.24,-14.24 0,-7.87 -6.38,-14.25 -14.24,-14.25"
         style="fill:#dadbd8;fill-opacity:1;fill-rule:nonzero;stroke:none"
         id="path116" /><path
         d="M 4547.03,1781.93 H 2452.97 l 48.83,-52.9 h 1996.39 l 48.84,52.9"
         style="fill:#dadbd8;fill-opacity:1;fill-rule:nonzero;stroke:none"
         id="path118" /><path
         d="m 1038.39,1299.86 h 959.93 v 23.5313 h -959.93 z"
         style="fill:#406fbf;fill-opacity:1;fill-rule:nonzero;stroke:none"
         id="path120" /><path
         d="M 1998.32,1299.86 H 1743.8 v 23.53 h 254.52 v -23.53"
         style="fill:#17282f;fill-opacity:1;fill-rule:nonzero;stroke:none"
         id="path122" /><path
         d="m 1606.41,132.32 h -14.56 l -60.54,620.461 c -5.05,51.489 -38.56,90.348 -77.91,90.348 h -119.43 c -39.43,0 -72.87,-38.859 -77.91,-90.348 L 1195.51,132.32 h -14.56 l 60.83,622.942 c 5.91,60.886 45.56,106.867 92.19,106.867 h 119.43 c 46.63,0 86.27,-45.981 92.18,-106.867 l 60.83,-622.942"
         style="fill:#17282f;fill-opacity:1;fill-rule:nonzero;stroke:none"
         id="path124" /><path
         d="m 1154.74,132.32 h -14.56 l -60.54,620.461 c -5.04,51.489 -38.56,90.348 -77.91,90.348 H 882.301 c -39.422,0 -72.867,-38.859 -77.91,-90.348 L 743.844,132.32 h -14.559 l 60.832,622.942 c 5.91,60.886 45.555,106.867 92.184,106.867 h 119.429 c 46.63,0 86.27,-45.981 92.18,-106.867 l 60.83,-622.942"
         style="fill:#17282f;fill-opacity:1;fill-rule:nonzero;stroke:none"
         id="path126" /><path
         d="m 1089.64,2130.34 c 2.18,-6.26 7.3,-10.29 11.43,-9 4.14,1.28 5.72,7.39 3.54,13.64 -2.19,6.25 -7.3,10.28 -11.44,9 -4.13,-1.28 -5.71,-7.39 -3.53,-13.64"
         style="fill:#17282f;fill-opacity:1;fill-rule:nonzero;stroke:none"
         id="path128" /><path
         d="m 1095.74,2126 c 0,0 24.4,-25.61 43.6,-35.2 -5.79,-12.08 -23.3,-14.06 -23.3,-14.06 l -20.3,49.26"
         style="fill:#f57739;fill-opacity:1;fill-rule:nonzero;stroke:none"
         id="path130" /><path
         d="m 1063.26,2150.54 -1.94,-0.16 c -2.11,0.38 -3.53,2.39 -3.16,4.5 3.66,20.93 20.32,27.84 21.02,28.12 1.81,0.94 4.26,-0.16 5.06,-2.16 0.8,-1.99 -0.17,-4.24 -2.15,-5.05 -0.69,-0.29 -13.4,-5.81 -16.27,-22.25 -0.26,-1.44 -1.27,-2.55 -2.56,-3"
         style="fill:#17282f;fill-opacity:1;fill-rule:nonzero;stroke:none"
         id="path132" /><path
         d="m 896.309,2032.88 64.187,-60.79 85.114,-47.8 c -3.02,-2.75 -1.95,-21.78 -0.67,-31.29 2.66,-19.78 8.02,-34.95 35.04,-46.12 10.42,-4.3 20.28,-9.74 21.92,-19.32 2,-11.61 -6.5,-26.06 -54.13,-32.92 -55.157,-7.94 -99.457,4.82 -134.278,18.91 -20.125,8.14 -16.558,17.16 -11.547,36.18 12.782,48.48 9.825,134.09 -5.636,183.15"
         style="fill:#f89e63;fill-opacity:1;fill-rule:nonzero;stroke:none"
         id="path134" /><path
         d="m 870.738,1827.47 c 17.133,44.39 24.274,78.38 24.274,78.38 0,0 130.278,9.45 173.288,-7.55 43.01,-17 69.69,-90.66 69.69,-90.66 l -267.252,19.83"
         style="fill:#17282f;fill-opacity:1;fill-rule:nonzero;stroke:none"
         id="path136" /><path
         d="m 882.066,2067.18 c 30.688,-73.22 44.946,-117.7 95.954,-142.3 76.73,-37.01 156.68,31.12 148.38,112.43 -7.48,73.18 -56.4,180.63 -139.677,183.61 -82.047,2.93 -135.344,-80.52 -104.657,-153.74"
         style="fill:#f89e63;fill-opacity:1;fill-rule:nonzero;stroke:none"
         id="path138" /><path
         d="m 1036.52,2071.05 c 28.88,32.92 8.82,89.79 -16.85,112.29 24.87,0.84 89.04,6.46 69.79,61.81 -19.25,55.35 -85.03,61.76 -104.28,34.49 -54.543,30.48 -120.321,4.01 -104.278,-37.7 -64.172,9.62 -82.621,-53.74 -56.152,-79.41 -33.687,-28.08 -45.723,-83.43 -1.602,-104.28 44.118,-20.86 44.918,-73 89.84,-100.27 44.918,-27.27 148.402,19.19 123.532,113.07"
         style="fill:#17282f;fill-opacity:1;fill-rule:nonzero;stroke:none"
         id="path140" /><path
         d="m 999.398,2059.94 c 10.332,-16.33 26.592,-26.91 41.302,-30.84 22.13,-5.91 32.79,18.57 24.6,39.51 -7.37,18.84 -29.8,40.23 -51.03,36.89 -20.915,-3.3 -26.688,-26.9 -14.872,-45.56"
         style="fill:#f89e63;fill-opacity:1;fill-rule:nonzero;stroke:none"
         id="path142" /><path
         d="m 931.703,1729.61 -65.039,-129.94 c -10.867,-21.66 -21.48,-43.25 -31.766,-64.91 -10.273,-21.47 -20.566,-43.07 -29.476,-64.28 -4.817,-10.7 -8.828,-20.91 -13.172,-31.35 l -5.496,-14.94 -0.695,-1.87 -0.344,-0.94 -0.18,-0.47 -0.074,-0.2 0.246,0.96 c 1.313,5.43 1.426,9.94 1.336,12.86 -0.328,6.14 -1.352,8.22 -1.805,9.2 -0.875,1.41 -0.554,-1.34 0.535,-4.55 1.059,-3.28 2.84,-7.4 4.95,-11.69 4.289,-8.63 9.754,-18.1 15.418,-27.81 23.425,-38.78 52.144,-79.45 78.175,-120.72 l 0.633,-1.01 c 11.477,-18.19 6.028,-42.24 -12.164,-53.71 -13.18,-8.31 -29.465,-7.72 -41.785,0.16 -22.391,14.35 -42.914,29.42 -63.105,45.98 -20.157,16.47 -39.68,33.91 -58.594,53.67 -9.586,9.86 -18.856,20.36 -28.082,32.55 -4.633,6.12 -9.274,12.62 -13.973,20.34 -4.672,7.75 -9.531,16.35 -13.855,29.69 -2.094,6.95 -4.309,15.17 -4.68,27.52 -0.152,6.02 0.336,13.63 2.359,22.08 l 1.614,6.39 5.359,20.65 c 3.941,12.95 7.656,26.33 12.027,38.67 8.508,25.26 17.844,49.25 27.25,73.32 9.883,23.67 19.766,47.27 30.285,70.38 21.145,46.42 43.114,91.27 68.122,136.29 20.656,37.19 67.543,50.59 104.726,29.93 36.168,-20.09 49.836,-64.98 31.559,-101.64 l -0.309,-0.61"
         style="fill:#f89e63;fill-opacity:1;fill-rule:nonzero;stroke:none"
         id="path144" /><path
         d="m 881.246,1859.96 c 83.719,-3.08 121.814,-65.78 52.363,-177.34 -59.703,-95.9 -67.894,-97.88 -67.894,-97.88 L 714,1659.89 c 50.973,97.11 81.516,203.22 167.246,200.07"
         style="fill:#406fbf;fill-opacity:1;fill-rule:nonzero;stroke:none"
         id="path146" /><path
         d="M 797.016,1618.77 714,1659.89 c 41.773,79.59 69.84,165.22 125.789,191.8 -26.371,-13.18 -45.601,-38.92 -49.133,-70.03 -1.133,-9.97 -1.621,-21.68 -1.625,-34.66 0,-36.27 3.805,-82.43 7.985,-128.23"
         style="fill:#2d5bb2;fill-opacity:1;fill-rule:nonzero;stroke:none"
         id="path148" /><path
         d="m 924.793,1261.66 -8.453,9.42 c -26.246,24.35 -37.399,21.32 -67.473,21.32 l -36.648,-27.44 c 22.222,-61.04 67.054,-58.34 67.054,-58.34 l 13.071,-12.13 c 12.363,-11.47 32.441,-6.5 38.019,9.42 l 3.797,10.84 c 5.668,16.17 2.078,34.15 -9.367,46.91"
         style="fill:#f89e63;fill-opacity:1;fill-rule:nonzero;stroke:none"
         id="path150" /><path
         d="m 1804.53,353.441 71.66,40.219 -76.31,174.762 -71.67,-40.223 76.32,-174.758"
         style="fill:#f89e63;fill-opacity:1;fill-rule:nonzero;stroke:none"
         id="path152" /><path
         d="m 1765.21,443.488 -21.51,49.242 72.81,37.602 21.48,-49.191 -72.78,-37.653"
         style="fill:#dc834c;fill-opacity:1;fill-rule:nonzero;stroke:none"
         id="path154" /><path
         d="m 1866.88,430.371 -91.96,-6.492 c -3.35,-0.231 -5.7,-2.738 -5.67,-6.02 l 0.67,-73.07 c 0.07,-7.578 7.65,-14.219 15.35,-13.539 31.98,2.801 44.92,10.75 85.06,16.5 24.68,3.539 84.01,7.02 117.22,16.141 32.49,8.91 27.9,39.757 0.65,38.589 -35.3,-1.511 -82.47,7.329 -106.87,23.848 -4.39,2.981 -9.55,4.383 -14.45,4.043"
         style="fill:#17282f;fill-opacity:1;fill-rule:nonzero;stroke:none"
         id="path156" /><path
         d="m 1239.57,1190.75 c 0,0 418.78,24.98 454.21,-137.47 72.07,-330.46 141.51,-513.26 141.51,-513.26 l -110.77,-57.188 c 0,0 -162.82,228.559 -210.95,462.789 -59.16,8.899 -133.67,3.84 -208.74,-1.223 -141.38,-9.527 -284.77,-19.046 -331.396,64.592 -63.028,113.06 -7.719,194.22 -7.719,194.22 l 273.855,-12.46"
         style="fill:#17282f;fill-opacity:1;fill-rule:nonzero;stroke:none"
         id="path158" /><path
         d="m 1727.01,453 129,62.551 -14.53,52.871 -141.82,-66.602 27.35,-48.82"
         style="fill:#406fbf;fill-opacity:1;fill-rule:nonzero;stroke:none"
         id="path160" /><path
         d="m 1879.93,422.68 c 14.85,-1.891 25.6,-0.668 29.16,3.402 1.47,1.68 1.75,3.938 0.87,6.906 -0.41,1.371 -1.14,2.172 -2.3,2.532 -5.53,1.73 -18.66,-6.129 -27.73,-12.84 z m 16.97,-4.532 c -7.56,-0.527 -16.03,0.442 -22.02,1.391 l -1.54,1.391 0.64,1.98 c 2.49,2.012 24.54,19.481 34.82,16.262 2.38,-0.742 4.05,-2.5 4.82,-5.09 1.28,-4.273 0.72,-7.801 -1.66,-10.523 -3.02,-3.45 -8.72,-4.957 -15.06,-5.411"
         style="fill:#406fbf;fill-opacity:1;fill-rule:nonzero;stroke:none"
         id="path162" /><path
         d="m 1884.16,453.488 c -1.58,-0.109 -2.89,-0.758 -3.98,-1.957 -4.59,-5.101 -4.31,-18.633 -3.54,-26.39 6.7,6.519 13.9,20.07 12.25,25.839 -0.31,1.102 -1.03,2.379 -3.83,2.52 z m -8.84,-33.968 -0.89,0.152 -1.13,1.469 c -0.16,0.988 -3.65,24.398 4.04,32.941 2.08,2.309 4.74,3.387 7.9,3.238 3.8,-0.191 6.41,-2.07 7.33,-5.289 2.51,-8.793 -8.49,-26.742 -16.3,-32.172 l -0.95,-0.339"
         style="fill:#406fbf;fill-opacity:1;fill-rule:nonzero;stroke:none"
         id="path164" /><path
         d="m 1331.86,203.629 81.4,3.863 13.33,192.18 -81.4,-3.852 -13.33,-192.191"
         style="fill:#f89e63;fill-opacity:1;fill-rule:nonzero;stroke:none"
         id="path166" /><path
         d="m 1421.55,233.34 -92.14,2.922 c -3.36,0.097 -5.96,-2.153 -6.26,-5.41 l -6.77,-72.762 c -0.71,-7.551 6.16,-14.93 13.89,-15.039 32.1,-0.461 45.59,3.57 86.11,2.289 24.93,-0.781 70.32,-4.871 112.03,-4.871 41.71,0 25.1,34.019 2.67,37.23 -34.97,5 -72.98,31.231 -95.56,50.153 -4.08,3.41 -9.06,5.339 -13.97,5.488"
         style="fill:#17282f;fill-opacity:1;fill-rule:nonzero;stroke:none"
         id="path168" /><path
         d="m 1433.75,224.359 c 14.58,-3.379 25.4,-3.269 29.35,0.422 1.64,1.52 2.15,3.739 1.57,6.778 -0.27,1.402 -0.91,2.281 -2.03,2.75 -5.32,2.293 -19.19,-4.188 -28.89,-9.95 z m 16.42,-6.23 c -7.57,0.242 -15.91,2.07 -21.76,3.633 l -1.4,1.539 0.84,1.898 c 2.68,1.742 26.4,16.883 36.29,12.633 2.3,-0.98 3.78,-2.902 4.28,-5.562 0.84,-4.372 -0.08,-7.829 -2.72,-10.29 -3.36,-3.128 -9.18,-4.05 -15.53,-3.851"
         style="fill:#406fbf;fill-opacity:1;fill-rule:nonzero;stroke:none"
         id="path170" /><path
         d="m 1441.1,254.582 c -1.59,0.047 -2.96,-0.453 -4.16,-1.551 -5.09,-4.59 -6.19,-18.082 -6.21,-25.883 7.32,5.801 15.87,18.551 14.81,24.461 -0.19,1.121 -0.78,2.473 -3.55,2.891 z m -12.26,-32.883 -0.87,0.231 -0.98,1.582 c -0.05,1 -1.14,24.648 7.38,32.359 2.3,2.078 5.06,2.879 8.19,2.41 3.76,-0.57 6.16,-2.711 6.75,-6 1.61,-9.011 -11.17,-25.742 -19.49,-30.351 l -0.98,-0.231"
         style="fill:#406fbf;fill-opacity:1;fill-rule:nonzero;stroke:none"
         id="path172" /><path
         d="m 1337.84,289.859 h -0.06 l 3.21,46.102 0.04,0.008 -3.19,-46.11"
         style="fill:#c3c5c2;fill-opacity:1;fill-rule:nonzero;stroke:none"
         id="path174" /><path
         d="m 1418.93,289.719 -81.09,0.14 3.19,46.11 81.21,1.14 -3.31,-47.39"
         style="fill:#dc834c;fill-opacity:1;fill-rule:nonzero;stroke:none"
         id="path176" /><path
         d="m 1048.43,1199.45 c 0,0 508.36,-94.75 498.51,-237.579 -17.72,-257.07 -103.91,-624.473 -103.91,-624.473 l -122.14,-1.718 c 0,0 -16.66,382.129 -1.58,568.16 -152.49,0 -452.58,5.308 -511.33,83.73 -64.886,86.62 1.864,222.73 1.864,222.73 l 238.586,-10.85"
         style="fill:#17282f;fill-opacity:1;fill-rule:nonzero;stroke:none"
         id="path178" /><path
         d="m 1310.63,313.59 154.08,2.25 7.27,50.07 -167.75,-4.93 6.4,-47.39"
         style="fill:#406fbf;fill-opacity:1;fill-rule:nonzero;stroke:none"
         id="path180" /><path
         d="m 1157.62,1854.23 c -49.91,9.71 -275.182,6.93 -275.182,6.93 -46.547,1.17 -86.532,-33.24 -91.782,-79.5 -7.886,-69.48 15.481,-223.14 17.02,-302.34 1.887,-97.23 4.015,-138.19 2.168,-269.02 l 524.276,-27.45 c 19.44,238.35 -57.77,353.34 -103.98,590.59 -6.98,35.83 -22.61,71.08 -72.52,80.79"
         style="fill:#406fbf;fill-opacity:1;fill-rule:nonzero;stroke:none"
         id="path182" /><path
         d="m 1334.12,1182.85 -274.24,14.36 -250.036,13.09 c 0.5,35.52 0.711,64.41 0.711,89.61 0,66.53 -1.457,107.26 -2.813,176.04 -0.023,1.11 -0.047,2.24 -0.066,3.37 -0.699,36.04 -5.922,87.51 -10.66,139.45 -4.18,45.8 -7.985,91.96 -7.985,128.23 0.004,12.98 0.492,24.69 1.625,34.66 5.164,45.5 43.922,79.53 89.473,79.53 0.766,0 1.539,-0.01 2.309,-0.03 0,0 29.867,0.37 70.273,0.37 70.539,0 173.179,-1.13 204.909,-7.3 3.11,-0.6 6.09,-1.31 8.94,-2.11 -4.43,0.91 -8.83,1.35 -13.18,1.35 -27.36,0 -52.72,-17.6 -72.59,-48.69 -9.98,-15.6 -14.26,-31.57 -14.26,-47.95 -0.01,-59.53 56.48,-124.59 101.83,-197.67 l 0.5,0.32 c 26.38,-40.83 54.56,-80.93 87.84,-120.54 l 14.27,-16.03 c 4.66,-5.31 10.39,-10.79 15.54,-16.12 l 3.98,-4.02 1.99,-2 1.8,-1.71 2.6,-2.35 5.34,-4.5 c 1.57,-1.22 2.7,-1.96 4.08,-2.95 2.62,-1.82 5.54,-3.82 7.53,-4.93 5.37,-3.24 9.93,-5.66 14.26,-7.76 5.72,-37.48 9.1,-76.89 9.11,-120.25 0,-23.25 -0.98,-47.63 -3.08,-73.47"
         style="fill:#2d5bb2;fill-opacity:1;fill-rule:nonzero;stroke:none"
         id="path184" /><path
         d="m 1221.36,1777.48 c 23.59,-41.97 47.9,-86.02 72.44,-128.16 12.1,-21.3 24.64,-42.22 37.25,-62.64 12.39,-20.76 25.57,-40.18 38.52,-58.97 l 9.75,-13.48 c 3.25,-4.61 6.48,-8.17 9.69,-12.35 l 2.42,-3.05 1.2,-1.52 0.28,-0.36 -0.4,0.4 -0.83,0.75 -1.81,1.32 -0.29,0.09 0.25,-0.55 c 1.22,-1.45 5.61,-4.2 9.33,-6.85 17.15,-11.14 39.34,-22.4 60.83,-33.79 43.56,-22.72 89.22,-45.21 133.37,-70.34 l 0.6,-0.33 c 18.65,-10.61 25.17,-34.33 14.56,-52.98 -7.95,-13.97 -23.28,-21.12 -38.3,-19.38 -52.38,6.14 -102.75,16.6 -153.88,30.38 -25.77,7.02 -50.71,14.8 -78.85,26.58 -7.46,3.32 -14.35,6.45 -23.66,12.08 -1.99,1.11 -4.91,3.11 -7.53,4.93 -1.38,0.99 -2.51,1.73 -4.08,2.95 l -5.34,4.5 -2.6,2.35 -1.8,1.71 -1.99,2 -3.98,4.02 c -5.15,5.33 -10.88,10.81 -15.54,16.12 l -14.27,16.03 c -36.03,42.88 -66.08,86.33 -94.34,130.67 -27.97,44.7 -53.77,88.95 -77.59,136.7 -18.98,38.07 -3.51,84.31 34.55,103.29 36.85,18.38 81.38,4.46 101.4,-31 l 0.64,-1.12"
         style="fill:#f89e63;fill-opacity:1;fill-rule:nonzero;stroke:none"
         id="path186" /><path
         d="m 1080.79,1804.78 c 45.12,70.59 118.48,71.61 179.38,-44.83 52.36,-100.1 49.92,-108.17 49.92,-108.17 l -141.73,-92.62 c -57.83,93.19 -133.78,173.34 -87.57,245.62"
         style="fill:#406fbf;fill-opacity:1;fill-rule:nonzero;stroke:none"
         id="path188" /><path
         d="m 1168.36,1559.16 c -45.35,73.08 -101.84,138.14 -101.83,197.67 0,16.38 4.28,32.35 14.26,47.95 19.87,31.09 45.23,48.69 72.59,48.69 34.75,0 72.72,-28.37 106.79,-93.52 47.86,-91.5 49.93,-106.1 49.93,-107.94 0,-0.17 -0.01,-0.23 -0.01,-0.23 l -12.89,-8.42 -128.34,-83.88 -0.5,-0.32"
         style="fill:#2d5bb2;fill-opacity:1;fill-rule:nonzero;stroke:none"
         id="path190" /><path
         d="m 1631.64,1394.25 -12.45,2.29 c -35.66,3.23 -42.63,-5.99 -66.43,-24.37 l -12.24,-44.12 c 54.9,-34.73 88.73,-5.18 88.73,-5.18 l 17.76,-1.61 c 16.8,-1.53 29.65,14.68 24.33,30.69 l -3.62,10.9 c -5.4,16.26 -19.23,28.3 -36.08,31.4"
         style="fill:#f89e63;fill-opacity:1;fill-rule:nonzero;stroke:none"
         id="path192" /><path
         d="m 531.793,1253.48 c -9.348,54.97 -6.898,110.25 7.094,159.88 l 9.625,-2.72 c -13.59,-48.2 -15.961,-101.97 -6.86,-155.49 l -9.859,-1.67"
         style="fill:#406fbf;fill-opacity:1;fill-rule:nonzero;stroke:none"
         id="path194" /><path
         d="m 548.266,1156.66 -9.532,56 9.86,1.68 9.531,-56 -9.859,-1.68"
         style="fill:#406fbf;fill-opacity:1;fill-rule:nonzero;stroke:none"
         id="path196" /><path
         d="m 1566.01,905.941 -223.64,8.848 -58.62,344.561 C 1253.57,1436.78 1100,1580.62 940.746,1580.62 H 800 c -159.254,0 -263.887,-143.84 -233.703,-321.27 l 40.461,-237.85 c 14.972,-88.02 91.148,-159.371 170.14,-159.371 h 574.422 310.99 c 8.36,0 10.96,12.793 3.35,16.68 -32.26,16.5 -66.25,25.812 -99.65,27.132"
         style="fill:#406fbf;fill-opacity:1;fill-rule:nonzero;stroke:none"
         id="path198" /><path
         d="m 1618.67,869.75 h -70.94 v 18.238 h 70.94 c 178.57,0 323.85,162.332 323.85,361.852 v 61.79 h 18.23 v -61.79 c 0,-209.58 -153.45,-380.09 -342.08,-380.09"
         style="fill:#17282f;fill-opacity:1;fill-rule:nonzero;stroke:none"
         id="path200" /><path
         d="m 3076.4,1299.86 h -959.93 v 23.53 h 959.93 v -23.53"
         style="fill:#406fbf;fill-opacity:1;fill-rule:nonzero;stroke:none"
         id="path202" /><path
         d="m 2757.13,1323.39 h -321.39 v 11.77 h 321.39 v -11.77"
         style="fill:#dadbd8;fill-opacity:1;fill-rule:nonzero;stroke:none"
         id="path204" /><path
         d="m 3076.4,1299.86 h -254.53 v 23.53 h 254.53 v -23.53"
         style="fill:#17282f;fill-opacity:1;fill-rule:nonzero;stroke:none"
         id="path206" /><path
         d="m 2684.49,132.32 h -14.56 l -60.54,620.461 c -5.05,51.489 -38.56,90.348 -77.92,90.348 h -119.42 c -39.43,0 -72.87,-38.859 -77.92,-90.348 L 2273.59,132.32 h -14.56 l 60.83,622.942 c 5.91,60.886 45.55,106.867 92.19,106.867 h 119.42 c 46.63,0 86.28,-45.981 92.19,-106.867 l 60.83,-622.942"
         style="fill:#17282f;fill-opacity:1;fill-rule:nonzero;stroke:none"
         id="path208" /><path
         d="m 2232.82,132.32 h -14.56 l -60.54,620.461 c -5.05,51.489 -38.56,90.348 -77.91,90.348 h -119.43 c -39.42,0 -72.87,-38.859 -77.91,-90.348 L 1821.92,132.32 h -14.56 l 60.83,622.942 c 5.92,60.886 45.56,106.867 92.19,106.867 h 119.43 c 46.63,0 86.27,-45.981 92.18,-106.867 l 60.83,-622.942"
         style="fill:#17282f;fill-opacity:1;fill-rule:nonzero;stroke:none"
         id="path210" /><path
         d="m 2028.7,1568.71 -19.28,-141.89 c -6.09,-47.26 -12.45,-94.62 -17,-141.14 l -1.54,-17.31 -0.7,-8.61 c 0.06,0.63 0.01,2.91 -0.3,4.23 -0.13,1.36 -0.56,2.85 -0.98,4.02 -0.78,2.32 -1.7,3.88 -2.44,4.87 -1.5,1.93 -1.67,1.67 -1.26,1.25 0.33,-0.47 1.52,-1.4 2.88,-2.41 2.84,-2.05 6.84,-4.37 11.2,-6.55 17.96,-8.78 40.15,-16.27 62.14,-23.06 44.34,-13.77 91.01,-25.01 137,-36.47 l -5.21,-40.42 c -49.26,1.62 -97.52,6.62 -146.74,15.19 -24.67,4.69 -49.08,9.82 -75.41,19.9 -6.65,2.62 -13.48,5.6 -20.9,9.81 -3.75,2.16 -7.56,4.59 -11.81,8.01 -4.19,3.44 -8.74,7.41 -13.51,14.4 -2.36,3.53 -4.64,7.77 -6.39,12.94 -0.86,2.61 -1.53,5.59 -2.01,8.42 -0.39,2.81 -0.54,6.59 -0.49,8.73 l 0.21,9.39 0.55,18.7 c 2,49.44 6.44,97.68 11.72,145.92 5.15,48.24 11.31,96.05 18.87,144.09 l 81.4,-12.01"
         style="fill:#f9a8b3;fill-opacity:1;fill-rule:nonzero;stroke:none"
         id="path212" /><path
         d="m 2304.97,1162.97 -31.03,-28.36 c -7.24,-6.62 -17.78,-8.16 -26.62,-3.91 l -34.3,16.51 c 0,0 -50.86,2.11 -58.11,33.17 l 13.15,24.14 78.78,8.76 c 8.1,0.9 16.26,-0.92 23.22,-5.16 l 32.47,-19.83 c 9.04,-5.52 10.26,-18.18 2.44,-25.32"
         style="fill:#f9a8b3;fill-opacity:1;fill-rule:nonzero;stroke:none"
         id="path214" /><path
         d="m 2119.16,1860.27 c 8.05,-48.67 14.88,-137.62 -19.94,-168.9 0,0 84.98,-44.49 140.7,-122.15 59.6,47.22 9.7,117.67 9.7,117.67 -53.58,14.5 -51,54.49 -40.48,91.81 l -89.98,81.57"
         style="fill:#f9a8b3;fill-opacity:1;fill-rule:nonzero;stroke:none"
         id="path216" /><path
         d="m 2003.07,1678.69 c -61.27,-19.93 -74.44,-102.08 -68.92,-166.02 l 123.67,-76.07 c 0,0 30.02,93.36 29.77,143.22 -0.27,53.06 -42.92,112.41 -84.52,98.87"
         style="fill:#17282f;fill-opacity:1;fill-rule:nonzero;stroke:none"
         id="path218" /><path
         d="m 2392.64,1559.31 c -5.18,-70.38 -20.84,-188.9 -59.41,-388.43 l -331.2,9.86 c 8.69,122.25 -4.42,213.41 -34.39,427.38 -5.47,39.05 22.62,74.76 61.84,78.8 21.27,2.19 45.42,4 69.74,4.45 55.82,1.03 101.53,1.45 150.39,-4.48 16.15,-1.95 32.81,-4.5 48.73,-7.22 57.77,-9.85 98.6,-61.92 94.3,-120.36"
         style="fill:#17282f;fill-opacity:1;fill-rule:nonzero;stroke:none"
         id="path220" /><path
         d="m 2272.23,1958.58 c 2.02,-6.26 6.97,-10.27 11.07,-8.95 4.09,1.32 5.77,7.47 3.76,13.73 -2.02,6.26 -6.98,10.27 -11.07,8.95 -4.1,-1.32 -5.78,-7.46 -3.76,-13.73"
         style="fill:#17282f;fill-opacity:1;fill-rule:nonzero;stroke:none"
         id="path222" /><path
         d="m 2274.29,1971.38 13.65,9.19 c 0,0 -3.93,-14.24 -13.65,-9.19"
         style="fill:#17282f;fill-opacity:1;fill-rule:nonzero;stroke:none"
         id="path224" /><path
         d="m 2276.38,1949.07 c 0,0 19.32,-23.54 35.21,-32.78 -5.78,-10.38 -20.97,-11.39 -20.97,-11.39 l -14.24,44.17"
         style="fill:#f46878;fill-opacity:1;fill-rule:nonzero;stroke:none"
         id="path226" /><path
         d="m 2262.05,2014.97 c 0.51,1.21 0.39,2.66 -0.45,3.8 -1.27,1.71 -3.69,2.08 -5.41,0.81 -17.19,-12.69 -16.37,-30.52 -16.32,-31.27 0.12,-2.13 1.95,-3.75 4.08,-3.63 2.12,0.12 3.75,1.93 3.63,4.06 -0.03,0.59 -0.53,14.49 13.2,24.62 l 1.27,1.61"
         style="fill:#17282f;fill-opacity:1;fill-rule:nonzero;stroke:none"
         id="path228" /><path
         d="m 2050.72,1916.91 c 29.52,-75.4 40.41,-107.94 91.98,-134.9 77.58,-40.55 163.73,12.2 157.34,94.89 -5.76,74.44 -53.06,185.23 -138.22,191.57 -83.9,6.25 -140.61,-76.16 -111.1,-151.56"
         style="fill:#f9a8b3;fill-opacity:1;fill-rule:nonzero;stroke:none"
         id="path230" /><path
         d="m 2231.79,1934.3 c 14.66,4.24 40.02,33.32 -4.33,91.96 23.79,4.24 43.04,47.8 -21.96,72.69 -64.99,24.88 -135.86,12.74 -178.93,-46.87 0,0 -137.09,-40.51 -25.38,-181.54 111.71,-141.02 253.52,-83.66 230.6,63.76"
         style="fill:#17282f;fill-opacity:1;fill-rule:nonzero;stroke:none"
         id="path232" /><path
         d="m 1975.84,2052.2 c -1.12,-7.05 4.12,-13.91 10.83,-19.61 13.14,-11.15 32.2,-12.13 46.67,-2.79 11.19,7.22 25.61,18.42 41.3,35.36 15.26,16.48 14.1,42.72 -3.07,57.19 -3.32,2.8 -5.73,4.14 -5.73,4.14 0,0 -78.52,-2.63 -90,-74.29"
         style="fill:#406fbf;fill-opacity:1;fill-rule:nonzero;stroke:none"
         id="path234" /><path
         d="m 1986.94,2061.61 c 44.87,7.17 68.72,43.11 71.37,53.79 -10.38,26.46 -140.01,194.23 -250.81,71.48 -117.04,-129.64 112.03,-260.71 30.23,-417.14 141.81,47.9 258.49,146.47 149.21,291.87"
         style="fill:#17282f;fill-opacity:1;fill-rule:nonzero;stroke:none"
         id="path236" /><path
         d="m 2199.41,1918.67 c 8.03,-16.12 22.75,-27.04 36.86,-31.51 21.21,-6.74 32.6,12.05 27.35,32.48 -4.73,18.39 -21.46,44.05 -43.07,41.89 -21.29,-2.14 -30.32,-24.43 -21.14,-42.86"
         style="fill:#f9a8b3;fill-opacity:1;fill-rule:nonzero;stroke:none"
         id="path238" /><path
         d="m 2735.26,259.422 78.19,7.398 -52.67,192.602 -78.19,-7.402 52.67,-192.598"
         style="fill:#f9a8b3;fill-opacity:1;fill-rule:nonzero;stroke:none"
         id="path240" /><path
         d="m 2918.9,214.102 c -47.81,14.109 -46.26,35.148 -93.97,73.918 -5.18,4.21 -10.93,7.378 -17.09,7.812 l -77.88,5.398 c -2.88,0.2 -5.49,-2.089 -6.17,-5.429 l -10.96,-53.91 c -3.79,-18.641 7.72,-36.59 23.84,-37.211 25.96,-1.008 57.72,-1.938 86.05,-3.91 41.29,-2.86 41.77,-23.758 90.3,-21.43 29.34,1.41 22.19,29.949 5.88,34.762"
         style="fill:#17282f;fill-opacity:1;fill-rule:nonzero;stroke:none"
         id="path242" /><path
         d="m 3026.29,507.191 53.01,46.02 -88.67,134.66 -66.31,-62.781 101.97,-117.899"
         style="fill:#f9a8b3;fill-opacity:1;fill-rule:nonzero;stroke:none"
         id="path244" /><path
         d="m 3065.06,581.75 -63.13,-58.531 c -2.5,-2.328 -2.97,-6.129 -1.1,-9 l 30.26,-46.367 c 10.46,-16.032 31.5,-16.801 46.63,-5.082 20.73,16.039 32.35,44.101 56.91,67.14 35.64,33.449 42.03,32.551 64.2,79.172 14.95,31.418 -17.71,31.566 -29.19,21.809 -28.91,-24.59 -17.56,-25.539 -84.89,-39.852 -7.31,-1.551 -14.33,-4.301 -19.69,-9.289"
         style="fill:#17282f;fill-opacity:1;fill-rule:nonzero;stroke:none"
         id="path246" /><path
         d="m 2217.73,1176.66 c 0,0 536.18,79.31 591.69,-58.13 96.58,-239.132 236.41,-508.561 236.41,-508.561 l -63,-57.75 c 0,0 -240.07,215.113 -323.24,455.361 -99.34,-32.139 -415.38,-135.56 -531.14,-135.56 -123.64,0 -174.13,105.41 -129.48,280.44 3.98,15.61 18.2,26.42 34.31,26.34 77.83,-0.38 184.45,-2.14 184.45,-2.14"
         style="fill:#406fbf;fill-opacity:1;fill-rule:nonzero;stroke:none"
         id="path248" /><path
         d="m 2982.83,552.219 c 0,0 -161.98,145.133 -265.93,330.133 -1.98,28.089 -3.37,55.539 -3.99,81.828 -3.18,133.26 -325.09,142.94 -418.58,142.94 -15.9,0 -25.2,-0.28 -25.2,-0.28 0,0 -60.02,57.09 -126.97,70.91 42.63,-0.55 75.57,-1.09 75.57,-1.09 0,0 153.92,22.77 305.36,22.77 131.22,0 260.56,-17.09 286.33,-80.9 96.58,-239.132 236.41,-508.561 236.41,-508.561 l -2.44,-2.227 -58.04,-53.222 -2.52,-2.301"
         style="fill:#90b4e3;fill-opacity:1;fill-rule:nonzero;stroke:none"
         id="path250" /><path
         d="m 2128.45,872.02 c -93.81,0 -145.51,60.691 -145.49,166.44 0.01,33.61 5.24,71.78 16.01,114 3.97,15.55 18.1,26.34 34.13,26.34 0.06,0 0.12,0 0.18,0 24.87,-0.12 52.68,-0.39 79.01,-0.69 -58.71,-78.07 -87.14,-150.74 -87.16,-205.669 -0.02,-61.242 35.29,-100.421 103.32,-100.421"
         style="fill:#90b4e3;fill-opacity:1;fill-rule:nonzero;stroke:none"
         id="path252" /><path
         d="m 2269.13,1106.84 c 0,0 440.06,13.25 443.78,-142.66 6.14,-257.828 85.22,-626.668 85.22,-626.668 l -86.69,-8.071 c 0,0 -131.24,293.868 -165.96,545.731 -156.75,-10.172 -301.27,-3.152 -417.03,-3.152 -129.73,0 -140.45,142.47 -14.18,308.71 77.19,0 154.86,-73.89 154.86,-73.89"
         style="fill:#406fbf;fill-opacity:1;fill-rule:nonzero;stroke:none"
         id="path254" /><path
         d="m 2711.44,329.441 c 0,0 -27.84,62.329 -61.26,154.168 -6.54,17.981 -13.29,37.09 -20.1,57.082 -33.91,99.668 -69,221.309 -84.6,334.481 -65.84,-4.274 -129.55,-5.512 -189.85,-5.512 -83.26,0 -160.05,2.36 -227.18,2.36 -68.03,0 -103.34,39.179 -103.32,100.421 0.02,55.539 29.09,129.229 89.14,208.289 77.19,0 154.86,-73.89 154.86,-73.89 0,0 9.3,0.28 25.2,0.28 93.49,0 415.4,-9.68 418.58,-142.94 6.14,-257.828 85.22,-626.668 85.22,-626.668 l -3.91,-0.371 -78.22,-7.282 -4.56,-0.418"
         style="fill:#90b4e3;fill-opacity:1;fill-rule:nonzero;stroke:none"
         id="path256" /><path
         d="m 1997.65,1200.32 -9.35,-29.4 c -1.22,-2.26 1.43,-4.69 5.26,-4.8 l 340.87,-10.14 c 2.98,-0.09 5.5,1.3 5.74,3.17 l 3.87,29.56 c 0.27,2.05 -2.27,3.86 -5.53,3.96 l -335.39,9.98 c -2.46,0.07 -4.68,-0.87 -5.47,-2.33"
         style="fill:#ffffff;fill-opacity:1;fill-rule:nonzero;stroke:none"
         id="path258" /><path
         d="m 2041.58,1161.48 -8.98,0.27 c -1.79,0.05 -3.12,1.01 -2.97,2.13 l 5.36,38.4 c 0.16,1.12 1.75,1.99 3.54,1.94 l 8.98,-0.27 c 1.79,-0.05 3.12,-1.01 2.97,-2.14 l -5.36,-38.39 c -0.16,-1.12 -1.75,-2 -3.54,-1.94"
         style="fill:#17282f;fill-opacity:1;fill-rule:nonzero;stroke:none"
         id="path260" /><path
         d="m 2309.09,1153.52 -8.99,0.27 c -1.78,0.05 -3.12,1.02 -2.96,2.14 l 5.36,38.39 c 0.15,1.12 1.74,2 3.53,1.95 l 8.98,-0.27 c 1.79,-0.05 3.13,-1.02 2.97,-2.14 l -5.36,-38.39 c -0.15,-1.13 -1.74,-2 -3.53,-1.95"
         style="fill:#17282f;fill-opacity:1;fill-rule:nonzero;stroke:none"
         id="path262" /><path
         d="m 2175.33,1157.5 -8.98,0.27 c -1.79,0.05 -3.12,1.01 -2.97,2.14 l 5.36,38.39 c 0.16,1.12 1.75,2 3.54,1.94 l 8.98,-0.26 c 1.79,-0.06 3.13,-1.02 2.97,-2.14 l -5.36,-38.39 c -0.16,-1.13 -1.75,-2 -3.54,-1.95"
         style="fill:#17282f;fill-opacity:1;fill-rule:nonzero;stroke:none"
         id="path264" /><path
         d="m 2405.23,1521.34 c 1.28,-7.17 3.14,-16.3 4.88,-24.57 1.79,-8.46 3.81,-16.94 5.99,-25.34 4.3,-16.83 9.14,-33.47 14.52,-49.75 5.6,-16.15 11.69,-32 18.65,-47.08 7.28,-14.75 14.85,-29.35 23.94,-41.88 l 1.64,-2.46 -0.68,0.76 -1.33,1.31 c -0.97,0.81 -1.75,1.57 -2.76,2.21 -3.78,2.56 -6.75,3.2 -8.23,3.38 -2.77,0.19 -1.25,-0.37 0.97,-0.14 4.7,0.25 12.31,2.15 19.74,4.6 15.16,5.14 31.56,11.96 47.62,19.55 32.3,15.08 65.2,32.13 97.5,49.02 l 23.57,-33.25 c -28.66,-25.53 -58.29,-48.75 -90.75,-70.07 -16.38,-10.45 -33.01,-20.78 -52.32,-29.53 -9.83,-4.34 -19.86,-8.6 -33.48,-11.51 -6.91,-1.31 -14.79,-2.62 -26.73,-0.77 -6.02,1.09 -13.46,3.32 -21.03,8.59 -1.89,1.38 -3.71,2.71 -5.44,4.41 l -2.53,2.57 -1.83,2.06 -2.53,3.13 c -27.86,33.2 -46.27,70.15 -60.72,107.41 -7.13,18.7 -13.06,37.64 -18.09,56.75 -2.47,9.58 -4.73,19.18 -6.76,28.89 -2.15,9.88 -3.75,19.01 -5.28,30.2 l 81.47,11.51"
         style="fill:#f9a8b3;fill-opacity:1;fill-rule:nonzero;stroke:none"
         id="path266" /><path
         d="m 2365.43,1641.74 c 57.94,-44.71 57.97,-176.09 57.97,-176.09 l -99.86,-27.76 c 0,0 -71.91,87.12 -53.71,128.41 18.96,42.99 64.25,99.63 95.6,75.44"
         style="fill:#17282f;fill-opacity:1;fill-rule:nonzero;stroke:none"
         id="path268" /><path
         d="m 2713.39,1413.03 c -1.73,0 -3.41,0.94 -4.27,2.59 l -79.2,151.51 c -1.23,2.36 -0.32,5.26 2.04,6.5 2.36,1.23 5.27,0.31 6.49,-2.04 l 79.2,-151.52 c 1.23,-2.35 0.32,-5.26 -2.03,-6.49 l -2.23,-0.55"
         style="fill:#17282f;fill-opacity:1;fill-rule:nonzero;stroke:none"
         id="path270" /><path
         d="m 2679.82,1499.21 -30.28,-18.37 c -7.55,-4.58 -13.37,-11.54 -16.54,-19.79 l -28.03,-73.01 -12.9,-46.41 c 30.01,-10.82 84.46,60.02 84.46,60.02 l 34.16,25.69 c 5.58,4.2 8.05,11.37 6.24,18.11 l -11.75,43.59 c -2.96,10.99 -15.63,16.07 -25.36,10.17"
         style="fill:#f9a8b3;fill-opacity:1;fill-rule:nonzero;stroke:none"
         id="path272" /><path
         d="m 2644.09,905.941 -223.65,8.848 -58.61,344.561 c -30.18,177.43 -183.75,321.27 -343,321.27 h -140.75 c -159.26,0 -263.89,-143.84 -233.7,-321.27 l 40.46,-237.85 c 14.97,-88.02 91.14,-159.371 170.14,-159.371 h 574.42 310.98 c 8.37,0 10.96,12.793 3.36,16.68 -32.26,16.5 -66.25,25.812 -99.65,27.132"
         style="fill:#406fbf;fill-opacity:1;fill-rule:nonzero;stroke:none"
         id="path274" /><path
         d="m 2696.75,869.75 h -70.94 v 18.238 h 70.94 c 178.57,0 323.85,162.332 323.85,361.852 v 61.79 h 18.23 v -61.79 c 0,-209.58 -153.45,-380.09 -342.08,-380.09"
         style="fill:#17282f;fill-opacity:1;fill-rule:nonzero;stroke:none"
         id="path276" /><path
         d="m 3803.17,336.059 128.13,27.203 24.11,-153.032 -107.04,-22.898 -45.2,148.727"
         style="fill:#cd4b4f;fill-opacity:1;fill-rule:nonzero;stroke:none"
         id="path278" /><path
         d="m 3944.81,277.52 -4.26,27.019 0.06,0.012 4.25,-27.02 -0.05,-0.011"
         style="fill:#c3c5c2;fill-opacity:1;fill-rule:nonzero;stroke:none"
         id="path280" /><path
         d="m 3828.5,252.719 -7.74,25.5 119.79,26.32 4.26,-27.019 -116.31,-24.801"
         style="fill:#9e3a3e;fill-opacity:1;fill-rule:nonzero;stroke:none"
         id="path282" /><path
         d="m 3879.69,919.09 c 42.62,198.44 130.68,405.56 47.45,594.55 l -365.61,1.15 c 0,0 27.9,-434.45 40.72,-617.54 13.3,-190.371 206.15,-621.738 206.15,-621.738 l 146.49,32.179 c 0,0 -41.38,398.911 -75.2,611.399"
         style="fill:#17282f;fill-opacity:1;fill-rule:nonzero;stroke:none"
         id="path284" /><path
         d="m 3955.61,1252.78 h -0.04 c 1.43,10.82 2.63,21.62 3.59,32.4 0.01,-0.02 0.03,-0.04 0.05,-0.06 -0.96,-10.76 -2.17,-21.54 -3.6,-32.34"
         style="fill:#babcba;fill-opacity:1;fill-rule:nonzero;stroke:none"
         id="path286" /><path
         d="m 3923.58,1095.8 c 13.19,52.44 25.13,104.92 31.99,156.98 h 0.04 c -6.88,-52.04 -18.84,-104.54 -32.03,-156.98"
         style="fill:#b6b8b6;fill-opacity:1;fill-rule:nonzero;stroke:none"
         id="path288" /><path
         d="m 3883.84,937.98 c -37.19,154.6 -55.71,387.52 13.34,387.52 15.8,0 36.19,-12.2 61.98,-40.32 -0.96,-10.78 -2.16,-21.58 -3.59,-32.4 -6.86,-52.06 -18.8,-104.54 -31.99,-156.98 -13.29,-52.82 -27.83,-105.589 -39.74,-157.82"
         style="fill:#111d23;fill-opacity:1;fill-rule:nonzero;stroke:none"
         id="path290" /><path
         d="m 3984.64,167.691 -33.76,-7.5 -9.79,9.661 -12.33,-14.704 -62.07,-26.937 c -22.75,-9.879 -47.28,-14.973 -72.08,-14.973 h -50.99 c -2.98,17.094 8.23,39.391 8.23,39.391 0,0 49.2,8.59 74.56,49.512 2.8,4.519 8.74,6.269 14.47,6.41 23.49,0.59 85.27,4.078 116.08,24.289 2.93,1.93 7.27,0.101 8.01,-3.442 6.15,-29.199 19.67,-61.707 19.67,-61.707"
         style="fill:#17282f;fill-opacity:1;fill-rule:nonzero;stroke:none"
         id="path292" /><path
         d="m 4099.99,317.09 131.11,-1.258 5.74,-154.613 -109.53,0.883 -27.32,154.988"
         style="fill:#cd4b4f;fill-opacity:1;fill-rule:nonzero;stroke:none"
         id="path294" /><path
         d="m 4234.37,229.199 -0.05,0.012 -3.22,86.578 h 0.08 l 3.19,-86.59"
         style="fill:#c3c5c2;fill-opacity:1;fill-rule:nonzero;stroke:none"
         id="path296" /><path
         d="m 4234.32,229.211 -119.02,1.031 -15.27,86.797 131.07,-1.25 3.22,-86.578"
         style="fill:#9e3a3e;fill-opacity:1;fill-rule:nonzero;stroke:none"
         id="path298" /><path
         d="m 4242.61,919.09 c 10.56,198.45 24.96,495.29 -41.56,586.54 l -408.29,9.16 c 0,0 113.53,-434.45 155.93,-617.54 44.05,-190.371 152.03,-640.398 152.03,-640.398 l 141.73,-0.383 c 0,0 53.44,436.16 0.16,662.621"
         style="fill:#17282f;fill-opacity:1;fill-rule:nonzero;stroke:none"
         id="path300" /><path
         d="m 3725.11,2103.75 -6.1,-5.43 -4.65,-3.91 -8.84,-7.06 c -5.81,-4.46 -11.65,-8.58 -17.48,-12.55 -11.61,-8.04 -23.66,-14.94 -35.83,-21.59 -24.48,-12.98 -50.08,-23.88 -76.82,-31.88 -13.34,-4.06 -26.94,-7.44 -40.65,-10.34 -13.81,-2.6 -27.74,-4.59 -41.76,-5.95 -28.04,-2.81 -56.47,-2.11 -84.32,1.11 l -10.59,1.22 c -10,1.16 -19.42,4.76 -27.33,9.89 -25.67,16.79 -44.92,35.82 -60.9,55.13 -16.05,19.31 -28.69,39.3 -39.98,59.2 -11.01,20.12 -20.29,40.39 -28.12,61.05 -3.93,10.31 -7.35,20.79 -10.59,31.29 -3.21,10.79 -5.68,20.8 -8.39,32.97 -5.77,26.02 10.64,51.79 36.65,57.57 16.56,3.68 33.02,-1.63 44.29,-12.69 l 4.97,-4.95 c 5.86,-5.84 12.64,-13.5 18.97,-20.24 6.3,-7 12.83,-13.82 19.19,-20.6 12.83,-13.45 25.51,-26.55 38.38,-38.37 12.55,-12.07 25.56,-22.77 37.77,-31.62 12.23,-8.85 24.03,-15.4 32.94,-18.56 l -37.91,11.11 c 16.65,1.01 32.95,3.64 49.03,7.12 16.03,3.86 31.83,8.87 47.37,14.99 15.42,6.43 30.79,13.46 45.41,21.88 7.38,4.03 14.49,8.56 21.41,12.9 3.45,2.17 6.73,4.47 9.89,6.61 l 4.46,3.07 1.86,1.32 0.69,0.45 0.16,0.07 -0.56,-0.56 c 39.39,35.17 99.84,31.75 135.01,-7.64 35.18,-39.39 31.76,-99.84 -7.63,-135.01"
         style="fill:#ce4a4f;fill-opacity:1;fill-rule:nonzero;stroke:none"
         id="path302" /><path
         d="m 3248.99,2236.64 38.09,39.95 c 22.56,53.44 -51.16,70.56 -51.16,70.56 l -46,33.43 c -10.88,7.64 -26.72,5.15 -37.4,-5.89 l -26.85,-27.73 c -12.24,-12.64 -13.35,-31.8 -2.48,-42.48 l 38.31,-34.87 c 7.11,-6.98 15.84,-12.09 25.41,-14.88 l 62.08,-18.09"
         style="fill:#cd4b4f;fill-opacity:1;fill-rule:nonzero;stroke:none"
         id="path304" /><path
         d="m 3767.76,2322.33 c -88.6,5.15 -218.33,-96.73 -218.33,-96.73 -12.32,-33.87 17.95,-159.98 72.12,-214.98 0,0 62.25,-14.84 116.67,50.83 59.19,71.43 123.44,255.42 29.54,260.88"
         style="fill:#406fbf;fill-opacity:1;fill-rule:nonzero;stroke:none"
         id="path306" /><path
         d="m 3785.44,2325.2 c 108.04,11.26 252.33,9.91 364.28,-5.8 69.88,-9.8 116.05,-77.16 102.31,-146.37 -56.64,-285.26 -14.29,-603.64 -50.98,-667.4 0,0 -404.06,-7.05 -639.52,9.16 -64.5,309.61 62.32,499.12 126.11,740.93 10.9,41.32 55.3,65.04 97.8,69.48"
         style="fill:#406fbf;fill-opacity:1;fill-rule:nonzero;stroke:none"
         id="path308" /><path
         d="m 4281.16,2207.79 9.05,-11.28 7.94,-10.29 c 5.15,-6.83 10.05,-13.76 14.89,-20.68 9.76,-13.82 18.71,-28.09 27.54,-42.53 17.3,-29.09 33.48,-59.23 47.01,-91.64 13.78,-32.23 25.49,-66.44 32.98,-103.85 7.79,-37.1 10.95,-78.26 4.34,-122.11 l -1.23,-8.15 c -1.04,-6.88 -3.43,-13.43 -6.68,-19.12 -12.31,-21.37 -25.93,-41.18 -40.16,-59.67 -14.18,-18.51 -29.5,-35.74 -45.12,-52.12 -15.9,-16.21 -32.22,-31.66 -49.4,-46.1 -17.44,-14.52 -34.5,-27.73 -54.72,-40.75 -22.54,-14.51 -52.57,-8.01 -67.08,14.53 -9.57,14.86 -10,32.98 -2.72,47.76 l 1.84,3.7 c 8.56,17.26 18.98,35.54 28.26,53.14 9.5,17.72 18.87,35.23 27.7,52.69 9.23,17.22 17.1,34.78 25.17,51.62 7.91,16.94 14.35,33.82 20.57,49.9 l -7.91,-27.27 c -0.04,16.83 -3.56,37.17 -10.26,59.16 -3.25,10.92 -7.48,22.21 -12.32,33.58 -4.57,11.44 -9.83,23.02 -15.66,34.6 -11.64,23.09 -24.77,46.51 -39.16,69.44 -7.06,11.56 -14.68,22.86 -22.15,34.18 l -11.41,16.68 -10.5,14.93 -3.47,4.95 c -30.35,43.16 -19.96,102.74 23.2,133.08 41.42,29.11 98.14,20.48 129.46,-18.38"
         style="fill:#ce4a4f;fill-opacity:1;fill-rule:nonzero;stroke:none"
         id="path310" /><path
         d="m 4181.12,2310.65 c 83.53,-29.98 162.36,-171.41 162.36,-171.41 -3.92,-51.52 -85.48,-168.15 -143.61,-193.36 0,0 -62.23,49.1 -86.57,130.85 -26.48,88.91 24.83,221.11 67.82,233.92"
         style="fill:#406fbf;fill-opacity:1;fill-rule:nonzero;stroke:none"
         id="path312" /><path
         d="m 3842.79,2304.17 c 5.27,11.39 20.7,28.84 36.76,34.79 5.69,13.99 6.46,29.6 1.23,47.91 l 179.5,57.15 c -14.52,-59.33 -25.87,-106.21 -3.81,-135.03 -35.28,-21.53 -99.93,-60.2 -170.43,-58.19 -70.51,2.01 -54.74,28.49 -43.25,53.37"
         style="fill:#cd4b4f;fill-opacity:1;fill-rule:nonzero;stroke:none"
         id="path314" /><path
         d="m 3881.84,2345.6 v 0 c 2,7.08 2.81,14.56 2.3,22.59 0.52,-8.04 -0.29,-15.53 -2.3,-22.6"
         style="fill:#202e33;fill-opacity:1;fill-rule:nonzero;stroke:none"
         id="path316" /><path
         d="m 3911.51,2338.34 c -11.65,0 -21.9,2.37 -29.67,7.26 2.01,7.06 2.82,14.55 2.3,22.59 -0.07,1.05 -0.16,2.11 -0.27,3.18 11.56,-6.31 25.39,-9.78 41.62,-9.78 21.21,0 46.54,5.92 76.26,19.16 5,2.22 9.68,4.66 14.08,7.32 -30.79,-32.24 -72.72,-49.73 -104.32,-49.73"
         style="fill:#9e3a3e;fill-opacity:1;fill-rule:nonzero;stroke:none"
         id="path318" /><path
         d="m 3881.83,2250.97 29.13,24.24 39.15,-19.63 c 0,0 -24.99,-23.43 -68.28,-4.61"
         style="fill:#406fbf;fill-opacity:1;fill-rule:nonzero;stroke:none"
         id="path320" /><path
         d="m 3914.38,2243.66 c -9.24,0 -20.14,1.92 -32.55,7.31 l 29.13,24.24 39.15,-19.63 c 0,0 -12.73,-11.92 -35.73,-11.92"
         style="fill:#2d5bb2;fill-opacity:1;fill-rule:nonzero;stroke:none"
         id="path322" /><path
         d="m 3981.06,2629.52 c -2.19,55.12 -55.34,80.27 -101.47,51.3 -46.13,-28.98 -50.5,-117.45 -16.06,-163.69 34.44,-46.23 117.53,112.39 117.53,112.39"
         style="fill:#f3f2f1;fill-opacity:1;fill-rule:nonzero;stroke:none"
         id="path324" /><path
         d="m 4095.27,2534.86 c -21.41,-77.24 -37.74,-129.28 -93.52,-154.11 -110.81,-49.34 -160.34,2.99 -164.26,84.53 -3.53,73.39 32.08,187.37 121.07,203.98 87.68,16.37 158.12,-57.16 136.71,-134.4"
         style="fill:#cd4b4f;fill-opacity:1;fill-rule:nonzero;stroke:none"
         id="path326" /><path
         d="m 4033.89,2575.06 c -23.89,-22.78 -33.39,-123.11 2.68,-121.47 36.08,1.64 73.26,9.45 73.26,9.45 0,0 45.91,17.34 20.77,86.22 -25.15,68.88 -96.71,25.8 -96.71,25.8"
         style="fill:#dadbd8;fill-opacity:1;fill-rule:nonzero;stroke:none"
         id="path328" /><path
         d="m 3995.05,2539.97 c -14.54,0 -25.51,4.24 -25.51,4.24 0,0 4.75,1.29 11.04,1.29 5.84,0 13,-1.11 18.95,-5.4 -1.52,-0.09 -3.02,-0.13 -4.48,-0.13"
         style="fill:#9e3a3e;fill-opacity:1;fill-rule:nonzero;stroke:none"
         id="path330" /><path
         d="m 3994.43,2526.61 c -14.94,2.55 -25.39,10.39 -25.39,10.39 0,0 0.34,0.02 0.94,0.02 3.64,0 16.95,-0.69 24.45,-10.41"
         style="fill:#9e3a3e;fill-opacity:1;fill-rule:nonzero;stroke:none"
         id="path332" /><path
         d="m 3977.45,2618.33 c -42.2,2.68 -75.45,7.59 -75.45,7.59 0,0 0.43,0 1.24,0 7.19,0 44.24,-0.36 74.21,-7.59"
         style="fill:#9e3a3e;fill-opacity:1;fill-rule:nonzero;stroke:none"
         id="path334" /><path
         d="m 3974.71,2600.27 c -50.71,8.26 -84.3,18.7 -84.3,18.7 0,0 57.64,-6.27 84.3,-18.7"
         style="fill:#9e3a3e;fill-opacity:1;fill-rule:nonzero;stroke:none"
         id="path336" /><path
         d="m 4111.16,2444.39 c -15.57,-17.11 -37.64,-25.35 -56.7,-25.83 -28.67,-0.73 -36.25,26.67 -22.63,50.12 12.26,21.11 41.95,46.92 68.01,36.46 25.67,-10.3 29.12,-41.19 11.32,-60.75"
         style="fill:#cd4b4f;fill-opacity:1;fill-rule:nonzero;stroke:none"
         id="path338" /><path
         d="m 3944.69,2545.08 c -1.28,-6.87 -5.96,-11.74 -10.46,-10.86 -4.49,0.88 -7.1,7.17 -5.81,14.05 1.28,6.88 5.96,11.74 10.46,10.86 4.49,-0.88 7.1,-7.17 5.81,-14.05"
         style="fill:#17282f;fill-opacity:1;fill-rule:nonzero;stroke:none"
         id="path340" /><path
         d="m 3873.25,2556.55 c -1.29,-6.88 -5.97,-11.74 -10.47,-10.86 -4.49,0.88 -7.09,7.17 -5.81,14.05 1.28,6.88 5.97,11.74 10.46,10.86 4.5,-0.88 7.1,-7.17 5.82,-14.05"
         style="fill:#17282f;fill-opacity:1;fill-rule:nonzero;stroke:none"
         id="path342" /><path
         d="m 3895.88,2546.68 -10.32,-57.92 c 0,0 -10.28,-0.47 -20.46,2.88 -5.85,1.93 -6.88,9.95 -1.83,13.48 17.66,12.31 32.61,41.56 32.61,41.56"
         style="fill:#bb2329;fill-opacity:1;fill-rule:nonzero;stroke:none"
         id="path344" /><path
         d="m 3984.97,2557.87 2.04,0.42 c 2.02,0.99 2.85,3.46 1.83,5.5 -10.15,20.46 -28.97,23.01 -29.76,23.11 -2.26,0.29 -4.29,-1.32 -4.55,-3.58 -0.26,-2.25 1.35,-4.29 3.59,-4.58 0.62,-0.09 15.27,-2.23 23.37,-18.56 0.69,-1.39 2.04,-2.22 3.48,-2.31"
         style="fill:#17282f;fill-opacity:1;fill-rule:nonzero;stroke:none"
         id="path346" /><path
         d="m 3849.3,2580.43 c 1.31,-0.23 2.7,0.18 3.68,1.22 12.36,13.19 26.98,10.84 27.6,10.74 2.23,-0.39 4.35,1.1 4.72,3.33 0.38,2.23 -1.1,4.36 -3.33,4.77 -0.81,0.13 -19.51,3.35 -35,-13.17 -1.55,-1.65 -1.46,-4.26 0.2,-5.82 l 2.13,-1.07"
         style="fill:#17282f;fill-opacity:1;fill-rule:nonzero;stroke:none"
         id="path348" /><path
         d="m 4044.15,2349 c 0,0 -57.8,-70.18 -133.19,-73.79 43.88,-20.78 51.27,-70.03 51.27,-70.03 0,0 94.02,28.66 111.79,128.7 -11.21,16.06 -29.87,15.12 -29.87,15.12"
         style="fill:#ffffff;fill-opacity:1;fill-rule:nonzero;stroke:none"
         id="path350" /><path
         d="m 3881.83,2250.97 -33,29.55 -42.04,-12.47 c 0,0 31.76,-35.9 75.04,-17.08"
         style="fill:#406fbf;fill-opacity:1;fill-rule:nonzero;stroke:none"
         id="path352" /><path
         d="m 3856.54,2245.52 c -29.81,0 -49.75,22.53 -49.75,22.53 l 42.04,12.47 33,-29.55 c -0.01,0 -0.02,-0.01 -0.03,-0.01 -8.98,-3.9 -17.45,-5.45 -25.26,-5.44"
         style="fill:#2d5bb2;fill-opacity:1;fill-rule:nonzero;stroke:none"
         id="path354" /><path
         d="m 3879.55,2338.96 c 0,0 -29.34,-33.95 -30.72,-58.44 -35.27,-9.97 -52.23,-61.62 -52.23,-61.62 0,0 -6.44,73.87 48.88,113.69 13.43,8.85 34.07,6.37 34.07,6.37"
         style="fill:#ffffff;fill-opacity:1;fill-rule:nonzero;stroke:none"
         id="path356" /><path
         d="m 4255.4,113.352 h -28.49 l -7.73,11.57 -14.96,-11.684 h -171.98 c -3.37,17.094 7.34,39.391 7.34,39.391 0,0 51.43,4.672 71.21,30.32 1.52,1.973 3.91,3.051 6.35,2.531 17.13,-3.582 85.16,-16.441 122.61,-2.96 4.06,1.46 8.34,-1.301 8.41,-5.61 0.46,-29.621 7.24,-63.558 7.24,-63.558"
         style="fill:#17282f;fill-opacity:1;fill-rule:nonzero;stroke:none"
         id="path358" /><path
         d="m 3883.4,2224.89 c 8.09,12.68 12.32,26.04 3.2,32 -6.54,4.27 -26.01,10.33 -29.56,-3.11 -3.55,-13.44 -3.57,-24.27 2,-30.33 5.57,-6.06 19.27,-6.54 24.36,1.44"
         style="fill:#17282f;fill-opacity:1;fill-rule:nonzero;stroke:none"
         id="path360" /><path
         d="m 3887.5,2254.12 c 16.98,23.57 67.02,32.04 67,12.57 -0.03,-37.23 -1.22,-74.97 -17.23,-83.81 -16,-8.84 -41.19,48.97 -53.47,49.71 l 3.7,21.53"
         style="fill:#17282f;fill-opacity:1;fill-rule:nonzero;stroke:none"
         id="path362" /><path
         d="m 3860.13,2255.46 c -10.26,24.89 -41.72,33.68 -46.91,15.15 -9.92,-35.45 -11.37,-64.9 0.27,-75.09 11.65,-10.19 36.41,38.57 46.46,38.23 l 0.18,21.71"
         style="fill:#17282f;fill-opacity:1;fill-rule:nonzero;stroke:none"
         id="path364" /><path
         d="m 3301.28,2288.91 c 12.58,45.67 -19.27,73.99 -37.02,103.61 -3.01,5.03 -18.4,2.29 -19.16,-8.31 -1.34,-18.56 2.38,-27.37 9.26,-36.93 -9.26,-11.57 -23.05,-52.17 9.39,-78.6 21.67,1.25 37.53,20.23 37.53,20.23"
         style="fill:#cd4b4f;fill-opacity:1;fill-rule:nonzero;stroke:none"
         id="path366" /><path
         d="m 4167.2,2318.04 c -6.13,4.7 -20.03,7.81 -30.32,4.7 -31.15,-35.95 -166.73,-297.17 -110.97,-781.51 h 31.71 c -55.76,484.34 78.43,740.86 109.58,776.81"
         style="fill:#ffffff;fill-opacity:1;fill-rule:nonzero;stroke:none"
         id="path368" /><path
         d="m 4060.88,1501.59 -2.81,35.74 c -0.3,3.76 -3.84,6.65 -7.86,6.42 l -15.32,-0.88 c -4.03,-0.24 -7.08,-3.51 -6.78,-7.27 l 2.81,-35.75 c 0.3,-3.76 3.83,-6.65 7.86,-6.42 l 15.32,0.88 c 4.03,0.24 7.08,3.51 6.78,7.28"
         style="fill:#ffffff;fill-opacity:1;fill-rule:nonzero;stroke:none"
         id="path370" /><path
         d="m 4061.59,1524.5 h -34.23 c -3.61,0 -7.04,2.95 -7.63,6.56 l -2.25,13.73 c -0.59,3.61 1.88,6.56 5.49,6.56 h 34.23 c 3.61,0 7.04,-2.95 7.63,-6.56 l 2.25,-13.73 c 0.59,-3.61 -1.88,-6.56 -5.49,-6.56"
         style="fill:#17282f;fill-opacity:1;fill-rule:nonzero;stroke:none"
         id="path372" /><path
         d="m 3793.73,2326.03 c -5.93,4.7 -24.52,1.95 -33.8,-3.29 -32.76,-35.95 -179.92,-297.17 -145.65,-781.51 h 31.7 c -34.26,484.34 114.99,748.85 147.75,784.8"
         style="fill:#ffffff;fill-opacity:1;fill-rule:nonzero;stroke:none"
         id="path374" /><path
         d="m 3647.48,1501.59 -1.23,35.74 c -0.13,3.76 -3.53,6.65 -7.57,6.42 l -15.36,-0.88 c -4.03,-0.24 -7.23,-3.51 -7.1,-7.27 l 1.23,-35.75 c 0.13,-3.76 3.53,-6.65 7.57,-6.42 l 15.36,0.88 c 4.04,0.24 7.23,3.51 7.1,7.28"
         style="fill:#ffffff;fill-opacity:1;fill-rule:nonzero;stroke:none"
         id="path376" /><path
         d="m 3649.21,1524.5 h -34.23 c -3.61,0 -6.91,2.95 -7.34,6.56 l -1.64,13.73 c -0.43,3.61 2.17,6.56 5.78,6.56 h 34.23 c 3.61,0 6.91,-2.95 7.34,-6.56 l 1.64,-13.73 c 0.43,-3.61 -2.17,-6.56 -5.78,-6.56"
         style="fill:#17282f;fill-opacity:1;fill-rule:nonzero;stroke:none"
         id="path378" /><path
         d="m 3968.2,2732.52 c -38.82,30.87 -103.1,-51.66 -18.2,-97.6 106.41,-57.59 93.6,-150.55 231.16,-123.36 -58.89,41.27 -21.42,72.71 -46.33,132.4 -27.87,66.83 -103.72,38.54 -166.63,88.56"
         style="fill:#f3f2f1;fill-opacity:1;fill-rule:nonzero;stroke:none"
         id="path380" /><path
         d="m 3908.99,2683.03 c 12.56,-46.16 27.89,-56.98 42.15,-69.08 -15,22.08 -21.08,51.25 -21.08,51.25 l -21.07,17.83"
         style="fill:#f3f2f1;fill-opacity:1;fill-rule:nonzero;stroke:none"
         id="path382" /><path
         d="m 3852.22,2467.4 c 0,0 29.9,2.36 111.1,-9.71 -13.14,-22.99 -33.85,-40.27 -75.38,-33.7 -41.53,6.57 -35.72,43.41 -35.72,43.41"
         style="fill:#17282f;fill-opacity:1;fill-rule:nonzero;stroke:none"
         id="path384" /><path
         d="m 3910.08,2440.31 c -20.04,3.17 -35.22,0.75 -47.06,-5.07 5.28,-5.17 13.29,-9.37 24.89,-11.21 20.04,-3.17 35.12,-0.85 46.96,5.08 -5.28,5.17 -13.19,9.36 -24.79,11.2"
         style="fill:#bb2329;fill-opacity:1;fill-rule:nonzero;stroke:none"
         id="path386" /><path
         d="m 3856.01,2467.55 c 1.53,-5.55 3.04,-11.1 10.92,-14 16.75,-3.67 60.76,-5.29 72.76,-4.59 7.63,0.11 14.36,1.71 20.12,9.25 -62.55,9.14 -93.7,9.55 -103.8,9.34"
         style="fill:#ffffff;fill-opacity:1;fill-rule:nonzero;stroke:none"
         id="path388" /><path
         d="m 3850.52,2407.95 c 0.77,-21.7 22.62,-39.59 16.87,-53.62 26.7,-1.97 55.62,4.27 77.39,17.39 8.81,5.32 5.61,18.91 -4.57,20.35 -20.25,2.88 -38.24,9.59 -47.85,17.42 -3.76,3.05 -9.13,3.5 -12.85,0.42 -17.23,-14.26 -28.99,-1.96 -28.99,-1.96"
         style="fill:#f3f2f1;fill-opacity:1;fill-rule:nonzero;stroke:none"
         id="path390" /><path
         d="m 4222.61,1505.98 -507.56,353.72 5.57,8.12 512.49,-346.54 -10.5,-15.3"
         style="fill:#17282f;fill-opacity:1;fill-rule:nonzero;stroke:none"
         id="path392" /><path
         d="m 4178.76,1651.41 49.27,-24.9 c 39.14,-42.8 -24.6,-83.61 -24.6,-83.61 l -22.72,-32 c -7.71,-10.85 -23.46,-13.8 -37.22,-6.97 l -34.58,17.14 c -15.76,7.81 -23.23,25.49 -16.56,39.2 l 15,30.78 c 4.37,8.96 10.88,16.7 18.96,22.53 l 52.45,37.83"
         style="fill:#cd4b4f;fill-opacity:1;fill-rule:nonzero;stroke:none"
         id="path394" /></g></g></svg>
