<?xml version="1.0" encoding="UTF-8" standalone="no"?>
<svg
   xmlns:dc="http://purl.org/dc/elements/1.1/"
   xmlns:cc="http://creativecommons.org/ns#"
   xmlns:rdf="http://www.w3.org/1999/02/22-rdf-syntax-ns#"
   xmlns:svg="http://www.w3.org/2000/svg"
   xmlns="http://www.w3.org/2000/svg"
   xmlns:sodipodi="http://sodipodi.sourceforge.net/DTD/sodipodi-0.dtd"
   xmlns:inkscape="http://www.inkscape.org/namespaces/inkscape"
   version="1.1"
   id="svg2"
   xml:space="preserve"
   width="4946.6665"
   height="4946.6665"
   viewBox="0 0 4946.6665 4946.6665"
   sodipodi:docname="404-4"><metadata
     id="metadata8"><rdf:RDF><cc:Work
         rdf:about=""><dc:format>image/svg+xml</dc:format><dc:type
           rdf:resource="http://purl.org/dc/dcmitype/StillImage" /></cc:Work></rdf:RDF></metadata><defs
     id="defs6"><clipPath
       clipPathUnits="userSpaceOnUse"
       id="clipPath22"><path
         d="m 16571.3,4550 c -438.1,0 -869.5,17.5 -1293.1,52.5 -1594.8,131.8 -4803.6,396.8 -7309.04,2761.3 -9.99,9.4 -19.92,18.8 -29.86,28.3 H 26162.7 C 23250.4,5475.6 19750.2,4550 16571.3,4550 M 5840.07,10375.4 c -1145.37,2495.2 -1409.51,5544.8 -909.37,8537.3 67.64,-1512.2 373.86,-2844.4 802.04,-3998.1 l 107.33,-4539.2 m 25883.33,3994.1 112,7739.5 c 0,220.7 -227.7,625.4 -649.6,698 -1056.1,3959.8 -4823.6,6985.3 -9436,7187.8 -163.6,7.2 -326.2,10.7 -488.3,10.7 -4540.2,0 -8422.6,-2791.5 -9658,-6687.5 l -431,11.2 c -105.5,2074.4 -613.3,3767 -1271.15,5119.1 1783.95,1647 5114.65,4013.1 9573.15,4013.1 42.3,0 84.7,-0.2 127.2,-0.6 4684.4,-47.3 7972.3,-2688 8372.1,-3016.9 505,-415.6 1618.9,-1403.2 2622.9,-2969.9 2202.3,-3437.1 2529.3,-8144.6 1126.7,-12104.5"
         id="path20" /></clipPath><linearGradient
       x1="0"
       y1="0"
       x2="1"
       y2="0"
       gradientUnits="userSpaceOnUse"
       gradientTransform="matrix(-20530.3,22159.7,22159.7,20530.3,34245.4,904.099)"
       spreadMethod="pad"
       id="linearGradient28"><stop
         style="stop-opacity:1;stop-color:#dae3fe"
         offset="0"
         id="stop24" /><stop
         style="stop-opacity:1;stop-color:#e9effd"
         offset="1"
         id="stop26" /></linearGradient><clipPath
       clipPathUnits="userSpaceOnUse"
       id="clipPath46"><path
         d="m 31185.8,22807 c -42.7,7.3 -87.4,11.3 -134.1,11.3 -18.9,0 -38.1,-0.7 -57.7,-2 l -2424.2,62.7 c -101.3,442.7 -243.7,870.4 -423.4,1280.3 541.2,7 1082.4,13.1 1623.6,24 5.5,0.2 10,4.6 10.1,10.2 0.2,5.7 -4.4,10.4 -10.1,10.5 -551.5,11.1 -1102.9,17.3 -1654.3,24.4 -407.6,903.6 -997.3,1716.9 -1725.1,2397.9 -3.4,5 -6.8,10.1 -10.2,15.1 -250.7,370.4 -529.9,723 -836.5,1049.6 l 271.8,3.2 c 500.4,10.4 1000.9,16.6 1501.3,30.7 5.4,0.2 9.9,4.6 10,10.1 0.2,5.7 -4.3,10.4 -10,10.6 -500.4,14.2 -1000.9,20.3 -1501.3,30.8 l -357.2,4.1 c -404.6,417.8 -855.2,790.2 -1349.1,1098.6 -905.8,565.3 -1964,897.6 -3034.9,897.6 -1.4,0 -2.8,0 -4.2,0 -3.7,0 -7.4,0 -11.1,0 -1068.5,0 -2125.1,-330.6 -3030.5,-893.5 -498.5,-310.1 -953.2,-685.3 -1361.4,-1106.7 -453.4,-8.1 -906.8,-13.8 -1360.1,-25.8 -8.2,-0.3 -14.8,-6.8 -15,-15 -0.3,-8.5 6.5,-15.6 15,-15.9 427.5,-11.2 855,-17 1282.6,-24.4 -15.2,-16.1 -30.3,-32.4 -45.4,-48.6 -1365.1,-814.2 -2450.1,-2009.6 -3087.4,-3428 -200.9,-2.8 -401.9,-5.9 -602.9,-9.7 -8.2,-0.2 -15,-6.8 -15.1,-15.1 -0.2,-8.5 6.6,-15.6 15.1,-15.7 193.6,-3.7 387.1,-6.7 580.7,-9.5 -126.8,-287.9 -235.2,-585 -323.8,-889.8 l -1507.5,39 c 1235.4,3896 5117.8,6687.5 9658,6687.5 162.1,0 324.7,-3.5 488.3,-10.7 4612.4,-202.5 8379.9,-3228 9436,-7187.8 m -5275,4233.2 c -296.3,235.5 -610.8,450.8 -941.6,644 l 397.2,4.7 c 192.8,-206.3 374.3,-423.3 544.4,-648.7 m -633.6,742.5 -491.9,5.7 c -709.1,389.7 -1487.7,678.7 -2313.9,846.7 -72.2,130 -150.3,256.8 -235.9,379.1 -121.4,170.3 -257.2,333.4 -422.4,466.5 -82.7,66.1 -172.6,124.7 -270.7,167.7 -23.2,10.1 -46.8,19.3 -70.7,27.4 391.4,-31.1 779.3,-105.2 1154.9,-219.6 503.8,-153.6 983.8,-381.3 1428.3,-663.4 446.4,-287.4 854.2,-629.3 1222.3,-1010.1 m -8300.6,104.2 c 338.5,337.3 709.3,641.8 1111.8,901.9 443.7,282.5 923,511 1426.4,665.2 477.8,146.4 975.9,227.4 1476.1,237.5 -26.2,-7.5 -51.9,-16.3 -77,-26.4 -100.1,-39.4 -191.8,-96.7 -274.6,-163.1 -165.4,-134 -299,-300.2 -414,-475 -54,-82.7 -104.4,-167.3 -151.8,-253.4 -1114.2,-93.7 -2162.4,-404.3 -3096.9,-886.7 m 5380.2,770.7 c -507,95.7 -1031.6,145.9 -1568.3,145.9 -205.5,0 -409.1,-7.4 -610.8,-21.8 37,68 75.9,134.9 117,200.4 108.9,172.3 235.4,334.8 389.7,464.6 147.1,123.1 328.5,213.5 520,213.5 7.9,0 15.8,-0.2 23.7,-0.5 200,-6.2 386.5,-104.6 540.2,-233.7 155.3,-129.8 284.5,-290.2 399.7,-458.5 67.6,-100.3 130.2,-203.9 188.8,-309.9"
         id="path44" /></clipPath><linearGradient
       x1="0"
       y1="0"
       x2="1"
       y2="0"
       gradientUnits="userSpaceOnUse"
       gradientTransform="matrix(20288.1,0,0,-20288.1,11193.5,20604.9)"
       spreadMethod="pad"
       id="linearGradient52"><stop
         style="stop-opacity:1;stop-color:#4f52ff"
         offset="0"
         id="stop48" /><stop
         style="stop-opacity:1;stop-color:#4042e2"
         offset="1"
         id="stop50" /></linearGradient><clipPath
       clipPathUnits="userSpaceOnUse"
       id="clipPath62"><path
         d="m 28569.8,22879 -645.7,16.7 c -56.8,282.2 -124.2,562.4 -202.7,839.5 -40.2,139.8 -83.1,278.7 -128.8,416.9 l 62.9,0.5 c 163.7,2.4 327.3,4.6 490.9,6.7 179.7,-409.9 322.1,-837.6 423.4,-1280.3 m -871.5,22.6 -3836.8,99.2 c -1.4,15.6 -2.8,31.2 -4.2,46.7 -33.2,360.7 -73.8,720.8 -122.5,1079.7 602.1,1.8 1204.1,1.4 1806.2,7.8 l 1838.2,15.3 c 49.8,-156.2 96.2,-313.4 139.1,-471.4 69.6,-256.9 129.3,-516.2 180,-777.3 m -4025.4,104.1 -4678.8,121.1 c 21.1,333.4 47.4,666.5 79.8,998.9 41.2,-0.1 82.5,-0.2 123.7,-0.3 l 2114.5,-4.8 2114.4,5.5 c 45.1,0.2 90.1,0.4 135.2,0.5 44,-364.2 79.9,-729.4 109.1,-1095 0.7,-8.7 1.4,-17.3 2.1,-25.9 m -4872.3,126.1 -4271.3,110.5 c 32.7,144.9 68.4,289.2 107.2,432.7 43.3,160 90,319.2 140.4,477.3 63.9,-0.8 127.8,-1.6 191.7,-2.5 l 2114.5,-16.1 c 604.8,-5.9 1209.7,-6.2 1814.6,-7.5 -38,-330.9 -70.1,-662.5 -97.1,-994.4 m -4522.3,117 -1167.3,30.2 c 88.6,304.8 197,601.9 323.8,889.8 366.5,-5.1 733,-9.1 1099.5,-13.5 -45.8,-137.9 -88.8,-276.6 -129.1,-416.2 -45.9,-162.5 -88.2,-326 -126.9,-490.3 m -821.3,970 c 637.3,1418.4 1722.3,2613.8 3087.4,3428 -289.3,-312.4 -553.9,-648 -792.8,-999.6 -505.7,-744.9 -901.4,-1562.1 -1191.5,-2414.8 -367.6,-4.5 -735.4,-8.4 -1103.1,-13.6 m 14658.7,9.6 c -153.4,2 -306.8,4.1 -460.2,6.4 l -90.9,0.7 c -286.5,843.6 -676.2,1652.4 -1174,2390.8 727.8,-681 1317.5,-1494.3 1725.1,-2397.9 m -13312,7 c 266,813.1 627.5,1596.1 1094.4,2314.3 263,404.2 559.8,788.8 889.6,1142.1 6.9,-0.2 13.8,-0.3 20.7,-0.4 l 1501.2,-16.2 c 433.4,-4.6 866.6,-7.5 1300,-9.4 -234.2,-713 -393.1,-1447.7 -520.5,-2185.2 -68.8,-405 -126.8,-811.6 -175.6,-1219.4 -610.1,-1.3 -1220.3,-1.5 -1830.4,-7.5 l -2114.5,-16.1 c -55,-0.8 -109.9,-1.5 -164.9,-2.2 m 12547.3,1.9 -1810,15.1 c -608.2,6.4 -1216.4,5.9 -1824.7,7.8 -59.4,419.4 -130.1,837.3 -213.4,1252.8 -149.6,729.2 -334.3,1453.6 -594.9,2152.9 468.9,2.2 937.7,5.5 1406.5,10.7 l 654.7,7.6 c 330.8,-193.2 645.3,-408.5 941.6,-644 119.1,-157.8 232.6,-319.6 340.4,-484.7 469,-719.2 832.4,-1503.4 1099.8,-2318.2 m -3805.9,23.5 c -39.5,0.1 -79.1,0.3 -118.6,0.5 l -2114.4,5.4 -2114.5,-4.8 c -36.7,-0.1 -73.4,-0.2 -110.1,-0.3 40.8,399.5 90.5,797.9 150.3,1195.1 114.9,745.8 262.2,1489.1 486.6,2208.6 529.2,-2 1058.4,-2.7 1587.7,-3.3 493.4,0.5 986.8,1.4 1480.2,3.4 252,-707.3 425.9,-1442 563.5,-2180.9 75.1,-405.9 137.4,-814.1 189.3,-1223.7 m -6673.8,3519 c 34.7,36.1 69.9,71.8 105.3,107.1 934.5,482.4 1982.7,793 3096.9,886.7 -154,-280.1 -276.1,-576.3 -384.6,-875.3 -11,-31.1 -21.9,-62.2 -32.6,-93.4 -448.9,-1.8 -897.8,-4.8 -1346.7,-9.6 l -1438.3,-15.5 m 7914,8.6 -470.8,5.6 c -486.4,5.4 -972.9,8.7 -1459.3,10.8 -13.3,34.2 -26.8,68.3 -40.5,102.4 -101.4,247.9 -212.7,493 -343.3,727.9 826.2,-168 1604.8,-457 2313.9,-846.7 m -2044,16.9 c -476.4,1.9 -952.8,2.7 -1429.2,3.2 -514.4,-0.6 -1028.7,-1.2 -1543,-3.1 6.4,19.4 12.8,38.8 19.3,58.2 107.8,315 230.8,626.7 389.3,918.1 201.7,14.4 405.3,21.8 610.8,21.8 536.7,0 1061.3,-50.2 1568.3,-145.9 139.5,-252.6 255.9,-519 360.6,-788.8 8,-21.1 16,-42.3 23.9,-63.5"
         id="path60" /></clipPath><linearGradient
       x1="0"
       y1="0"
       x2="1"
       y2="0"
       gradientUnits="userSpaceOnUse"
       gradientTransform="matrix(20288.1,0,0,-20288.1,11193.5,20604.9)"
       spreadMethod="pad"
       id="linearGradient68"><stop
         style="stop-opacity:1;stop-color:#606bfe"
         offset="0"
         id="stop64" /><stop
         style="stop-opacity:1;stop-color:#555fe8"
         offset="1"
         id="stop66" /></linearGradient><clipPath
       clipPathUnits="userSpaceOnUse"
       id="clipPath78"><path
         d="m 23861.5,23000.8 -188.6,4.9 c -0.7,8.6 -1.4,17.2 -2.1,25.9 -29.2,365.6 -65.1,730.8 -109.1,1095 57.7,0.2 115.4,0.4 173.1,0.6 48.7,-358.9 89.3,-719 122.5,-1079.7 1.4,-15.5 2.8,-31.1 4.2,-46.7 m -4867.4,126 -193.5,5 c 27,331.9 59.1,663.5 97.1,994.4 58.7,-0.2 117.4,-0.3 176.2,-0.5 -32.4,-332.4 -58.7,-665.5 -79.8,-998.9 m 4722.2,1133.4 c -57.1,0.2 -114.1,0.4 -171.2,0.6 -51.9,409.6 -114.2,817.8 -189.3,1223.7 -137.6,738.9 -311.5,1473.6 -563.5,2180.9 38.5,0.2 77.2,0.4 115.7,0.5 260.6,-699.3 445.3,-1423.7 594.9,-2152.9 83.3,-415.5 154,-833.4 213.4,-1252.8 m -4802.8,1 c 48.8,407.8 106.8,814.4 175.6,1219.4 127.4,737.5 286.3,1472.2 520.5,2185.2 38.2,-0.1 76.5,-0.3 114.8,-0.5 -224.4,-719.5 -371.7,-1462.8 -486.6,-2208.6 -59.8,-397.2 -109.5,-795.6 -150.3,-1195.1 -58,-0.1 -116,-0.2 -174,-0.4"
         id="path76" /></clipPath><linearGradient
       x1="0"
       y1="0"
       x2="1"
       y2="0"
       gradientUnits="userSpaceOnUse"
       gradientTransform="matrix(20288.1,0,0,-20288.1,11193.5,20604.9)"
       spreadMethod="pad"
       id="linearGradient84"><stop
         style="stop-opacity:1;stop-color:#8992fe"
         offset="0"
         id="stop80" /><stop
         style="stop-opacity:1;stop-color:#7f88ef"
         offset="1"
         id="stop82" /></linearGradient><clipPath
       clipPathUnits="userSpaceOnUse"
       id="clipPath94"><path
         d="m 22471.4,28635.1 c -38.3,7.8 -76.1,15.2 -114.6,22.5 -58.6,106 -121.2,209.6 -188.8,309.9 -115.2,168.3 -244.4,328.7 -399.7,458.5 -153.7,129.1 -340.2,227.5 -540.2,233.7 -7.9,0.3 -15.8,0.5 -23.7,0.5 -191.5,0 -372.9,-90.4 -520,-213.5 -154.3,-129.8 -280.8,-292.3 -389.7,-464.6 -41.1,-65.5 -80,-132.4 -117,-200.4 -34.7,-2.5 -69.6,-5.2 -104.2,-8.1 47.4,86.1 97.8,170.7 151.8,253.4 115,174.8 248.6,341 414,475 82.8,66.4 174.5,123.7 274.6,163.1 25.1,10.1 50.8,18.9 77,26.4 26.5,0.5 52.9,0.9 79.4,1 134,-0.5 267.9,-6.1 401.4,-16.7 23.9,-8.1 47.5,-17.3 70.7,-27.4 98.1,-43 188,-101.6 270.7,-167.7 165.2,-133.1 301,-296.2 422.4,-466.5 85.6,-122.3 163.7,-249.1 235.9,-379.1"
         id="path92" /></clipPath><linearGradient
       x1="0"
       y1="0"
       x2="1"
       y2="0"
       gradientUnits="userSpaceOnUse"
       gradientTransform="matrix(20288.1,0,0,-20288.1,11193.5,20604.9)"
       spreadMethod="pad"
       id="linearGradient100"><stop
         style="stop-opacity:1;stop-color:#7a7dff"
         offset="0"
         id="stop96" /><stop
         style="stop-opacity:1;stop-color:#6b6deb"
         offset="1"
         id="stop98" /></linearGradient><clipPath
       clipPathUnits="userSpaceOnUse"
       id="clipPath110"><path
         d="m 22855.2,27804.8 c -38,0.2 -75.9,0.4 -113.9,0.5 -7.9,21.2 -15.9,42.4 -23.9,63.5 -104.7,269.8 -221.1,536.2 -360.6,788.8 38.5,-7.3 76.3,-14.7 114.6,-22.5 130.6,-234.9 241.9,-480 343.3,-727.9 13.7,-34.1 27.2,-68.2 40.5,-102.4 m -3198.9,0.1 c 10.7,31.2 21.6,62.3 32.6,93.4 108.5,299 230.6,595.2 384.6,875.3 34.6,2.9 69.5,5.6 104.2,8.1 -158.5,-291.4 -281.5,-603.1 -389.3,-918.1 -6.5,-19.4 -12.9,-38.8 -19.3,-58.2 -37.6,-0.2 -75.2,-0.3 -112.8,-0.5"
         id="path108" /></clipPath><linearGradient
       x1="0"
       y1="0"
       x2="1"
       y2="0"
       gradientUnits="userSpaceOnUse"
       gradientTransform="matrix(20288.1,0,0,-20288.1,11193.5,20604.9)"
       spreadMethod="pad"
       id="linearGradient116"><stop
         style="stop-opacity:1;stop-color:#8992fe"
         offset="0"
         id="stop112" /><stop
         style="stop-opacity:1;stop-color:#7f88ef"
         offset="1"
         id="stop114" /></linearGradient><clipPath
       clipPathUnits="userSpaceOnUse"
       id="clipPath126"><path
         d="m 27924.1,22895.7 -225.8,5.9 c -50.7,261.1 -110.4,520.4 -180,777.3 -42.9,158 -89.3,315.2 -139.1,471.4 l 213.4,1.8 c 45.7,-138.2 88.6,-277.1 128.8,-416.9 78.5,-277.1 145.9,-557.3 202.7,-839.5 m -13394.8,346.6 -251,6.5 c 38.7,164.3 81,327.8 126.9,490.3 40.3,139.6 83.3,278.3 129.1,416.2 80.8,-1 161.7,-2 242.6,-3 -50.4,-158.1 -97.1,-317.3 -140.4,-477.3 -38.8,-143.5 -74.5,-287.8 -107.2,-432.7"
         id="path124" /></clipPath><linearGradient
       x1="0"
       y1="0"
       x2="1"
       y2="0"
       gradientUnits="userSpaceOnUse"
       gradientTransform="matrix(20288.1,0,0,-20288.1,11193.5,20604.9)"
       spreadMethod="pad"
       id="linearGradient132"><stop
         style="stop-opacity:1;stop-color:#8992fe"
         offset="0"
         id="stop128" /><stop
         style="stop-opacity:1;stop-color:#7f88ef"
         offset="1"
         id="stop130" /></linearGradient><clipPath
       clipPathUnits="userSpaceOnUse"
       id="clipPath142"><path
         d="m 16544.4,27646.8 c 15.1,16.2 30.2,32.5 45.4,48.6 12,-0.2 24,-0.5 36.1,-0.7 -27.3,-15.8 -54.4,-31.8 -81.5,-47.9"
         id="path140" /></clipPath><linearGradient
       x1="0"
       y1="0"
       x2="1"
       y2="0"
       gradientUnits="userSpaceOnUse"
       gradientTransform="matrix(20288.1,0,0,-20288.1,11193.5,20604.9)"
       spreadMethod="pad"
       id="linearGradient148"><stop
         style="stop-opacity:1;stop-color:#7a7dff"
         offset="0"
         id="stop144" /><stop
         style="stop-opacity:1;stop-color:#6b6deb"
         offset="1"
         id="stop146" /></linearGradient><clipPath
       clipPathUnits="userSpaceOnUse"
       id="clipPath158"><path
         d="m 14560.1,24232.4 c 290.1,852.7 685.8,1669.9 1191.5,2414.8 238.9,351.6 503.5,687.2 792.8,999.6 27.1,16.1 54.2,32.1 81.5,47.9 53.9,-0.9 107.9,-1.9 161.8,-2.9 -329.8,-353.3 -626.6,-737.9 -889.6,-1142.1 -466.9,-718.2 -828.4,-1501.2 -1094.4,-2314.3 -81.2,-1.1 -162.4,-2.1 -243.6,-3"
         id="path156" /></clipPath><linearGradient
       x1="0"
       y1="0"
       x2="1"
       y2="0"
       gradientUnits="userSpaceOnUse"
       gradientTransform="matrix(20288.1,0,0,-20288.1,11193.5,20604.9)"
       spreadMethod="pad"
       id="linearGradient164"><stop
         style="stop-opacity:1;stop-color:#8992fe"
         offset="0"
         id="stop160" /><stop
         style="stop-opacity:1;stop-color:#7f88ef"
         offset="1"
         id="stop162" /></linearGradient><clipPath
       clipPathUnits="userSpaceOnUse"
       id="clipPath174"><path
         d="m 26390.6,26626.3 c -153.9,144 -313.9,282 -479.8,413.9 -170.1,225.4 -351.6,442.4 -544.4,648.7 l 177.5,2.1 c 306.6,-326.6 585.8,-679.2 836.5,-1049.6 3.4,-5 6.8,-10.1 10.2,-15.1"
         id="path172" /></clipPath><linearGradient
       x1="0"
       y1="0"
       x2="1"
       y2="0"
       gradientUnits="userSpaceOnUse"
       gradientTransform="matrix(20288.1,0,0,-20288.1,11193.5,20604.9)"
       spreadMethod="pad"
       id="linearGradient180"><stop
         style="stop-opacity:1;stop-color:#7a7dff"
         offset="0"
         id="stop176" /><stop
         style="stop-opacity:1;stop-color:#6b6deb"
         offset="1"
         id="stop178" /></linearGradient><clipPath
       clipPathUnits="userSpaceOnUse"
       id="clipPath190"><path
         d="m 27564.6,24235.5 -213.6,1.8 c -267.4,814.8 -630.8,1599 -1099.8,2318.2 -107.8,165.1 -221.3,326.9 -340.4,484.7 165.9,-131.9 325.9,-269.9 479.8,-413.9 497.8,-738.4 887.5,-1547.2 1174,-2390.8"
         id="path188" /></clipPath><linearGradient
       x1="0"
       y1="0"
       x2="1"
       y2="0"
       gradientUnits="userSpaceOnUse"
       gradientTransform="matrix(20288.1,0,0,-20288.1,11193.5,20604.9)"
       spreadMethod="pad"
       id="linearGradient196"><stop
         style="stop-opacity:1;stop-color:#8992fe"
         offset="0"
         id="stop192" /><stop
         style="stop-opacity:1;stop-color:#7f88ef"
         offset="1"
         id="stop194" /></linearGradient><clipPath
       clipPathUnits="userSpaceOnUse"
       id="clipPath206"><path
         d="m 16667.3,27776.5 c 408.2,421.4 862.9,796.6 1361.4,1106.7 905.4,562.9 1962,893.5 3030.5,893.5 3.7,0 7.4,0 11.1,0 1.4,0 2.8,0 4.2,0 1070.9,0 2129.1,-332.3 3034.9,-897.6 493.9,-308.4 944.5,-680.8 1349.1,-1098.6 l -181.3,2.2 c -368.1,380.8 -775.9,722.7 -1222.3,1010.1 -444.5,282.1 -924.5,509.8 -1428.3,663.4 -375.6,114.4 -763.5,188.5 -1154.9,219.6 -77.7,26.2 -159.4,41.6 -241.7,44.4 -10.7,0.5 -21.5,0.7 -32.3,0.7 -69.9,0 -139.7,-10.2 -206.8,-29.4 -500.2,-10.1 -998.3,-91.1 -1476.1,-237.5 -503.4,-154.2 -982.7,-382.7 -1426.4,-665.2 -402.5,-260.1 -773.3,-564.6 -1111.8,-901.9 -68.2,-35.2 -136,-71.4 -202.9,-108.4 -35.5,-0.7 -70.9,-1.3 -106.4,-2"
         id="path204" /></clipPath><linearGradient
       x1="0"
       y1="0"
       x2="1"
       y2="0"
       gradientUnits="userSpaceOnUse"
       gradientTransform="matrix(20288.1,0,0,-20288.1,11193.5,20604.9)"
       spreadMethod="pad"
       id="linearGradient212"><stop
         style="stop-opacity:1;stop-color:#7a7dff"
         offset="0"
         id="stop208" /><stop
         style="stop-opacity:1;stop-color:#6b6deb"
         offset="1"
         id="stop210" /></linearGradient><clipPath
       clipPathUnits="userSpaceOnUse"
       id="clipPath222"><path
         d="m 16773.7,27778.5 c 66.9,37 134.7,73.2 202.9,108.4 -35.4,-35.3 -70.6,-71 -105.3,-107.1 l -62.9,-0.7 c -11.6,-0.2 -23.1,-0.4 -34.7,-0.6"
         id="path220" /></clipPath><linearGradient
       x1="0"
       y1="0"
       x2="1"
       y2="0"
       gradientUnits="userSpaceOnUse"
       gradientTransform="matrix(20288.1,0,0,-20288.1,11193.5,20604.9)"
       spreadMethod="pad"
       id="linearGradient228"><stop
         style="stop-opacity:1;stop-color:#8992fe"
         offset="0"
         id="stop224" /><stop
         style="stop-opacity:1;stop-color:#7f88ef"
         offset="1"
         id="stop226" /></linearGradient><clipPath
       clipPathUnits="userSpaceOnUse"
       id="clipPath238"><path
         d="m 21471.7,29675.8 c -133.5,10.6 -267.4,16.2 -401.4,16.7 -26.5,-0.1 -52.9,-0.5 -79.4,-1 67.1,19.2 136.9,29.4 206.8,29.4 10.8,0 21.6,-0.2 32.3,-0.7 82.3,-2.8 164,-18.2 241.7,-44.4"
         id="path236" /></clipPath><linearGradient
       x1="0"
       y1="0"
       x2="1"
       y2="0"
       gradientUnits="userSpaceOnUse"
       gradientTransform="matrix(20288.1,0,0,-20288.1,11193.5,20604.9)"
       spreadMethod="pad"
       id="linearGradient244"><stop
         style="stop-opacity:1;stop-color:#9a9dff"
         offset="0"
         id="stop240" /><stop
         style="stop-opacity:1;stop-color:#8f91f0"
         offset="1"
         id="stop242" /></linearGradient><clipPath
       clipPathUnits="userSpaceOnUse"
       id="clipPath254"><path
         d="m 21312.1,24120.6 -2114.5,4.8 c -41.2,0.1 -82.5,0.2 -123.7,0.3 4.4,45.3 8.9,90.7 13.6,135.9 36.7,0.1 73.4,0.2 110.1,0.3 l 2114.5,4.8 2114.4,-5.4 c 39.5,-0.2 79.1,-0.4 118.6,-0.5 5.6,-44.7 11.2,-89.4 16.6,-134.2 -45.1,-0.1 -90.1,-0.3 -135.2,-0.5 l -2114.4,-5.5 m -2414.4,5.6 c -604.9,1.3 -1209.8,1.6 -1814.6,7.5 l -2114.5,16.1 c -63.9,0.9 -127.8,1.7 -191.7,2.5 8.8,27.7 17.7,55.4 26.8,83.1 55,0.7 109.9,1.4 164.9,2.2 l 2114.5,16.1 c 610.1,6 1220.3,6.2 1830.4,7.5 -5.4,-45 -10.7,-90 -15.8,-135 m 4837.1,1 c -6.1,44.4 -12.2,88.7 -18.5,133 608.3,-1.9 1216.5,-1.4 1824.7,-7.8 l 1810,-15.1 c 9.6,-29 18.9,-58 28.2,-87 L 25541,24135 c -602.1,-6.4 -1204.1,-6 -1806.2,-7.8"
         id="path252" /></clipPath><linearGradient
       x1="0"
       y1="0"
       x2="1"
       y2="0"
       gradientUnits="userSpaceOnUse"
       gradientTransform="matrix(20288.1,0,0,-20288.1,11193.5,20604.9)"
       spreadMethod="pad"
       id="linearGradient260"><stop
         style="stop-opacity:1;stop-color:#8992fe"
         offset="0"
         id="stop256" /><stop
         style="stop-opacity:1;stop-color:#7f88ef"
         offset="1"
         id="stop258" /></linearGradient><clipPath
       clipPathUnits="userSpaceOnUse"
       id="clipPath270"><path
         d="m 28146.4,24159.3 c -10.2,23.2 -20.3,46.1 -30.7,69.1 551.4,-7.1 1102.8,-13.3 1654.3,-24.4 5.7,-0.1 10.3,-4.8 10.1,-10.5 -0.1,-5.6 -4.6,-10 -10.1,-10.2 -541.2,-10.9 -1082.4,-17 -1623.6,-24"
         id="path268" /></clipPath><linearGradient
       x1="0"
       y1="0"
       x2="1"
       y2="0"
       gradientUnits="userSpaceOnUse"
       gradientTransform="matrix(20288.1,0,0,-20288.1,11193.5,20604.9)"
       spreadMethod="pad"
       id="linearGradient276"><stop
         style="stop-opacity:1;stop-color:#7a7dff"
         offset="0"
         id="stop272" /><stop
         style="stop-opacity:1;stop-color:#6b6deb"
         offset="1"
         id="stop274" /></linearGradient><clipPath
       clipPathUnits="userSpaceOnUse"
       id="clipPath286"><path
         d="m 27592.6,24152.1 c -9.2,27.8 -18.5,55.7 -28,83.4 l 90.9,-0.7 c 153.4,-2.3 306.8,-4.4 460.2,-6.4 10.4,-23 20.5,-45.9 30.7,-69.1 -163.6,-2.1 -327.2,-4.3 -490.9,-6.7 l -62.9,-0.5"
         id="path284" /></clipPath><linearGradient
       x1="0"
       y1="0"
       x2="1"
       y2="0"
       gradientUnits="userSpaceOnUse"
       gradientTransform="matrix(20288.1,0,0,-20288.1,11193.5,20604.9)"
       spreadMethod="pad"
       id="linearGradient292"><stop
         style="stop-opacity:1;stop-color:#8992fe"
         offset="0"
         id="stop288" /><stop
         style="stop-opacity:1;stop-color:#7f88ef"
         offset="1"
         id="stop290" /></linearGradient><clipPath
       clipPathUnits="userSpaceOnUse"
       id="clipPath302"><path
         d="m 13434.8,24168.8 c -193.6,2.8 -387.1,5.8 -580.7,9.5 -8.5,0.1 -15.3,7.2 -15.1,15.7 0.1,8.3 6.9,14.9 15.1,15.1 201,3.8 402,6.9 602.9,9.7 -7.5,-16.7 -14.8,-33.2 -22.2,-50"
         id="path300" /></clipPath><linearGradient
       x1="0"
       y1="0"
       x2="1"
       y2="0"
       gradientUnits="userSpaceOnUse"
       gradientTransform="matrix(20288.1,0,0,-20288.1,11193.5,20604.9)"
       spreadMethod="pad"
       id="linearGradient308"><stop
         style="stop-opacity:1;stop-color:#7a7dff"
         offset="0"
         id="stop304" /><stop
         style="stop-opacity:1;stop-color:#6b6deb"
         offset="1"
         id="stop306" /></linearGradient><clipPath
       clipPathUnits="userSpaceOnUse"
       id="clipPath318"><path
         d="m 14534.3,24155.3 c -366.5,4.4 -733,8.4 -1099.5,13.5 7.4,16.8 14.7,33.3 22.2,50 367.7,5.2 735.5,9.1 1103.1,13.6 -8.7,-25.7 -17.3,-51.4 -25.8,-77.1"
         id="path316" /></clipPath><linearGradient
       x1="0"
       y1="0"
       x2="1"
       y2="0"
       gradientUnits="userSpaceOnUse"
       gradientTransform="matrix(20288.1,0,0,-20288.1,11193.5,20604.9)"
       spreadMethod="pad"
       id="linearGradient324"><stop
         style="stop-opacity:1;stop-color:#8992fe"
         offset="0"
         id="stop320" /><stop
         style="stop-opacity:1;stop-color:#7f88ef"
         offset="1"
         id="stop322" /></linearGradient><clipPath
       clipPathUnits="userSpaceOnUse"
       id="clipPath334"><path
         d="m 19073.9,24125.7 c -58.8,0.2 -117.5,0.3 -176.2,0.5 5.1,45 10.4,90 15.8,135 58,0.2 116,0.3 174,0.4 -4.7,-45.2 -9.2,-90.6 -13.6,-135.9 m 4487.8,0.9 c -5.4,44.8 -11,89.5 -16.6,134.2 57.1,-0.2 114.1,-0.4 171.2,-0.6 6.3,-44.3 12.4,-88.6 18.5,-133 -57.7,-0.2 -115.4,-0.4 -173.1,-0.6"
         id="path332" /></clipPath><linearGradient
       x1="0"
       y1="0"
       x2="1"
       y2="0"
       gradientUnits="userSpaceOnUse"
       gradientTransform="matrix(20288.1,0,0,-20288.1,11193.5,20604.9)"
       spreadMethod="pad"
       id="linearGradient340"><stop
         style="stop-opacity:1;stop-color:#a6adfe"
         offset="0"
         id="stop336" /><stop
         style="stop-opacity:1;stop-color:#9fa6f4"
         offset="1"
         id="stop338" /></linearGradient><clipPath
       clipPathUnits="userSpaceOnUse"
       id="clipPath350"><path
         d="m 27379.2,24150.3 c -9.3,29 -18.6,58 -28.2,87 l 213.6,-1.8 c 9.5,-27.7 18.8,-55.6 28,-83.4 l -213.4,-1.8 m -12602.3,2 c -80.9,1 -161.8,2 -242.6,3 8.5,25.7 17.1,51.4 25.8,77.1 81.2,0.9 162.4,1.9 243.6,3 -9.1,-27.7 -18,-55.4 -26.8,-83.1"
         id="path348" /></clipPath><linearGradient
       x1="0"
       y1="0"
       x2="1"
       y2="0"
       gradientUnits="userSpaceOnUse"
       gradientTransform="matrix(20288.1,0,0,-20288.1,11193.5,20604.9)"
       spreadMethod="pad"
       id="linearGradient356"><stop
         style="stop-opacity:1;stop-color:#a6adfe"
         offset="0"
         id="stop352" /><stop
         style="stop-opacity:1;stop-color:#9fa6f4"
         offset="1"
         id="stop354" /></linearGradient><clipPath
       clipPathUnits="userSpaceOnUse"
       id="clipPath366"><path
         d="m 21312.1,27662 c -529.3,0.6 -1058.5,1.3 -1587.7,3.3 14.5,46.8 29.5,93.5 44.7,140.1 514.3,1.9 1028.6,2.5 1543,3.1 476.4,-0.5 952.8,-1.3 1429.2,-3.2 17.4,-46.5 34.3,-93.1 51,-139.9 -493.4,-2 -986.8,-2.9 -1480.2,-3.4 m -1702.5,3.8 c -433.4,1.9 -866.6,4.8 -1300,9.4 l -1501.2,16.2 c -6.9,0.1 -13.8,0.2 -20.7,0.4 27.7,29.6 55.5,58.9 83.6,88 l 1438.3,15.5 c 448.9,4.8 897.8,7.8 1346.7,9.6 -15.9,-46.2 -31.5,-92.6 -46.7,-139.1"
         id="path364" /></clipPath><linearGradient
       x1="0"
       y1="0"
       x2="1"
       y2="0"
       gradientUnits="userSpaceOnUse"
       gradientTransform="matrix(20288.1,0,0,-20288.1,11193.5,20604.9)"
       spreadMethod="pad"
       id="linearGradient372"><stop
         style="stop-opacity:1;stop-color:#8992fe"
         offset="0"
         id="stop368" /><stop
         style="stop-opacity:1;stop-color:#7f88ef"
         offset="1"
         id="stop370" /></linearGradient><clipPath
       clipPathUnits="userSpaceOnUse"
       id="clipPath382"><path
         d="m 24969.2,27684.2 c -60.6,35.4 -122.3,70.4 -183.9,104.2 l 491.9,-5.7 c 30.1,-31.1 59.7,-62.3 89.2,-93.8 l -397.2,-4.7"
         id="path380" /></clipPath><linearGradient
       x1="0"
       y1="0"
       x2="1"
       y2="0"
       gradientUnits="userSpaceOnUse"
       gradientTransform="matrix(20288.1,0,0,-20288.1,11193.5,20604.9)"
       spreadMethod="pad"
       id="linearGradient388"><stop
         style="stop-opacity:1;stop-color:#7a7dff"
         offset="0"
         id="stop384" /><stop
         style="stop-opacity:1;stop-color:#6b6deb"
         offset="1"
         id="stop386" /></linearGradient><clipPath
       clipPathUnits="userSpaceOnUse"
       id="clipPath398"><path
         d="m 22908,27665.9 c -17.2,46.4 -34.9,92.8 -52.8,138.9 486.4,-2.1 972.9,-5.4 1459.3,-10.8 l 470.8,-5.6 c 61.6,-33.8 123.3,-68.8 183.9,-104.2 l -654.7,-7.6 c -468.8,-5.2 -937.6,-8.5 -1406.5,-10.7"
         id="path396" /></clipPath><linearGradient
       x1="0"
       y1="0"
       x2="1"
       y2="0"
       gradientUnits="userSpaceOnUse"
       gradientTransform="matrix(20288.1,0,0,-20288.1,11193.5,20604.9)"
       spreadMethod="pad"
       id="linearGradient404"><stop
         style="stop-opacity:1;stop-color:#8992fe"
         offset="0"
         id="stop400" /><stop
         style="stop-opacity:1;stop-color:#7f88ef"
         offset="1"
         id="stop402" /></linearGradient><clipPath
       clipPathUnits="userSpaceOnUse"
       id="clipPath414"><path
         d="m 25543.9,27691 c -28.2,30.1 -56.7,59.9 -85.4,89.5 l 357.2,-4.1 c 500.4,-10.5 1000.9,-16.6 1501.3,-30.8 5.7,-0.2 10.2,-4.9 10,-10.6 -0.1,-5.5 -4.6,-9.9 -10,-10.1 -500.4,-14.1 -1000.9,-20.3 -1501.3,-30.7 l -271.8,-3.2 m -8954.1,4.4 c -427.6,7.4 -855.1,13.2 -1282.6,24.4 -8.5,0.3 -15.3,7.4 -15,15.9 0.2,8.2 6.8,14.7 15,15 453.3,12 906.7,17.7 1360.1,25.8 -26,-26.8 -51.9,-53.9 -77.5,-81.1"
         id="path412" /></clipPath><linearGradient
       x1="0"
       y1="0"
       x2="1"
       y2="0"
       gradientUnits="userSpaceOnUse"
       gradientTransform="matrix(20288.1,0,0,-20288.1,11193.5,20604.9)"
       spreadMethod="pad"
       id="linearGradient420"><stop
         style="stop-opacity:1;stop-color:#7a7dff"
         offset="0"
         id="stop416" /><stop
         style="stop-opacity:1;stop-color:#6b6deb"
         offset="1"
         id="stop418" /></linearGradient><clipPath
       clipPathUnits="userSpaceOnUse"
       id="clipPath430"><path
         d="m 19724.4,27665.3 c -38.3,0.2 -76.6,0.4 -114.8,0.5 15.2,46.5 30.8,92.9 46.7,139.1 37.6,0.2 75.2,0.3 112.8,0.5 -15.2,-46.6 -30.2,-93.3 -44.7,-140.1 m 3067.9,0.1 c -16.7,46.8 -33.6,93.4 -51,139.9 38,-0.1 75.9,-0.3 113.9,-0.5 17.9,-46.1 35.6,-92.5 52.8,-138.9 -38.5,-0.1 -77.2,-0.3 -115.7,-0.5"
         id="path428" /></clipPath><linearGradient
       x1="0"
       y1="0"
       x2="1"
       y2="0"
       gradientUnits="userSpaceOnUse"
       gradientTransform="matrix(20288.1,0,0,-20288.1,11193.5,20604.9)"
       spreadMethod="pad"
       id="linearGradient436"><stop
         style="stop-opacity:1;stop-color:#a6adfe"
         offset="0"
         id="stop432" /><stop
         style="stop-opacity:1;stop-color:#9fa6f4"
         offset="1"
         id="stop434" /></linearGradient><clipPath
       clipPathUnits="userSpaceOnUse"
       id="clipPath446"><path
         d="m 25366.4,27688.9 c -29.5,31.5 -59.1,62.7 -89.2,93.8 l 181.3,-2.2 c 28.7,-29.6 57.2,-59.4 85.4,-89.5 l -177.5,-2.1 m -8740.5,5.8 c -12.1,0.2 -24.1,0.5 -36.1,0.7 25.6,27.2 51.5,54.3 77.5,81.1 35.5,0.7 70.9,1.3 106.4,2 -49.7,-27.5 -98.8,-55.3 -147.8,-83.8"
         id="path444" /></clipPath><linearGradient
       x1="0"
       y1="0"
       x2="1"
       y2="0"
       gradientUnits="userSpaceOnUse"
       gradientTransform="matrix(20288.1,0,0,-20288.1,11193.5,20604.9)"
       spreadMethod="pad"
       id="linearGradient452"><stop
         style="stop-opacity:1;stop-color:#9a9dff"
         offset="0"
         id="stop448" /><stop
         style="stop-opacity:1;stop-color:#8f91f0"
         offset="1"
         id="stop450" /></linearGradient><clipPath
       clipPathUnits="userSpaceOnUse"
       id="clipPath462"><path
         d="m 16787.7,27691.8 c -53.9,1 -107.9,2 -161.8,2.9 49,28.5 98.1,56.3 147.8,83.8 11.6,0.2 23.1,0.4 34.7,0.6 l 62.9,0.7 c -28.1,-29.1 -55.9,-58.4 -83.6,-88"
         id="path460" /></clipPath><linearGradient
       x1="0"
       y1="0"
       x2="1"
       y2="0"
       gradientUnits="userSpaceOnUse"
       gradientTransform="matrix(20288.1,0,0,-20288.1,11193.5,20604.9)"
       spreadMethod="pad"
       id="linearGradient468"><stop
         style="stop-opacity:1;stop-color:#a6adfe"
         offset="0"
         id="stop464" /><stop
         style="stop-opacity:1;stop-color:#9fa6f4"
         offset="1"
         id="stop466" /></linearGradient><clipPath
       clipPathUnits="userSpaceOnUse"
       id="clipPath478"><path
         d="M 31170.1,7392.1 H 6358.6 c -252.36,0 -458.83,206.2 -458.83,458.4 l -59.7,2524.9 -107.33,4539.2 -173.71,7346.5 c -7.49,316.4 115.2,621.9 339.42,845.4 122.96,122.6 270.55,214.6 431.01,271.3 76.23,27 155.4,46 236.17,56.6 49.43,6.4 99.44,9.7 149.81,9.7 9.98,0 20,-0.1 30.01,-0.4 l 2491.22,-64.5 62.74,-1.6 1873.09,-48.4 431,-11.2 1507.5,-39 1167.3,-30.2 251,-6.5 4271.3,-110.5 193.5,-5 4678.8,-121.1 188.6,-4.9 3836.8,-99.2 225.8,-5.9 645.7,-16.7 2424.2,-62.7 c 19.6,1.3 38.8,2 57.7,2 46.7,0 91.4,-4 134.1,-11.3 421.9,-72.6 649.6,-477.3 649.6,-698 l -112,-7739.5 -94.4,-6519 c 0,-252.2 -206.5,-458.4 -458.9,-458.4 M 6819.03,22900.4 c -214.67,0 -420.89,-85.2 -573.29,-237.2 -157.55,-157.1 -244.21,-372.2 -238.62,-594.7 L 6352.74,8290.2 c 0,-238.7 195.34,-434.1 434.09,-434.1 H 30571.8 c 238.7,0 434.1,195.4 434.1,434.1 l 194.8,12944 c -22.3,757.4 -668.7,1043.1 -1085,1043.1 -11.8,0 -23.4,-0.2 -34.8,-0.7 l -23240.08,623.5 c -7.27,0.2 -14.55,0.3 -21.79,0.3"
         id="path476" /></clipPath><linearGradient
       x1="0"
       y1="0"
       x2="1"
       y2="0"
       gradientUnits="userSpaceOnUse"
       gradientTransform="matrix(-5859.95,17579.9,-17579.9,-5859.95,21030.6,8488.2)"
       spreadMethod="pad"
       id="linearGradient484"><stop
         style="stop-opacity:1;stop-color:#09005d"
         offset="0"
         id="stop480" /><stop
         style="stop-opacity:1;stop-color:#1a0f91"
         offset="1"
         id="stop482" /></linearGradient><clipPath
       clipPathUnits="userSpaceOnUse"
       id="clipPath496"><path
         d="M 5139.59,5963.3 H 32587.7 c 31.1,0 56.5,25.4 56.5,56.5 v 1384.9 c 0,31.1 -25.4,56.5 -56.5,56.5 H 5139.59 c -31.1,0 -56.54,-25.4 -56.54,-56.5 V 6019.8 c 0,-31.1 25.44,-56.5 56.54,-56.5 z"
         id="path494" /></clipPath><linearGradient
       x1="0"
       y1="0"
       x2="1"
       y2="0"
       gradientUnits="userSpaceOnUse"
       gradientTransform="matrix(24664,-5999.34,5999.34,24664,8355.59,9268.3)"
       spreadMethod="pad"
       id="linearGradient502"><stop
         style="stop-opacity:1;stop-color:#09005d"
         offset="0"
         id="stop498" /><stop
         style="stop-opacity:1;stop-color:#1a0f91"
         offset="1"
         id="stop500" /></linearGradient><clipPath
       clipPathUnits="userSpaceOnUse"
       id="clipPath546"><path
         d="M 5554.58,5842.3 V 7072 c 0,433.4 265.3,784.8 592.57,784.8 H 18923 c 257.4,0 466,208.7 466,466.1 0,78.1 -63.4,141.5 -141.6,141.5 H 5284.39 c -320.21,0 -828.61,-503.4 -828.61,-1124.5 V 5622.5 c 0,-585.5 493.56,-1060.2 795.47,-1060.2 H 19174 c 118.7,0 215,96.3 215,215 0,216.8 -175.7,392.6 -392.5,392.6 H 6062.21 c -280.36,0 -507.63,301 -507.63,672.4 z"
         id="path544" /></clipPath><linearGradient
       x1="0"
       y1="0"
       x2="1"
       y2="0"
       gradientUnits="userSpaceOnUse"
       gradientTransform="matrix(-1014.4,10245.5,10245.5,1014.4,13784,-11852.3)"
       spreadMethod="pad"
       id="linearGradient552"><stop
         style="stop-opacity:1;stop-color:#4f52ff"
         offset="0"
         id="stop548" /><stop
         style="stop-opacity:1;stop-color:#4042e2"
         offset="1"
         id="stop550" /></linearGradient><clipPath
       clipPathUnits="userSpaceOnUse"
       id="clipPath572"><path
         d="M 17781.8,8476.7 H 5301.21 c -110.99,0 -200.96,89.9 -200.96,200.9 v 2707.7 c 0,111 89.97,201 200.96,201 H 17781.8 c 110.9,0 200.9,-90 200.9,-201 V 8677.6 c 0,-111 -90,-200.9 -200.9,-200.9 z"
         id="path570" /></clipPath><linearGradient
       x1="0"
       y1="0"
       x2="1"
       y2="0"
       gradientUnits="userSpaceOnUse"
       gradientTransform="matrix(203.536,18521.7,18521.7,-203.536,11582.3,13743.2)"
       spreadMethod="pad"
       id="linearGradient578"><stop
         style="stop-opacity:1;stop-color:#4f52ff"
         offset="0"
         id="stop574" /><stop
         style="stop-opacity:1;stop-color:#4042e2"
         offset="1"
         id="stop576" /></linearGradient><clipPath
       clipPathUnits="userSpaceOnUse"
       id="clipPath592"><path
         d="m 11680,17298.7 c 0,0 -0.4,-114.5 -370,-107.3 -206.1,4 -588.3,48.9 -804.3,-273.5 -111.5,-166.5 -314.5,-242.5 -505.1,-180.4 -474.5,154.5 -1268.61,267.9 -1762.68,-442.2 -377.12,-541.9 -191.1,-913.3 82.59,-1147.3 201.02,-171.9 241.01,-471.8 77.88,-680 -156.45,-199.7 -219.51,-489.9 62.95,-886.9 633,-889.7 2266.86,209.3 2266.86,209.3 l 1525.6,2587.7 z"
         id="path590" /></clipPath><linearGradient
       x1="0"
       y1="0"
       x2="1"
       y2="0"
       gradientUnits="userSpaceOnUse"
       gradientTransform="matrix(-4661.77,-2407.99,2407.99,-4661.77,12991.5,16932)"
       spreadMethod="pad"
       id="linearGradient598"><stop
         style="stop-opacity:1;stop-color:#09005d"
         offset="0"
         id="stop594" /><stop
         style="stop-opacity:1;stop-color:#1a0f91"
         offset="1"
         id="stop596" /></linearGradient><clipPath
       clipPathUnits="userSpaceOnUse"
       id="clipPath612"><path
         d="m 15863.6,9168.5 c -3.8,1.5 -2030.3,3550.4 -2304.2,3884.4 -46,56.2 -117.3,84.8 -189.5,76.2 l -565.6,-67.4 -664.5,-1437.6 1107,644.8 c -109.5,-757.7 1312.6,-1883.6 1800.4,-2294.4 49.5,-41.7 53.6,-116.4 8.9,-163.2 l -194.8,-203.8 c 319.7,-324.1 688.6,-532.1 1105,-628.4 z"
         id="path610" /></clipPath><linearGradient
       x1="0"
       y1="0"
       x2="1"
       y2="0"
       gradientUnits="userSpaceOnUse"
       gradientTransform="matrix(-3195.01,-1823.66,-1823.66,3195.01,16349.4,12141.5)"
       spreadMethod="pad"
       id="linearGradient618"><stop
         style="stop-opacity:1;stop-color:#febbba"
         offset="0"
         id="stop614" /><stop
         style="stop-opacity:1;stop-color:#ff928e"
         offset="1"
         id="stop616" /></linearGradient><clipPath
       clipPathUnits="userSpaceOnUse"
       id="clipPath628"><path
         d="m 14974,9717.5 c 0,0 -124.3,-40.1 -166.4,-150.8 -20.1,-53 1.6,-113 47.6,-146 204.7,-146.6 879.7,-619.9 1191.2,-712.6 25.5,-7.6 49.8,15.5 44.1,41.5 -16,72.4 -67.7,216.9 -234.3,428.4 l 14.9,-30.2 c 18.9,-38.3 -22.7,-78.1 -59.9,-57.1 -208.3,117.6 -632.7,375 -837.2,626.8 z"
         id="path626" /></clipPath><linearGradient
       x1="0"
       y1="0"
       x2="1"
       y2="0"
       gradientUnits="userSpaceOnUse"
       gradientTransform="matrix(-223.109,6212.71,-6212.71,-223.109,17744.9,-54891.9)"
       spreadMethod="pad"
       id="linearGradient634"><stop
         style="stop-opacity:1;stop-color:#09005d"
         offset="0"
         id="stop630" /><stop
         style="stop-opacity:1;stop-color:#1a0f91"
         offset="1"
         id="stop632" /></linearGradient><clipPath
       clipPathUnits="userSpaceOnUse"
       id="clipPath644"><path
         d="m 15074.3,8297.5 c -3.4,2.1 -307.5,734.7 -310.9,736.9 -278.8,1697.3 -958.9,3150.9 -1159.5,3533.4 -33.8,64.4 -97.8,106.8 -170.2,113 l -567.6,48.5 -941.7,-1273.4 1214.6,407.3 c -260.6,-719.7 904.3,-2110.2 1298.8,-2611.2 40.1,-50.8 28.9,-124.8 -24.3,-161.6 l -232,-160.2 c 247.5,-382 566.7,-660.4 954.9,-839 z"
         id="path642" /></clipPath><linearGradient
       x1="0"
       y1="0"
       x2="1"
       y2="0"
       gradientUnits="userSpaceOnUse"
       gradientTransform="matrix(10931.8,6843.45,6843.45,-10931.8,16040.3,11686.7)"
       spreadMethod="pad"
       id="linearGradient650"><stop
         style="stop-opacity:1;stop-color:#febbba"
         offset="0"
         id="stop646" /><stop
         style="stop-opacity:1;stop-color:#ff928e"
         offset="1"
         id="stop648" /></linearGradient><clipPath
       clipPathUnits="userSpaceOnUse"
       id="clipPath660"><path
         d="m 14314.1,9015.1 c 0,0 -129.8,-14.1 -193.4,-114 -30.5,-47.8 -21.3,-110.9 17.1,-152.5 170.7,-185 736,-785.2 1022.3,-939 23.4,-12.6 51.9,5.1 51.5,31.7 -1,74.1 -22.4,226.1 -142.7,467 l 8.5,-32.6 c 10.8,-41.3 -38.1,-71.9 -70.2,-43.8 -180.2,157.3 -543.7,495.3 -693.1,783.2 z"
         id="path658" /></clipPath><linearGradient
       x1="0"
       y1="0"
       x2="1"
       y2="0"
       gradientUnits="userSpaceOnUse"
       gradientTransform="matrix(1039.03,6129.12,-6129.12,1039.03,-10911.5,-142483)"
       spreadMethod="pad"
       id="linearGradient666"><stop
         style="stop-opacity:1;stop-color:#09005d"
         offset="0"
         id="stop662" /><stop
         style="stop-opacity:1;stop-color:#1a0f91"
         offset="1"
         id="stop664" /></linearGradient><clipPath
       clipPathUnits="userSpaceOnUse"
       id="clipPath676"><path
         d="m 10209.3,12997.4 c 0,0 -513.43,-763.7 -555.56,-1112 -42.14,-348.4 141.97,-468.9 679.36,-513.3 1599.3,-132.2 2387.6,347.1 2387.6,347.1 109.4,697.5 187.3,875 1101,1254.2 0,0 -1155.7,-91.7 -1388.3,-1.4 -232.5,90.2 -2224.1,25.4 -2224.1,25.4 z"
         id="path674" /></clipPath><linearGradient
       x1="0"
       y1="0"
       x2="1"
       y2="0"
       gradientUnits="userSpaceOnUse"
       gradientTransform="matrix(-3935.35,-7113.89,-7113.89,3935.35,12636.4,14132.4)"
       spreadMethod="pad"
       id="linearGradient682"><stop
         style="stop-opacity:1;stop-color:#09005d"
         offset="0"
         id="stop678" /><stop
         style="stop-opacity:1;stop-color:#1a0f91"
         offset="1"
         id="stop680" /></linearGradient><clipPath
       clipPathUnits="userSpaceOnUse"
       id="clipPath692"><path
         d="m 11597.9,13098.5 c 0,0 597.9,569.4 892.2,946.5 159.1,203.8 209.1,472.2 135.5,720 -134.3,452.8 -373.1,921.6 -394.9,994.6 -33.4,111.9 -703.8,107.2 -703.8,107.2 0,0 -1319.3,-856.2 -1837.64,-2306.6 l 582.14,-181.2 c 0,0 344.5,577.9 684.8,945.3 0,0 -588.9,-778 -609.7,-1096.4 z"
         id="path690" /></clipPath><linearGradient
       x1="0"
       y1="0"
       x2="1"
       y2="0"
       gradientUnits="userSpaceOnUse"
       gradientTransform="matrix(-4057.01,-2180.64,-2180.64,4057.01,18647.3,18290.8)"
       spreadMethod="pad"
       id="linearGradient698"><stop
         style="stop-opacity:1;stop-color:#ff928e"
         offset="0"
         id="stop694" /><stop
         style="stop-opacity:1;stop-color:#fe7062"
         offset="1"
         id="stop696" /></linearGradient><clipPath
       clipPathUnits="userSpaceOnUse"
       id="clipPath708"><path
         d="m 12311.8,16384.8 c -7,-23.3 -182,-603.4 -195.7,-615.4 -13.7,-12.1 -383.8,-32 -558,87.1 l 355.6,786.5 z"
         id="path706" /></clipPath><linearGradient
       x1="0"
       y1="0"
       x2="1"
       y2="0"
       gradientUnits="userSpaceOnUse"
       gradientTransform="matrix(217.08,1392.92,-1392.92,217.08,11755.4,14968.6)"
       spreadMethod="pad"
       id="linearGradient714"><stop
         style="stop-opacity:1;stop-color:#febbba"
         offset="0"
         id="stop710" /><stop
         style="stop-opacity:1;stop-color:#ff928e"
         offset="1"
         id="stop712" /></linearGradient><clipPath
       clipPathUnits="userSpaceOnUse"
       id="clipPath724"><path
         d="m 12737.1,12873.8 -449.2,488.9 -518.9,-139.8 c 0,0 -604.9,-93.7 -951.1,0 -346.3,93.8 -346.3,93.8 -346.3,93.8 l -782.34,243.5 -122.87,-347.2 c -31.2,-88.2 0.15,-186.1 76.38,-240.2 67.69,-48.1 147.03,-101 197.61,-123.1 103.03,-45.1 2373.42,-14.3 2373.42,-14.3 z"
         id="path722" /></clipPath><linearGradient
       x1="0"
       y1="0"
       x2="1"
       y2="0"
       gradientUnits="userSpaceOnUse"
       gradientTransform="matrix(-3182.71,0,0,-3182.71,10753.4,13192.7)"
       spreadMethod="pad"
       id="linearGradient730"><stop
         style="stop-opacity:1;stop-color:#febbba"
         offset="0"
         id="stop726" /><stop
         style="stop-opacity:1;stop-color:#ff928e"
         offset="1"
         id="stop728" /></linearGradient><clipPath
       clipPathUnits="userSpaceOnUse"
       id="clipPath740"><path
         d="m 11250,12680.4 c 1.5,-0.1 3.1,-0.1 4.7,-0.1 l 2066.5,2.2 c 51.1,0.1 92.4,41.5 92.4,92.6 -0.1,51.1 -41.7,93.3 -92.6,92.4 l -2066.5,-2.2 c -51.1,-0.1 -92.4,-41.5 -92.4,-92.6 0.1,-49.5 39,-89.9 87.9,-92.3 z"
         id="path738" /></clipPath><linearGradient
       x1="0"
       y1="0"
       x2="1"
       y2="0"
       gradientUnits="userSpaceOnUse"
       gradientTransform="matrix(1640.43,-538.026,538.026,1640.43,10899.4,13229.5)"
       spreadMethod="pad"
       id="linearGradient746"><stop
         style="stop-opacity:1;stop-color:#09005d"
         offset="0"
         id="stop742" /><stop
         style="stop-opacity:1;stop-color:#1a0f91"
         offset="1"
         id="stop744" /></linearGradient><clipPath
       clipPathUnits="userSpaceOnUse"
       id="clipPath756"><path
         d="m 15178.9,14556.6 h -1721 c -127,0 -242.5,-73.2 -296.7,-188.1 l -795.6,-1687 h 2138.7 c 81.9,0 155.4,50 185.4,126.1 l 617,1561.1 c 35.6,90.2 -30.8,187.9 -127.8,187.9 z"
         id="path754" /></clipPath><linearGradient
       x1="0"
       y1="0"
       x2="1"
       y2="0"
       gradientUnits="userSpaceOnUse"
       gradientTransform="matrix(1181.37,-1248.64,1248.64,1181.37,13152.8,14305)"
       spreadMethod="pad"
       id="linearGradient762"><stop
         style="stop-opacity:1;stop-color:#09005d"
         offset="0"
         id="stop758" /><stop
         style="stop-opacity:1;stop-color:#1a0f91"
         offset="1"
         id="stop760" /></linearGradient><clipPath
       clipPathUnits="userSpaceOnUse"
       id="clipPath774"><path
         d="m 12642.3,17172.2 c 0,0 157.1,-281.5 52.4,-744.1 -104.7,-462.6 -345.4,-526.1 -511.5,-431 -166.1,95 -386.9,272.5 -452.7,675.4 -65.8,402.8 698.8,854.4 911.8,499.7 z"
         id="path772" /></clipPath><linearGradient
       x1="0"
       y1="0"
       x2="1"
       y2="0"
       gradientUnits="userSpaceOnUse"
       gradientTransform="matrix(502.424,3313.88,-3313.88,502.424,12057.7,15566)"
       spreadMethod="pad"
       id="linearGradient780"><stop
         style="stop-opacity:1;stop-color:#febbba"
         offset="0"
         id="stop776" /><stop
         style="stop-opacity:1;stop-color:#ff928e"
         offset="1"
         id="stop778" /></linearGradient><clipPath
       clipPathUnits="userSpaceOnUse"
       id="clipPath790"><path
         d="m 12030.2,16729.3 c 0,0 209.5,632.8 653,296.3 l 46.9,-152.7 c 0,0 375.2,148.9 213,486.1 -162.1,337.2 -555.9,470.2 -946.1,201.8 -390.3,-268.4 -595.4,-491.8 -541.2,-808.1 54.3,-316.4 282.1,-183.3 282.1,-183.3 0,0 22.4,238.8 130.4,291.7 108,52.9 123.4,-124.6 123.4,-124.6 z"
         id="path788" /></clipPath><linearGradient
       x1="0"
       y1="0"
       x2="1"
       y2="0"
       gradientUnits="userSpaceOnUse"
       gradientTransform="matrix(-4869.28,-2515.18,2515.18,-4869.28,12962.2,17529.6)"
       spreadMethod="pad"
       id="linearGradient796"><stop
         style="stop-opacity:1;stop-color:#09005d"
         offset="0"
         id="stop792" /><stop
         style="stop-opacity:1;stop-color:#1a0f91"
         offset="1"
         id="stop794" /></linearGradient><clipPath
       clipPathUnits="userSpaceOnUse"
       id="clipPath806"><path
         d="m 11938,16588.8 c 0,0 109.5,324.7 -88.8,316.1 -198.4,-8.6 -86.9,-311.1 -36.2,-420.5 z"
         id="path804" /></clipPath><linearGradient
       x1="0"
       y1="0"
       x2="1"
       y2="0"
       gradientUnits="userSpaceOnUse"
       gradientTransform="matrix(502.415,3313.82,-3313.82,502.415,11661.4,15502.4)"
       spreadMethod="pad"
       id="linearGradient812"><stop
         style="stop-opacity:1;stop-color:#febbba"
         offset="0"
         id="stop808" /><stop
         style="stop-opacity:1;stop-color:#ff928e"
         offset="1"
         id="stop810" /></linearGradient><clipPath
       clipPathUnits="userSpaceOnUse"
       id="clipPath844"><path
         d="m 21100.4,22794.2 c -358.7,482.2 -554.7,1033.1 -533.4,1607.6 61.7,1670.7 1947.4,2932.8 4241.6,2817.5 2328,-117 4189.1,-1603.7 4125.7,-3319.1 -63.5,-1715.4 -2026,-2972.9 -4352.2,-2810.9 -863.2,60.1 -1653.8,307.4 -2300.5,680.7 -436.6,-42.3 -1112.2,-116.9 -1467.7,-156.6 -104.5,-11.7 -185.8,93 -145.1,186.7 z"
         id="path842" /></clipPath><linearGradient
       x1="0"
       y1="0"
       x2="1"
       y2="0"
       gradientUnits="userSpaceOnUse"
       gradientTransform="matrix(2291.3,-9423.56,9423.56,2291.3,21606.4,36120.1)"
       spreadMethod="pad"
       id="linearGradient850"><stop
         style="stop-opacity:1;stop-color:#ff928e"
         offset="0"
         id="stop846" /><stop
         style="stop-opacity:1;stop-color:#fe7062"
         offset="1"
         id="stop848" /></linearGradient></defs><sodipodi:namedview
     pagecolor="#ffffff"
     bordercolor="#666666"
     borderopacity="1"
     objecttolerance="10"
     gridtolerance="10"
     guidetolerance="10"
     inkscape:pageopacity="0"
     inkscape:pageshadow="2"
     inkscape:window-width="640"
     inkscape:window-height="480"
     id="namedview4" /><g
     id="g10"
     inkscape:groupmode="layer"
     inkscape:label="ink_ext_XXXXXX"
     transform="matrix(1.3333333,0,0,-1.3333333,0,4946.6667)"><g
       id="g12"
       transform="scale(0.1)"><path
         d="M 0,0 H 37100 V 37100 H 0 Z"
         style="fill:#ffffff;fill-opacity:1;fill-rule:nonzero;stroke:none"
         id="path14" /><g
         id="g16"><g
           id="g18"
           clip-path="url(#clipPath22)"><path
             d="m 16571.3,4550 c -438.1,0 -869.5,17.5 -1293.1,52.5 -1594.8,131.8 -4803.6,396.8 -7309.04,2761.3 -9.99,9.4 -19.92,18.8 -29.86,28.3 H 26162.7 C 23250.4,5475.6 19750.2,4550 16571.3,4550 M 5840.07,10375.4 c -1145.37,2495.2 -1409.51,5544.8 -909.37,8537.3 67.64,-1512.2 373.86,-2844.4 802.04,-3998.1 l 107.33,-4539.2 m 25883.33,3994.1 112,7739.5 c 0,220.7 -227.7,625.4 -649.6,698 -1056.1,3959.8 -4823.6,6985.3 -9436,7187.8 -163.6,7.2 -326.2,10.7 -488.3,10.7 -4540.2,0 -8422.6,-2791.5 -9658,-6687.5 l -431,11.2 c -105.5,2074.4 -613.3,3767 -1271.15,5119.1 1783.95,1647 5114.65,4013.1 9573.15,4013.1 42.3,0 84.7,-0.2 127.2,-0.6 4684.4,-47.3 7972.3,-2688 8372.1,-3016.9 505,-415.6 1618.9,-1403.2 2622.9,-2969.9 2202.3,-3437.1 2529.3,-8144.6 1126.7,-12104.5"
             style="fill:url(#linearGradient28);fill-opacity:1;fill-rule:nonzero;stroke:none"
             id="path30" /></g></g><path
         d="m 6333.2,32328.4 c -50.82,156.9 132.07,285.8 264.24,187.2 1342.1,-1001 4643.36,-4079.9 4594.66,-10122 -61.1,-7580.6 1806.6,-10131.9 3934.6,-11575.7 0,0 -2751.6,480 -4741.4,3058 -4885.57,6329.7 -3148.53,15663.7 -4052.1,18452.5"
         style="fill:#bdd0fb;fill-opacity:1;fill-rule:nonzero;stroke:none"
         id="path32" /><path
         d="m 9299.41,23377.6 -62.74,1.6 c -99.25,199.8 -201.37,395.9 -304.96,586.5 -61.15,393.4 -127.82,785.9 -197.94,1177.9 -152.84,835.8 -331.86,1667.2 -535.99,2492.8 -199.81,826.8 -429.94,1646.4 -676.27,2461.5 -6.74,22.5 5.29,46.6 27.63,54.5 4.84,1.7 9.78,2.5 14.64,2.5 18.22,0 35.27,-11.4 41.66,-29.6 283,-805 534.99,-1621.2 765.22,-2443.7 226.28,-823.6 426.61,-1654.7 601.47,-2491.6 43.33,-209.2 84.96,-418.9 125.42,-628.8 38.46,-210.3 77.3,-420.6 112.06,-631.5 31.37,-183.8 61.3,-367.8 89.8,-552.1"
         style="fill:#dce6fd;fill-opacity:1;fill-rule:nonzero;stroke:none"
         id="path34" /><path
         d="m 9963.9,9910.4 c -97.74,-287.6 -457.48,-381.9 -686.42,-182.2 -1263.29,1101.7 -4553.33,4539.9 -4352.02,10323 170.01,4883.7 -201.9,7547.9 -454.54,8745.7 -53.42,253.3 247.55,427.5 440.95,255.5 2133.77,-1898.2 8593.63,-8719.1 5052.03,-19142"
         style="fill:#91b3fa;fill-opacity:1;fill-rule:nonzero;stroke:none"
         id="path36" /><path
         d="m 6329.46,23377.8 c -1.75,84.3 -3.06,168.2 -3.93,252.5 -0.66,65.4 51.86,119.1 117.39,119.8 0.4,0.1 0.81,0.1 1.22,0.1 64.95,0 117.92,-52.3 118.62,-117.4 0.69,-66 1.65,-132.5 2.87,-198.4 -80.77,-10.6 -159.94,-29.6 -236.17,-56.6"
         style="fill:#c0d6fc;fill-opacity:1;fill-rule:nonzero;stroke:none"
         id="path38" /><g
         id="g40"><g
           id="g42"
           clip-path="url(#clipPath46)"><path
             d="m 31185.8,22807 c -42.7,7.3 -87.4,11.3 -134.1,11.3 -18.9,0 -38.1,-0.7 -57.7,-2 l -2424.2,62.7 c -101.3,442.7 -243.7,870.4 -423.4,1280.3 541.2,7 1082.4,13.1 1623.6,24 5.5,0.2 10,4.6 10.1,10.2 0.2,5.7 -4.4,10.4 -10.1,10.5 -551.5,11.1 -1102.9,17.3 -1654.3,24.4 -407.6,903.6 -997.3,1716.9 -1725.1,2397.9 -3.4,5 -6.8,10.1 -10.2,15.1 -250.7,370.4 -529.9,723 -836.5,1049.6 l 271.8,3.2 c 500.4,10.4 1000.9,16.6 1501.3,30.7 5.4,0.2 9.9,4.6 10,10.1 0.2,5.7 -4.3,10.4 -10,10.6 -500.4,14.2 -1000.9,20.3 -1501.3,30.8 l -357.2,4.1 c -404.6,417.8 -855.2,790.2 -1349.1,1098.6 -905.8,565.3 -1964,897.6 -3034.9,897.6 -1.4,0 -2.8,0 -4.2,0 -3.7,0 -7.4,0 -11.1,0 -1068.5,0 -2125.1,-330.6 -3030.5,-893.5 -498.5,-310.1 -953.2,-685.3 -1361.4,-1106.7 -453.4,-8.1 -906.8,-13.8 -1360.1,-25.8 -8.2,-0.3 -14.8,-6.8 -15,-15 -0.3,-8.5 6.5,-15.6 15,-15.9 427.5,-11.2 855,-17 1282.6,-24.4 -15.2,-16.1 -30.3,-32.4 -45.4,-48.6 -1365.1,-814.2 -2450.1,-2009.6 -3087.4,-3428 -200.9,-2.8 -401.9,-5.9 -602.9,-9.7 -8.2,-0.2 -15,-6.8 -15.1,-15.1 -0.2,-8.5 6.6,-15.6 15.1,-15.7 193.6,-3.7 387.1,-6.7 580.7,-9.5 -126.8,-287.9 -235.2,-585 -323.8,-889.8 l -1507.5,39 c 1235.4,3896 5117.8,6687.5 9658,6687.5 162.1,0 324.7,-3.5 488.3,-10.7 4612.4,-202.5 8379.9,-3228 9436,-7187.8 m -5275,4233.2 c -296.3,235.5 -610.8,450.8 -941.6,644 l 397.2,4.7 c 192.8,-206.3 374.3,-423.3 544.4,-648.7 m -633.6,742.5 -491.9,5.7 c -709.1,389.7 -1487.7,678.7 -2313.9,846.7 -72.2,130 -150.3,256.8 -235.9,379.1 -121.4,170.3 -257.2,333.4 -422.4,466.5 -82.7,66.1 -172.6,124.7 -270.7,167.7 -23.2,10.1 -46.8,19.3 -70.7,27.4 391.4,-31.1 779.3,-105.2 1154.9,-219.6 503.8,-153.6 983.8,-381.3 1428.3,-663.4 446.4,-287.4 854.2,-629.3 1222.3,-1010.1 m -8300.6,104.2 c 338.5,337.3 709.3,641.8 1111.8,901.9 443.7,282.5 923,511 1426.4,665.2 477.8,146.4 975.9,227.4 1476.1,237.5 -26.2,-7.5 -51.9,-16.3 -77,-26.4 -100.1,-39.4 -191.8,-96.7 -274.6,-163.1 -165.4,-134 -299,-300.2 -414,-475 -54,-82.7 -104.4,-167.3 -151.8,-253.4 -1114.2,-93.7 -2162.4,-404.3 -3096.9,-886.7 m 5380.2,770.7 c -507,95.7 -1031.6,145.9 -1568.3,145.9 -205.5,0 -409.1,-7.4 -610.8,-21.8 37,68 75.9,134.9 117,200.4 108.9,172.3 235.4,334.8 389.7,464.6 147.1,123.1 328.5,213.5 520,213.5 7.9,0 15.8,-0.2 23.7,-0.5 200,-6.2 386.5,-104.6 540.2,-233.7 155.3,-129.8 284.5,-290.2 399.7,-458.5 67.6,-100.3 130.2,-203.9 188.8,-309.9"
             style="fill:url(#linearGradient52);fill-opacity:1;fill-rule:nonzero;stroke:none"
             id="path54" /></g></g><g
         id="g56"><g
           id="g58"
           clip-path="url(#clipPath62)"><path
             d="m 28569.8,22879 -645.7,16.7 c -56.8,282.2 -124.2,562.4 -202.7,839.5 -40.2,139.8 -83.1,278.7 -128.8,416.9 l 62.9,0.5 c 163.7,2.4 327.3,4.6 490.9,6.7 179.7,-409.9 322.1,-837.6 423.4,-1280.3 m -871.5,22.6 -3836.8,99.2 c -1.4,15.6 -2.8,31.2 -4.2,46.7 -33.2,360.7 -73.8,720.8 -122.5,1079.7 602.1,1.8 1204.1,1.4 1806.2,7.8 l 1838.2,15.3 c 49.8,-156.2 96.2,-313.4 139.1,-471.4 69.6,-256.9 129.3,-516.2 180,-777.3 m -4025.4,104.1 -4678.8,121.1 c 21.1,333.4 47.4,666.5 79.8,998.9 41.2,-0.1 82.5,-0.2 123.7,-0.3 l 2114.5,-4.8 2114.4,5.5 c 45.1,0.2 90.1,0.4 135.2,0.5 44,-364.2 79.9,-729.4 109.1,-1095 0.7,-8.7 1.4,-17.3 2.1,-25.9 m -4872.3,126.1 -4271.3,110.5 c 32.7,144.9 68.4,289.2 107.2,432.7 43.3,160 90,319.2 140.4,477.3 63.9,-0.8 127.8,-1.6 191.7,-2.5 l 2114.5,-16.1 c 604.8,-5.9 1209.7,-6.2 1814.6,-7.5 -38,-330.9 -70.1,-662.5 -97.1,-994.4 m -4522.3,117 -1167.3,30.2 c 88.6,304.8 197,601.9 323.8,889.8 366.5,-5.1 733,-9.1 1099.5,-13.5 -45.8,-137.9 -88.8,-276.6 -129.1,-416.2 -45.9,-162.5 -88.2,-326 -126.9,-490.3 m -821.3,970 c 637.3,1418.4 1722.3,2613.8 3087.4,3428 -289.3,-312.4 -553.9,-648 -792.8,-999.6 -505.7,-744.9 -901.4,-1562.1 -1191.5,-2414.8 -367.6,-4.5 -735.4,-8.4 -1103.1,-13.6 m 14658.7,9.6 c -153.4,2 -306.8,4.1 -460.2,6.4 l -90.9,0.7 c -286.5,843.6 -676.2,1652.4 -1174,2390.8 727.8,-681 1317.5,-1494.3 1725.1,-2397.9 m -13312,7 c 266,813.1 627.5,1596.1 1094.4,2314.3 263,404.2 559.8,788.8 889.6,1142.1 6.9,-0.2 13.8,-0.3 20.7,-0.4 l 1501.2,-16.2 c 433.4,-4.6 866.6,-7.5 1300,-9.4 -234.2,-713 -393.1,-1447.7 -520.5,-2185.2 -68.8,-405 -126.8,-811.6 -175.6,-1219.4 -610.1,-1.3 -1220.3,-1.5 -1830.4,-7.5 l -2114.5,-16.1 c -55,-0.8 -109.9,-1.5 -164.9,-2.2 m 12547.3,1.9 -1810,15.1 c -608.2,6.4 -1216.4,5.9 -1824.7,7.8 -59.4,419.4 -130.1,837.3 -213.4,1252.8 -149.6,729.2 -334.3,1453.6 -594.9,2152.9 468.9,2.2 937.7,5.5 1406.5,10.7 l 654.7,7.6 c 330.8,-193.2 645.3,-408.5 941.6,-644 119.1,-157.8 232.6,-319.6 340.4,-484.7 469,-719.2 832.4,-1503.4 1099.8,-2318.2 m -3805.9,23.5 c -39.5,0.1 -79.1,0.3 -118.6,0.5 l -2114.4,5.4 -2114.5,-4.8 c -36.7,-0.1 -73.4,-0.2 -110.1,-0.3 40.8,399.5 90.5,797.9 150.3,1195.1 114.9,745.8 262.2,1489.1 486.6,2208.6 529.2,-2 1058.4,-2.7 1587.7,-3.3 493.4,0.5 986.8,1.4 1480.2,3.4 252,-707.3 425.9,-1442 563.5,-2180.9 75.1,-405.9 137.4,-814.1 189.3,-1223.7 m -6673.8,3519 c 34.7,36.1 69.9,71.8 105.3,107.1 934.5,482.4 1982.7,793 3096.9,886.7 -154,-280.1 -276.1,-576.3 -384.6,-875.3 -11,-31.1 -21.9,-62.2 -32.6,-93.4 -448.9,-1.8 -897.8,-4.8 -1346.7,-9.6 l -1438.3,-15.5 m 7914,8.6 -470.8,5.6 c -486.4,5.4 -972.9,8.7 -1459.3,10.8 -13.3,34.2 -26.8,68.3 -40.5,102.4 -101.4,247.9 -212.7,493 -343.3,727.9 826.2,-168 1604.8,-457 2313.9,-846.7 m -2044,16.9 c -476.4,1.9 -952.8,2.7 -1429.2,3.2 -514.4,-0.6 -1028.7,-1.2 -1543,-3.1 6.4,19.4 12.8,38.8 19.3,58.2 107.8,315 230.8,626.7 389.3,918.1 201.7,14.4 405.3,21.8 610.8,21.8 536.7,0 1061.3,-50.2 1568.3,-145.9 139.5,-252.6 255.9,-519 360.6,-788.8 8,-21.1 16,-42.3 23.9,-63.5"
             style="fill:url(#linearGradient68);fill-opacity:1;fill-rule:nonzero;stroke:none"
             id="path70" /></g></g><g
         id="g72"><g
           id="g74"
           clip-path="url(#clipPath78)"><path
             d="m 23861.5,23000.8 -188.6,4.9 c -0.7,8.6 -1.4,17.2 -2.1,25.9 -29.2,365.6 -65.1,730.8 -109.1,1095 57.7,0.2 115.4,0.4 173.1,0.6 48.7,-358.9 89.3,-719 122.5,-1079.7 1.4,-15.5 2.8,-31.1 4.2,-46.7 m -4867.4,126 -193.5,5 c 27,331.9 59.1,663.5 97.1,994.4 58.7,-0.2 117.4,-0.3 176.2,-0.5 -32.4,-332.4 -58.7,-665.5 -79.8,-998.9 m 4722.2,1133.4 c -57.1,0.2 -114.1,0.4 -171.2,0.6 -51.9,409.6 -114.2,817.8 -189.3,1223.7 -137.6,738.9 -311.5,1473.6 -563.5,2180.9 38.5,0.2 77.2,0.4 115.7,0.5 260.6,-699.3 445.3,-1423.7 594.9,-2152.9 83.3,-415.5 154,-833.4 213.4,-1252.8 m -4802.8,1 c 48.8,407.8 106.8,814.4 175.6,1219.4 127.4,737.5 286.3,1472.2 520.5,2185.2 38.2,-0.1 76.5,-0.3 114.8,-0.5 -224.4,-719.5 -371.7,-1462.8 -486.6,-2208.6 -59.8,-397.2 -109.5,-795.6 -150.3,-1195.1 -58,-0.1 -116,-0.2 -174,-0.4"
             style="fill:url(#linearGradient84);fill-opacity:1;fill-rule:nonzero;stroke:none"
             id="path86" /></g></g><g
         id="g88"><g
           id="g90"
           clip-path="url(#clipPath94)"><path
             d="m 22471.4,28635.1 c -38.3,7.8 -76.1,15.2 -114.6,22.5 -58.6,106 -121.2,209.6 -188.8,309.9 -115.2,168.3 -244.4,328.7 -399.7,458.5 -153.7,129.1 -340.2,227.5 -540.2,233.7 -7.9,0.3 -15.8,0.5 -23.7,0.5 -191.5,0 -372.9,-90.4 -520,-213.5 -154.3,-129.8 -280.8,-292.3 -389.7,-464.6 -41.1,-65.5 -80,-132.4 -117,-200.4 -34.7,-2.5 -69.6,-5.2 -104.2,-8.1 47.4,86.1 97.8,170.7 151.8,253.4 115,174.8 248.6,341 414,475 82.8,66.4 174.5,123.7 274.6,163.1 25.1,10.1 50.8,18.9 77,26.4 26.5,0.5 52.9,0.9 79.4,1 134,-0.5 267.9,-6.1 401.4,-16.7 23.9,-8.1 47.5,-17.3 70.7,-27.4 98.1,-43 188,-101.6 270.7,-167.7 165.2,-133.1 301,-296.2 422.4,-466.5 85.6,-122.3 163.7,-249.1 235.9,-379.1"
             style="fill:url(#linearGradient100);fill-opacity:1;fill-rule:nonzero;stroke:none"
             id="path102" /></g></g><g
         id="g104"><g
           id="g106"
           clip-path="url(#clipPath110)"><path
             d="m 22855.2,27804.8 c -38,0.2 -75.9,0.4 -113.9,0.5 -7.9,21.2 -15.9,42.4 -23.9,63.5 -104.7,269.8 -221.1,536.2 -360.6,788.8 38.5,-7.3 76.3,-14.7 114.6,-22.5 130.6,-234.9 241.9,-480 343.3,-727.9 13.7,-34.1 27.2,-68.2 40.5,-102.4 m -3198.9,0.1 c 10.7,31.2 21.6,62.3 32.6,93.4 108.5,299 230.6,595.2 384.6,875.3 34.6,2.9 69.5,5.6 104.2,8.1 -158.5,-291.4 -281.5,-603.1 -389.3,-918.1 -6.5,-19.4 -12.9,-38.8 -19.3,-58.2 -37.6,-0.2 -75.2,-0.3 -112.8,-0.5"
             style="fill:url(#linearGradient116);fill-opacity:1;fill-rule:nonzero;stroke:none"
             id="path118" /></g></g><g
         id="g120"><g
           id="g122"
           clip-path="url(#clipPath126)"><path
             d="m 27924.1,22895.7 -225.8,5.9 c -50.7,261.1 -110.4,520.4 -180,777.3 -42.9,158 -89.3,315.2 -139.1,471.4 l 213.4,1.8 c 45.7,-138.2 88.6,-277.1 128.8,-416.9 78.5,-277.1 145.9,-557.3 202.7,-839.5 m -13394.8,346.6 -251,6.5 c 38.7,164.3 81,327.8 126.9,490.3 40.3,139.6 83.3,278.3 129.1,416.2 80.8,-1 161.7,-2 242.6,-3 -50.4,-158.1 -97.1,-317.3 -140.4,-477.3 -38.8,-143.5 -74.5,-287.8 -107.2,-432.7"
             style="fill:url(#linearGradient132);fill-opacity:1;fill-rule:nonzero;stroke:none"
             id="path134" /></g></g><g
         id="g136"><g
           id="g138"
           clip-path="url(#clipPath142)"><path
             d="m 16544.4,27646.8 c 15.1,16.2 30.2,32.5 45.4,48.6 12,-0.2 24,-0.5 36.1,-0.7 -27.3,-15.8 -54.4,-31.8 -81.5,-47.9"
             style="fill:url(#linearGradient148);fill-opacity:1;fill-rule:nonzero;stroke:none"
             id="path150" /></g></g><g
         id="g152"><g
           id="g154"
           clip-path="url(#clipPath158)"><path
             d="m 14560.1,24232.4 c 290.1,852.7 685.8,1669.9 1191.5,2414.8 238.9,351.6 503.5,687.2 792.8,999.6 27.1,16.1 54.2,32.1 81.5,47.9 53.9,-0.9 107.9,-1.9 161.8,-2.9 -329.8,-353.3 -626.6,-737.9 -889.6,-1142.1 -466.9,-718.2 -828.4,-1501.2 -1094.4,-2314.3 -81.2,-1.1 -162.4,-2.1 -243.6,-3"
             style="fill:url(#linearGradient164);fill-opacity:1;fill-rule:nonzero;stroke:none"
             id="path166" /></g></g><g
         id="g168"><g
           id="g170"
           clip-path="url(#clipPath174)"><path
             d="m 26390.6,26626.3 c -153.9,144 -313.9,282 -479.8,413.9 -170.1,225.4 -351.6,442.4 -544.4,648.7 l 177.5,2.1 c 306.6,-326.6 585.8,-679.2 836.5,-1049.6 3.4,-5 6.8,-10.1 10.2,-15.1"
             style="fill:url(#linearGradient180);fill-opacity:1;fill-rule:nonzero;stroke:none"
             id="path182" /></g></g><g
         id="g184"><g
           id="g186"
           clip-path="url(#clipPath190)"><path
             d="m 27564.6,24235.5 -213.6,1.8 c -267.4,814.8 -630.8,1599 -1099.8,2318.2 -107.8,165.1 -221.3,326.9 -340.4,484.7 165.9,-131.9 325.9,-269.9 479.8,-413.9 497.8,-738.4 887.5,-1547.2 1174,-2390.8"
             style="fill:url(#linearGradient196);fill-opacity:1;fill-rule:nonzero;stroke:none"
             id="path198" /></g></g><g
         id="g200"><g
           id="g202"
           clip-path="url(#clipPath206)"><path
             d="m 16667.3,27776.5 c 408.2,421.4 862.9,796.6 1361.4,1106.7 905.4,562.9 1962,893.5 3030.5,893.5 3.7,0 7.4,0 11.1,0 1.4,0 2.8,0 4.2,0 1070.9,0 2129.1,-332.3 3034.9,-897.6 493.9,-308.4 944.5,-680.8 1349.1,-1098.6 l -181.3,2.2 c -368.1,380.8 -775.9,722.7 -1222.3,1010.1 -444.5,282.1 -924.5,509.8 -1428.3,663.4 -375.6,114.4 -763.5,188.5 -1154.9,219.6 -77.7,26.2 -159.4,41.6 -241.7,44.4 -10.7,0.5 -21.5,0.7 -32.3,0.7 -69.9,0 -139.7,-10.2 -206.8,-29.4 -500.2,-10.1 -998.3,-91.1 -1476.1,-237.5 -503.4,-154.2 -982.7,-382.7 -1426.4,-665.2 -402.5,-260.1 -773.3,-564.6 -1111.8,-901.9 -68.2,-35.2 -136,-71.4 -202.9,-108.4 -35.5,-0.7 -70.9,-1.3 -106.4,-2"
             style="fill:url(#linearGradient212);fill-opacity:1;fill-rule:nonzero;stroke:none"
             id="path214" /></g></g><g
         id="g216"><g
           id="g218"
           clip-path="url(#clipPath222)"><path
             d="m 16773.7,27778.5 c 66.9,37 134.7,73.2 202.9,108.4 -35.4,-35.3 -70.6,-71 -105.3,-107.1 l -62.9,-0.7 c -11.6,-0.2 -23.1,-0.4 -34.7,-0.6"
             style="fill:url(#linearGradient228);fill-opacity:1;fill-rule:nonzero;stroke:none"
             id="path230" /></g></g><g
         id="g232"><g
           id="g234"
           clip-path="url(#clipPath238)"><path
             d="m 21471.7,29675.8 c -133.5,10.6 -267.4,16.2 -401.4,16.7 -26.5,-0.1 -52.9,-0.5 -79.4,-1 67.1,19.2 136.9,29.4 206.8,29.4 10.8,0 21.6,-0.2 32.3,-0.7 82.3,-2.8 164,-18.2 241.7,-44.4"
             style="fill:url(#linearGradient244);fill-opacity:1;fill-rule:nonzero;stroke:none"
             id="path246" /></g></g><g
         id="g248"><g
           id="g250"
           clip-path="url(#clipPath254)"><path
             d="m 21312.1,24120.6 -2114.5,4.8 c -41.2,0.1 -82.5,0.2 -123.7,0.3 4.4,45.3 8.9,90.7 13.6,135.9 36.7,0.1 73.4,0.2 110.1,0.3 l 2114.5,4.8 2114.4,-5.4 c 39.5,-0.2 79.1,-0.4 118.6,-0.5 5.6,-44.7 11.2,-89.4 16.6,-134.2 -45.1,-0.1 -90.1,-0.3 -135.2,-0.5 l -2114.4,-5.5 m -2414.4,5.6 c -604.9,1.3 -1209.8,1.6 -1814.6,7.5 l -2114.5,16.1 c -63.9,0.9 -127.8,1.7 -191.7,2.5 8.8,27.7 17.7,55.4 26.8,83.1 55,0.7 109.9,1.4 164.9,2.2 l 2114.5,16.1 c 610.1,6 1220.3,6.2 1830.4,7.5 -5.4,-45 -10.7,-90 -15.8,-135 m 4837.1,1 c -6.1,44.4 -12.2,88.7 -18.5,133 608.3,-1.9 1216.5,-1.4 1824.7,-7.8 l 1810,-15.1 c 9.6,-29 18.9,-58 28.2,-87 L 25541,24135 c -602.1,-6.4 -1204.1,-6 -1806.2,-7.8"
             style="fill:url(#linearGradient260);fill-opacity:1;fill-rule:nonzero;stroke:none"
             id="path262" /></g></g><g
         id="g264"><g
           id="g266"
           clip-path="url(#clipPath270)"><path
             d="m 28146.4,24159.3 c -10.2,23.2 -20.3,46.1 -30.7,69.1 551.4,-7.1 1102.8,-13.3 1654.3,-24.4 5.7,-0.1 10.3,-4.8 10.1,-10.5 -0.1,-5.6 -4.6,-10 -10.1,-10.2 -541.2,-10.9 -1082.4,-17 -1623.6,-24"
             style="fill:url(#linearGradient276);fill-opacity:1;fill-rule:nonzero;stroke:none"
             id="path278" /></g></g><g
         id="g280"><g
           id="g282"
           clip-path="url(#clipPath286)"><path
             d="m 27592.6,24152.1 c -9.2,27.8 -18.5,55.7 -28,83.4 l 90.9,-0.7 c 153.4,-2.3 306.8,-4.4 460.2,-6.4 10.4,-23 20.5,-45.9 30.7,-69.1 -163.6,-2.1 -327.2,-4.3 -490.9,-6.7 l -62.9,-0.5"
             style="fill:url(#linearGradient292);fill-opacity:1;fill-rule:nonzero;stroke:none"
             id="path294" /></g></g><g
         id="g296"><g
           id="g298"
           clip-path="url(#clipPath302)"><path
             d="m 13434.8,24168.8 c -193.6,2.8 -387.1,5.8 -580.7,9.5 -8.5,0.1 -15.3,7.2 -15.1,15.7 0.1,8.3 6.9,14.9 15.1,15.1 201,3.8 402,6.9 602.9,9.7 -7.5,-16.7 -14.8,-33.2 -22.2,-50"
             style="fill:url(#linearGradient308);fill-opacity:1;fill-rule:nonzero;stroke:none"
             id="path310" /></g></g><g
         id="g312"><g
           id="g314"
           clip-path="url(#clipPath318)"><path
             d="m 14534.3,24155.3 c -366.5,4.4 -733,8.4 -1099.5,13.5 7.4,16.8 14.7,33.3 22.2,50 367.7,5.2 735.5,9.1 1103.1,13.6 -8.7,-25.7 -17.3,-51.4 -25.8,-77.1"
             style="fill:url(#linearGradient324);fill-opacity:1;fill-rule:nonzero;stroke:none"
             id="path326" /></g></g><g
         id="g328"><g
           id="g330"
           clip-path="url(#clipPath334)"><path
             d="m 19073.9,24125.7 c -58.8,0.2 -117.5,0.3 -176.2,0.5 5.1,45 10.4,90 15.8,135 58,0.2 116,0.3 174,0.4 -4.7,-45.2 -9.2,-90.6 -13.6,-135.9 m 4487.8,0.9 c -5.4,44.8 -11,89.5 -16.6,134.2 57.1,-0.2 114.1,-0.4 171.2,-0.6 6.3,-44.3 12.4,-88.6 18.5,-133 -57.7,-0.2 -115.4,-0.4 -173.1,-0.6"
             style="fill:url(#linearGradient340);fill-opacity:1;fill-rule:nonzero;stroke:none"
             id="path342" /></g></g><g
         id="g344"><g
           id="g346"
           clip-path="url(#clipPath350)"><path
             d="m 27379.2,24150.3 c -9.3,29 -18.6,58 -28.2,87 l 213.6,-1.8 c 9.5,-27.7 18.8,-55.6 28,-83.4 l -213.4,-1.8 m -12602.3,2 c -80.9,1 -161.8,2 -242.6,3 8.5,25.7 17.1,51.4 25.8,77.1 81.2,0.9 162.4,1.9 243.6,3 -9.1,-27.7 -18,-55.4 -26.8,-83.1"
             style="fill:url(#linearGradient356);fill-opacity:1;fill-rule:nonzero;stroke:none"
             id="path358" /></g></g><g
         id="g360"><g
           id="g362"
           clip-path="url(#clipPath366)"><path
             d="m 21312.1,27662 c -529.3,0.6 -1058.5,1.3 -1587.7,3.3 14.5,46.8 29.5,93.5 44.7,140.1 514.3,1.9 1028.6,2.5 1543,3.1 476.4,-0.5 952.8,-1.3 1429.2,-3.2 17.4,-46.5 34.3,-93.1 51,-139.9 -493.4,-2 -986.8,-2.9 -1480.2,-3.4 m -1702.5,3.8 c -433.4,1.9 -866.6,4.8 -1300,9.4 l -1501.2,16.2 c -6.9,0.1 -13.8,0.2 -20.7,0.4 27.7,29.6 55.5,58.9 83.6,88 l 1438.3,15.5 c 448.9,4.8 897.8,7.8 1346.7,9.6 -15.9,-46.2 -31.5,-92.6 -46.7,-139.1"
             style="fill:url(#linearGradient372);fill-opacity:1;fill-rule:nonzero;stroke:none"
             id="path374" /></g></g><g
         id="g376"><g
           id="g378"
           clip-path="url(#clipPath382)"><path
             d="m 24969.2,27684.2 c -60.6,35.4 -122.3,70.4 -183.9,104.2 l 491.9,-5.7 c 30.1,-31.1 59.7,-62.3 89.2,-93.8 l -397.2,-4.7"
             style="fill:url(#linearGradient388);fill-opacity:1;fill-rule:nonzero;stroke:none"
             id="path390" /></g></g><g
         id="g392"><g
           id="g394"
           clip-path="url(#clipPath398)"><path
             d="m 22908,27665.9 c -17.2,46.4 -34.9,92.8 -52.8,138.9 486.4,-2.1 972.9,-5.4 1459.3,-10.8 l 470.8,-5.6 c 61.6,-33.8 123.3,-68.8 183.9,-104.2 l -654.7,-7.6 c -468.8,-5.2 -937.6,-8.5 -1406.5,-10.7"
             style="fill:url(#linearGradient404);fill-opacity:1;fill-rule:nonzero;stroke:none"
             id="path406" /></g></g><g
         id="g408"><g
           id="g410"
           clip-path="url(#clipPath414)"><path
             d="m 25543.9,27691 c -28.2,30.1 -56.7,59.9 -85.4,89.5 l 357.2,-4.1 c 500.4,-10.5 1000.9,-16.6 1501.3,-30.8 5.7,-0.2 10.2,-4.9 10,-10.6 -0.1,-5.5 -4.6,-9.9 -10,-10.1 -500.4,-14.1 -1000.9,-20.3 -1501.3,-30.7 l -271.8,-3.2 m -8954.1,4.4 c -427.6,7.4 -855.1,13.2 -1282.6,24.4 -8.5,0.3 -15.3,7.4 -15,15.9 0.2,8.2 6.8,14.7 15,15 453.3,12 906.7,17.7 1360.1,25.8 -26,-26.8 -51.9,-53.9 -77.5,-81.1"
             style="fill:url(#linearGradient420);fill-opacity:1;fill-rule:nonzero;stroke:none"
             id="path422" /></g></g><g
         id="g424"><g
           id="g426"
           clip-path="url(#clipPath430)"><path
             d="m 19724.4,27665.3 c -38.3,0.2 -76.6,0.4 -114.8,0.5 15.2,46.5 30.8,92.9 46.7,139.1 37.6,0.2 75.2,0.3 112.8,0.5 -15.2,-46.6 -30.2,-93.3 -44.7,-140.1 m 3067.9,0.1 c -16.7,46.8 -33.6,93.4 -51,139.9 38,-0.1 75.9,-0.3 113.9,-0.5 17.9,-46.1 35.6,-92.5 52.8,-138.9 -38.5,-0.1 -77.2,-0.3 -115.7,-0.5"
             style="fill:url(#linearGradient436);fill-opacity:1;fill-rule:nonzero;stroke:none"
             id="path438" /></g></g><g
         id="g440"><g
           id="g442"
           clip-path="url(#clipPath446)"><path
             d="m 25366.4,27688.9 c -29.5,31.5 -59.1,62.7 -89.2,93.8 l 181.3,-2.2 c 28.7,-29.6 57.2,-59.4 85.4,-89.5 l -177.5,-2.1 m -8740.5,5.8 c -12.1,0.2 -24.1,0.5 -36.1,0.7 25.6,27.2 51.5,54.3 77.5,81.1 35.5,0.7 70.9,1.3 106.4,2 -49.7,-27.5 -98.8,-55.3 -147.8,-83.8"
             style="fill:url(#linearGradient452);fill-opacity:1;fill-rule:nonzero;stroke:none"
             id="path454" /></g></g><g
         id="g456"><g
           id="g458"
           clip-path="url(#clipPath462)"><path
             d="m 16787.7,27691.8 c -53.9,1 -107.9,2 -161.8,2.9 49,28.5 98.1,56.3 147.8,83.8 11.6,0.2 23.1,0.4 34.7,0.6 l 62.9,0.7 c -28.1,-29.1 -55.9,-58.4 -83.6,-88"
             style="fill:url(#linearGradient468);fill-opacity:1;fill-rule:nonzero;stroke:none"
             id="path470" /></g></g><g
         id="g472"><g
           id="g474"
           clip-path="url(#clipPath478)"><path
             d="M 31170.1,7392.1 H 6358.6 c -252.36,0 -458.83,206.2 -458.83,458.4 l -59.7,2524.9 -107.33,4539.2 -173.71,7346.5 c -7.49,316.4 115.2,621.9 339.42,845.4 122.96,122.6 270.55,214.6 431.01,271.3 76.23,27 155.4,46 236.17,56.6 49.43,6.4 99.44,9.7 149.81,9.7 9.98,0 20,-0.1 30.01,-0.4 l 2491.22,-64.5 62.74,-1.6 1873.09,-48.4 431,-11.2 1507.5,-39 1167.3,-30.2 251,-6.5 4271.3,-110.5 193.5,-5 4678.8,-121.1 188.6,-4.9 3836.8,-99.2 225.8,-5.9 645.7,-16.7 2424.2,-62.7 c 19.6,1.3 38.8,2 57.7,2 46.7,0 91.4,-4 134.1,-11.3 421.9,-72.6 649.6,-477.3 649.6,-698 l -112,-7739.5 -94.4,-6519 c 0,-252.2 -206.5,-458.4 -458.9,-458.4 M 6819.03,22900.4 c -214.67,0 -420.89,-85.2 -573.29,-237.2 -157.55,-157.1 -244.21,-372.2 -238.62,-594.7 L 6352.74,8290.2 c 0,-238.7 195.34,-434.1 434.09,-434.1 H 30571.8 c 238.7,0 434.1,195.4 434.1,434.1 l 194.8,12944 c -22.3,757.4 -668.7,1043.1 -1085,1043.1 -11.8,0 -23.4,-0.2 -34.8,-0.7 l -23240.08,623.5 c -7.27,0.2 -14.55,0.3 -21.79,0.3"
             style="fill:url(#linearGradient484);fill-opacity:1;fill-rule:nonzero;stroke:none"
             id="path486" /></g></g><path
         d="m 6352.74,8290.2 c 0,-238.7 195.34,-434.1 434.09,-434.1 H 30571.8 c 238.7,0 434.1,195.4 434.1,434.1 l 194.8,12944 c -23,779 -705.9,1058.9 -1119.8,1042.4 l -23240.08,623.5 c -222.45,6 -437.53,-79.8 -595.08,-236.9 -157.55,-157.1 -244.21,-372.2 -238.62,-594.7 L 6352.74,8290.2"
         style="fill:#91b3fa;fill-opacity:1;fill-rule:nonzero;stroke:none"
         id="path488" /><g
         id="g490"><g
           id="g492"
           clip-path="url(#clipPath496)"><path
             d="M 5139.59,5963.3 H 32587.7 c 31.1,0 56.5,25.4 56.5,56.5 v 1384.9 c 0,31.1 -25.4,56.5 -56.5,56.5 H 5139.59 c -31.1,0 -56.54,-25.4 -56.54,-56.5 V 6019.8 c 0,-31.1 25.44,-56.5 56.54,-56.5"
             style="fill:url(#linearGradient502);fill-opacity:1;fill-rule:nonzero;stroke:none"
             id="path504" /></g></g><path
         d="M 16981.7,9573.4 H 8239.75 c -320.79,0 -583.52,254.9 -593.16,575.6 L 7328.6,20719.6 c -10.25,340.7 267.86,619.9 608.55,611.1 l 9059.85,-235 c 321.7,-8.4 578.1,-271.5 578.1,-593.3 V 10166.8 c 0,-327.7 -265.7,-593.4 -593.4,-593.4"
         style="fill:#bdd0fb;fill-opacity:1;fill-rule:nonzero;stroke:none"
         id="path506" /><path
         d="m 28317.5,9573.4 h -8211.7 c -462.7,0 -837.8,375.1 -837.8,837.8 v 9831.7 c 0,462.7 375.1,837.8 837.8,837.8 h 8532 c 473.4,0 852.8,-391.9 837.4,-865.1 l -320.4,-9831.7 c -14.7,-451.8 -385.3,-810.5 -837.3,-810.5"
         style="fill:#bdd0fb;fill-opacity:1;fill-rule:nonzero;stroke:none"
         id="path508" /><path
         d="M 16866.9,18615.4 H 8118.69 c -46.63,0 -84.43,37.7 -84.43,84.4 v 423.3 c 0,46.6 37.8,84.4 84.43,84.4 h 8748.21 c 46.6,0 84.4,-37.8 84.4,-84.4 v -423.3 c 0,-46.7 -37.8,-84.4 -84.4,-84.4"
         style="fill:#dfe8fd;fill-opacity:1;fill-rule:nonzero;stroke:none"
         id="path510" /><path
         d="M 16809.1,17411.7 H 8060.88 c -46.62,0 -84.42,37.8 -84.42,84.5 v 423.3 c 0,46.6 37.8,84.4 84.42,84.4 h 8748.22 c 46.6,0 84.4,-37.8 84.4,-84.4 v -423.3 c 0,-46.7 -37.8,-84.5 -84.4,-84.5"
         style="fill:#dfe8fd;fill-opacity:1;fill-rule:nonzero;stroke:none"
         id="path512" /><path
         d="M 16790.4,16069.1 H 8042.2 c -46.63,0 -84.43,37.8 -84.43,84.4 v 423.3 c 0,46.7 37.8,84.5 84.43,84.5 h 8748.2 c 46.6,0 84.4,-37.8 84.4,-84.5 v -423.3 c 0,-46.6 -37.8,-84.4 -84.4,-84.4"
         style="fill:#dfe8fd;fill-opacity:1;fill-rule:nonzero;stroke:none"
         id="path514" /><path
         d="M 16732.6,14865.5 H 7984.4 c -46.63,0 -84.43,37.8 -84.43,84.4 v 423.3 c 0,46.7 37.8,84.5 84.43,84.5 h 8748.2 c 46.6,0 84.4,-37.8 84.4,-84.5 v -423.3 c 0,-46.6 -37.8,-84.4 -84.4,-84.4"
         style="fill:#dfe8fd;fill-opacity:1;fill-rule:nonzero;stroke:none"
         id="path516" /><path
         d="m 28708.4,18555.3 h -8748.1 c -46.7,0 -84.5,37.8 -84.5,84.4 v 423.3 c 0,46.7 37.8,84.5 84.5,84.5 h 8748.1 c 46.7,0 84.5,-37.8 84.5,-84.5 v -423.3 c 0,-46.6 -37.8,-84.4 -84.5,-84.4"
         style="fill:#dfe8fd;fill-opacity:1;fill-rule:nonzero;stroke:none"
         id="path518" /><path
         d="m 28650.6,17351.7 h -8748.2 c -46.6,0 -84.4,37.8 -84.4,84.4 v 423.3 c 0,46.6 37.8,84.4 84.4,84.4 h 8748.2 c 46.7,0 84.5,-37.8 84.5,-84.4 v -423.3 c 0,-46.6 -37.8,-84.4 -84.5,-84.4"
         style="fill:#dfe8fd;fill-opacity:1;fill-rule:nonzero;stroke:none"
         id="path520" /><path
         d="m 28632,16009 h -8748.2 c -46.7,0 -84.5,37.8 -84.5,84.5 v 423.3 c 0,46.6 37.8,84.4 84.5,84.4 H 28632 c 46.6,0 84.4,-37.8 84.4,-84.4 v -423.3 c 0,-46.7 -37.8,-84.5 -84.4,-84.5"
         style="fill:#dfe8fd;fill-opacity:1;fill-rule:nonzero;stroke:none"
         id="path522" /><path
         d="M 28574.1,14805.4 H 19826 c -46.7,0 -84.5,37.8 -84.5,84.5 v 423.3 c 0,46.6 37.8,84.4 84.5,84.4 h 8748.1 c 46.7,0 84.5,-37.8 84.5,-84.4 v -423.3 c 0,-46.7 -37.8,-84.5 -84.5,-84.5"
         style="fill:#dfe8fd;fill-opacity:1;fill-rule:nonzero;stroke:none"
         id="path524" /><path
         d="M 10630.4,19940.8 H 7945.9 c -26.51,0 -47.99,21.5 -47.99,48 v 688 c 0,26.5 21.48,48 47.99,48 h 2684.5 c 26.5,0 48,-21.5 48,-48 v -688 c 0,-26.5 -21.5,-48 -48,-48"
         style="fill:#f3f7fe;fill-opacity:1;fill-rule:nonzero;stroke:none"
         id="path526" /><path
         d="m 13622.2,19940.8 h -2684.5 c -26.5,0 -48,21.5 -48,48 v 688 c 0,26.5 21.5,48 48,48 h 2684.5 c 26.5,0 48,-21.5 48,-48 v -688 c 0,-26.5 -21.5,-48 -48,-48"
         style="fill:#f3f7fe;fill-opacity:1;fill-rule:nonzero;stroke:none"
         id="path528" /><path
         d="m 16623.9,19940.8 h -2684.5 c -26.5,0 -48,21.5 -48,48 v 688 c 0,26.5 21.5,48 48,48 h 2684.5 c 26.5,0 48,-21.5 48,-48 v -688 c 0,-26.5 -21.5,-48 -48,-48"
         style="fill:#f3f7fe;fill-opacity:1;fill-rule:nonzero;stroke:none"
         id="path530" /><path
         d="m 22617.7,19940.8 h -2684.5 c -26.6,0 -48,21.5 -48,48 v 688 c 0,26.5 21.4,48 48,48 h 2684.5 c 26.5,0 48,-21.5 48,-48 v -688 c 0,-26.5 -21.5,-48 -48,-48"
         style="fill:#eef3fe;fill-opacity:1;fill-rule:nonzero;stroke:none"
         id="path532" /><path
         d="m 25609.5,19940.8 h -2684.6 c -26.5,0 -47.9,21.5 -47.9,48 v 688 c 0,26.5 21.4,48 47.9,48 h 2684.6 c 26.5,0 47.9,-21.5 47.9,-48 v -688 c 0,-26.5 -21.4,-48 -47.9,-48"
         style="fill:#eef3fe;fill-opacity:1;fill-rule:nonzero;stroke:none"
         id="path534" /><path
         d="m 28611.2,19940.8 h -2684.5 c -26.5,0 -48,21.5 -48,48 v 688 c 0,26.5 21.5,48 48,48 h 2684.5 c 26.5,0 48,-21.5 48,-48 v -688 c 0,-26.5 -21.5,-48 -48,-48"
         style="fill:#eef3fe;fill-opacity:1;fill-rule:nonzero;stroke:none"
         id="path536" /><path
         d="M 18979.6,5169.9 H 5554.58 v 2687 l 13425.02,-0.1 c -287.3,0 -287.3,-2686.9 0,-2686.9"
         style="fill:#91b3fa;fill-opacity:1;fill-rule:nonzero;stroke:none"
         id="path538" /><g
         id="g540"><g
           id="g542"
           clip-path="url(#clipPath546)"><path
             d="M 5554.58,5842.3 V 7072 c 0,433.4 265.3,784.8 592.57,784.8 H 18923 c 257.4,0 466,208.7 466,466.1 0,78.1 -63.4,141.5 -141.6,141.5 H 5284.39 c -320.21,0 -828.61,-503.4 -828.61,-1124.5 V 5622.5 c 0,-585.5 493.56,-1060.2 795.47,-1060.2 H 19174 c 118.7,0 215,96.3 215,215 0,216.8 -175.7,392.6 -392.5,392.6 H 6062.21 c -280.36,0 -507.63,301 -507.63,672.4"
             style="fill:url(#linearGradient552);fill-opacity:1;fill-rule:nonzero;stroke:none"
             id="path554" /></g></g><path
         d="M 18514.7,7271.7 H 5926.92 c -18.69,0 -33.81,15.1 -33.81,33.8 0,18.7 15.12,33.8 33.81,33.8 H 18514.7 c 18.7,0 33.8,-15.1 33.8,-33.8 0,-18.7 -15.1,-33.8 -33.8,-33.8"
         style="fill:#ffffff;fill-opacity:1;fill-rule:nonzero;stroke:none"
         id="path556" /><path
         d="M 18514.7,6872.9 H 5926.92 c -18.69,0 -33.81,15.1 -33.81,33.8 0,18.7 15.12,33.8 33.81,33.8 H 18514.7 c 18.7,0 33.8,-15.1 33.8,-33.8 0,-18.7 -15.1,-33.8 -33.8,-33.8"
         style="fill:#ffffff;fill-opacity:1;fill-rule:nonzero;stroke:none"
         id="path558" /><path
         d="M 18514.7,6474 H 5926.92 c -18.69,0 -33.81,15.2 -33.81,33.9 0,18.6 15.12,33.8 33.81,33.8 H 18514.7 c 18.7,0 33.8,-15.2 33.8,-33.8 0,-18.7 -15.1,-33.9 -33.8,-33.9"
         style="fill:#ffffff;fill-opacity:1;fill-rule:nonzero;stroke:none"
         id="path560" /><path
         d="M 18514.7,6075.2 H 5926.92 c -18.69,0 -33.81,15.2 -33.81,33.8 0,18.7 15.12,33.8 33.81,33.8 H 18514.7 c 18.7,0 33.8,-15.1 33.8,-33.8 0,-18.6 -15.1,-33.8 -33.8,-33.8"
         style="fill:#ffffff;fill-opacity:1;fill-rule:nonzero;stroke:none"
         id="path562" /><path
         d="M 18514.7,5676.4 H 5926.92 c -18.69,0 -33.81,15.1 -33.81,33.8 0,18.7 15.12,33.8 33.81,33.8 H 18514.7 c 18.7,0 33.8,-15.1 33.8,-33.8 0,-18.7 -15.1,-33.8 -33.8,-33.8"
         style="fill:#ffffff;fill-opacity:1;fill-rule:nonzero;stroke:none"
         id="path564" /><g
         id="g566"><g
           id="g568"
           clip-path="url(#clipPath572)"><path
             d="M 17781.8,8476.7 H 5301.21 c -110.99,0 -200.96,89.9 -200.96,200.9 v 2707.7 c 0,111 89.97,201 200.96,201 H 17781.8 c 110.9,0 200.9,-90 200.9,-201 V 8677.6 c 0,-111 -90,-200.9 -200.9,-200.9"
             style="fill:url(#linearGradient578);fill-opacity:1;fill-rule:nonzero;stroke:none"
             id="path580" /></g></g><path
         d="M 7997.13,8834 H 6628.57 c -40,0 -72.42,32.5 -72.42,72.5 v 2250 c 0,40 32.42,72.4 72.42,72.4 h 1368.56 c 40,0 72.43,-32.4 72.43,-72.4 v -2250 c 0,-40 -32.43,-72.5 -72.43,-72.5"
         style="fill:#91b3fa;fill-opacity:1;fill-rule:nonzero;stroke:none"
         id="path582" /><path
         d="m 8823.31,8834 h -494.46 c -20.27,0 -36.7,16.5 -36.7,36.7 v 2321.5 c 0,20.3 16.43,36.7 36.7,36.7 h 494.46 c 20.26,0 36.69,-16.4 36.69,-36.7 V 8870.7 c 0,-20.2 -16.43,-36.7 -36.69,-36.7"
         style="fill:#91b3fa;fill-opacity:1;fill-rule:nonzero;stroke:none"
         id="path584" /><g
         id="g586"><g
           id="g588"
           clip-path="url(#clipPath592)"><path
             d="m 11680,17298.7 c 0,0 -0.4,-114.5 -370,-107.3 -206.1,4 -588.3,48.9 -804.3,-273.5 -111.5,-166.5 -314.5,-242.5 -505.1,-180.4 -474.5,154.5 -1268.61,267.9 -1762.68,-442.2 -377.12,-541.9 -191.1,-913.3 82.59,-1147.3 201.02,-171.9 241.01,-471.8 77.88,-680 -156.45,-199.7 -219.51,-489.9 62.95,-886.9 633,-889.7 2266.86,209.3 2266.86,209.3 l 1525.6,2587.7 -573.8,920.6"
             style="fill:url(#linearGradient598);fill-opacity:1;fill-rule:nonzero;stroke:none"
             id="path600" /></g></g><path
         d="m 8616.86,15432.3 c -18.95,0 -37.94,17.8 -50.22,39 -135.34,232.9 -106.28,558.1 70.72,790.7 106.06,139.3 249.15,233.5 402.95,265.2 109.06,22.5 220.66,13.5 325.62,2.4 176.94,-18.8 355,-46.4 529.3,-82.3 14.3,-2.9 28.63,-5.9 42.96,-8.9 101.71,-21.4 206.91,-43.4 311.91,-43.7 h 1.9 c 133.9,0 251,38.7 329.8,109.1 49.3,44 86.2,101.7 121.9,157.5 43.7,68.4 88.9,139.1 157.3,184.8 1.9,1.3 4.5,0.8 5.8,-1.2 1.3,-1.9 0.8,-4.5 -1.1,-5.8 -66.9,-44.7 -111.6,-114.7 -154.9,-182.4 -36,-56.2 -73.2,-114.4 -123.4,-159.2 -80.4,-71.8 -199.4,-111.3 -335.4,-111.3 h -1.9 c -105.9,0.3 -211.5,22.5 -313.66,43.9 -14.3,3 -28.63,6 -42.92,9 -174.01,35.8 -351.81,63.4 -528.45,82.1 -104.37,11 -215.14,19.9 -323.04,-2.3 -151.79,-31.3 -293.1,-124.3 -397.93,-262.1 -174.99,-229.9 -203.82,-551.2 -70.13,-781.3 9.87,-17 31.99,-42.9 52.83,-32.3 2.04,1.1 4.66,0.3 5.68,-1.8 1.09,-2 0.29,-4.6 -1.79,-5.6 -4.52,-2.4 -9.18,-3.5 -13.83,-3.5"
         style="fill:#ffffff;fill-opacity:1;fill-rule:nonzero;stroke:none"
         id="path602" /><path
         d="m 8614.61,15543.1 c -1.98,0 -3.76,1.4 -4.16,3.4 -29.02,153.9 -17.1,297.3 34.44,414.8 60.36,137.7 179.39,238.9 310.63,264.2 2.28,0.2 4.49,-1.1 4.95,-3.4 0.43,-2.3 -1.05,-4.5 -3.37,-4.9 -128.53,-24.8 -245.22,-124.1 -304.48,-259.2 -50.85,-116 -62.54,-257.7 -33.85,-409.9 0.43,-2.3 -1.08,-4.5 -3.36,-4.9 l -0.8,-0.1"
         style="fill:#ffffff;fill-opacity:1;fill-rule:nonzero;stroke:none"
         id="path604" /><g
         id="g606"><g
           id="g608"
           clip-path="url(#clipPath612)"><path
             d="m 15863.6,9168.5 c -3.8,1.5 -2030.3,3550.4 -2304.2,3884.4 -46,56.2 -117.3,84.8 -189.5,76.2 l -565.6,-67.4 -664.5,-1437.6 1107,644.8 c -109.5,-757.7 1312.6,-1883.6 1800.4,-2294.4 49.5,-41.7 53.6,-116.4 8.9,-163.2 l -194.8,-203.8 c 319.7,-324.1 688.6,-532.1 1105,-628.4 l -102.7,189.4"
             style="fill:url(#linearGradient618);fill-opacity:1;fill-rule:nonzero;stroke:none"
             id="path620" /></g></g><g
         id="g622"><g
           id="g624"
           clip-path="url(#clipPath628)"><path
             d="m 14974,9717.5 c 0,0 -124.3,-40.1 -166.4,-150.8 -20.1,-53 1.6,-113 47.6,-146 204.7,-146.6 879.7,-619.9 1191.2,-712.6 25.5,-7.6 49.8,15.5 44.1,41.5 -16,72.4 -67.7,216.9 -234.3,428.4 l 14.9,-30.2 c 18.9,-38.3 -22.7,-78.1 -59.9,-57.1 -208.3,117.6 -632.7,375 -837.2,626.8"
             style="fill:url(#linearGradient634);fill-opacity:1;fill-rule:nonzero;stroke:none"
             id="path636" /></g></g><g
         id="g638"><g
           id="g640"
           clip-path="url(#clipPath644)"><path
             d="m 15074.3,8297.5 c -3.4,2.1 -307.5,734.7 -310.9,736.9 -278.8,1697.3 -958.9,3150.9 -1159.5,3533.4 -33.8,64.4 -97.8,106.8 -170.2,113 l -567.6,48.5 -941.7,-1273.4 1214.6,407.3 c -260.6,-719.7 904.3,-2110.2 1298.8,-2611.2 40.1,-50.8 28.9,-124.8 -24.3,-161.6 l -232,-160.2 c 247.5,-382 566.7,-660.4 954.9,-839 l -62.1,206.3"
             style="fill:url(#linearGradient650);fill-opacity:1;fill-rule:nonzero;stroke:none"
             id="path652" /></g></g><g
         id="g654"><g
           id="g656"
           clip-path="url(#clipPath660)"><path
             d="m 14314.1,9015.1 c 0,0 -129.8,-14.1 -193.4,-114 -30.5,-47.8 -21.3,-110.9 17.1,-152.5 170.7,-185 736,-785.2 1022.3,-939 23.4,-12.6 51.9,5.1 51.5,31.7 -1,74.1 -22.4,226.1 -142.7,467 l 8.5,-32.6 c 10.8,-41.3 -38.1,-71.9 -70.2,-43.8 -180.2,157.3 -543.7,495.3 -693.1,783.2"
             style="fill:url(#linearGradient666);fill-opacity:1;fill-rule:nonzero;stroke:none"
             id="path668" /></g></g><g
         id="g670"><g
           id="g672"
           clip-path="url(#clipPath676)"><path
             d="m 10209.3,12997.4 c 0,0 -513.43,-763.7 -555.56,-1112 -42.14,-348.4 141.97,-468.9 679.36,-513.3 1599.3,-132.2 2387.6,347.1 2387.6,347.1 109.4,697.5 187.3,875 1101,1254.2 0,0 -1155.7,-91.7 -1388.3,-1.4 -232.5,90.2 -2224.1,25.4 -2224.1,25.4"
             style="fill:url(#linearGradient682);fill-opacity:1;fill-rule:nonzero;stroke:none"
             id="path684" /></g></g><g
         id="g686"><g
           id="g688"
           clip-path="url(#clipPath692)"><path
             d="m 11597.9,13098.5 c 0,0 597.9,569.4 892.2,946.5 159.1,203.8 209.1,472.2 135.5,720 -134.3,452.8 -373.1,921.6 -394.9,994.6 -33.4,111.9 -703.8,107.2 -703.8,107.2 0,0 -1319.3,-856.2 -1837.64,-2306.6 l 582.14,-181.2 c 0,0 344.5,577.9 684.8,945.3 0,0 -588.9,-778 -609.7,-1096.4 l 1251.4,-129.4"
             style="fill:url(#linearGradient698);fill-opacity:1;fill-rule:nonzero;stroke:none"
             id="path700" /></g></g><g
         id="g702"><g
           id="g704"
           clip-path="url(#clipPath708)"><path
             d="m 12311.8,16384.8 c -7,-23.3 -182,-603.4 -195.7,-615.4 -13.7,-12.1 -383.8,-32 -558,87.1 l 355.6,786.5 398.1,-258.2"
             style="fill:url(#linearGradient714);fill-opacity:1;fill-rule:nonzero;stroke:none"
             id="path716" /></g></g><g
         id="g718"><g
           id="g720"
           clip-path="url(#clipPath724)"><path
             d="m 12737.1,12873.8 -449.2,488.9 -518.9,-139.8 c 0,0 -604.9,-93.7 -951.1,0 -346.3,93.8 -346.3,93.8 -346.3,93.8 l -782.34,243.5 -122.87,-347.2 c -31.2,-88.2 0.15,-186.1 76.38,-240.2 67.69,-48.1 147.03,-101 197.61,-123.1 103.03,-45.1 2373.42,-14.3 2373.42,-14.3 l 523.3,38.4"
             style="fill:url(#linearGradient730);fill-opacity:1;fill-rule:nonzero;stroke:none"
             id="path732" /></g></g><g
         id="g734"><g
           id="g736"
           clip-path="url(#clipPath740)"><path
             d="m 11250,12680.4 c 1.5,-0.1 3.1,-0.1 4.7,-0.1 l 2066.5,2.2 c 51.1,0.1 92.4,41.5 92.4,92.6 -0.1,51.1 -41.7,93.3 -92.6,92.4 l -2066.5,-2.2 c -51.1,-0.1 -92.4,-41.5 -92.4,-92.6 0.1,-49.5 39,-89.9 87.9,-92.3"
             style="fill:url(#linearGradient746);fill-opacity:1;fill-rule:nonzero;stroke:none"
             id="path748" /></g></g><g
         id="g750"><g
           id="g752"
           clip-path="url(#clipPath756)"><path
             d="m 15178.9,14556.6 h -1721 c -127,0 -242.5,-73.2 -296.7,-188.1 l -795.6,-1687 h 2138.7 c 81.9,0 155.4,50 185.4,126.1 l 617,1561.1 c 35.6,90.2 -30.8,187.9 -127.8,187.9"
             style="fill:url(#linearGradient762);fill-opacity:1;fill-rule:nonzero;stroke:none"
             id="path764" /></g></g><path
         d="m 13966.4,13691.6 c -37.3,-115.8 -9.7,-228.4 61.6,-251.3 71.2,-23 159.3,52.4 196.6,168.2 37.2,115.9 9.7,228.4 -61.6,251.4 -71.3,22.9 -159.3,-52.4 -196.6,-168.3"
         style="fill:#7d97f4;fill-opacity:1;fill-rule:nonzero;stroke:none"
         id="path766" /><g
         id="g768"><g
           id="g770"
           clip-path="url(#clipPath774)"><path
             d="m 12642.3,17172.2 c 0,0 157.1,-281.5 52.4,-744.1 -104.7,-462.6 -345.4,-526.1 -511.5,-431 -166.1,95 -386.9,272.5 -452.7,675.4 -65.8,402.8 698.8,854.4 911.8,499.7"
             style="fill:url(#linearGradient780);fill-opacity:1;fill-rule:nonzero;stroke:none"
             id="path782" /></g></g><g
         id="g784"><g
           id="g786"
           clip-path="url(#clipPath790)"><path
             d="m 12030.2,16729.3 c 0,0 209.5,632.8 653,296.3 l 46.9,-152.7 c 0,0 375.2,148.9 213,486.1 -162.1,337.2 -555.9,470.2 -946.1,201.8 -390.3,-268.4 -595.4,-491.8 -541.2,-808.1 54.3,-316.4 282.1,-183.3 282.1,-183.3 0,0 22.4,238.8 130.4,291.7 108,52.9 123.4,-124.6 123.4,-124.6 l 38.5,-7.2"
             style="fill:url(#linearGradient796);fill-opacity:1;fill-rule:nonzero;stroke:none"
             id="path798" /></g></g><g
         id="g800"><g
           id="g802"
           clip-path="url(#clipPath806)"><path
             d="m 11938,16588.8 c 0,0 109.5,324.7 -88.8,316.1 -198.4,-8.6 -86.9,-311.1 -36.2,-420.5 l 125,104.4"
             style="fill:url(#linearGradient812);fill-opacity:1;fill-rule:nonzero;stroke:none"
             id="path814" /></g></g><path
         d="m 14714.5,22605.5 c 415.3,520 654.4,1130.6 654.4,1783.7 0,1899.2 -2022.2,3438.8 -4516.6,3438.8 -2494.43,0 -4516.58,-1539.6 -4516.58,-3438.8 0,-1899.1 2022.15,-3438.7 4516.58,-3438.7 934.9,0 1803.4,216.2 2524,586.6 476.3,-81.2 1215.7,-217.7 1605.9,-290.4 114.9,-21.3 209,91 167.9,200.4 l -435.6,1158.4"
         style="fill:#7d97f4;fill-opacity:1;fill-rule:nonzero;stroke:none"
         id="path816" /><path
         d="m 9026.29,23685.5 h -296.86 v 606.2 h -556.25 v -606.2 h -297.82 v 1404.6 h 297.82 v -550.5 h 556.25 v 550.5 h 296.86 v -1404.6"
         style="fill:#ffffff;fill-opacity:1;fill-rule:nonzero;stroke:none"
         id="path818" /><path
         d="m 9827.36,24389.7 c 0,-156.9 29.78,-275.1 89.34,-354.5 59.56,-79.4 148.6,-119.1 267.1,-119.1 237.6,0 356.4,157.9 356.4,473.6 0,316.4 -118.2,474.6 -354.5,474.6 -118.5,0 -207.83,-39.9 -268.03,-119.6 -60.21,-79.7 -90.31,-198.1 -90.31,-355 z m 1025.04,0 c 0,-232.5 -57.6,-411.2 -172.9,-536 -115.3,-124.9 -280.5,-187.4 -495.7,-187.4 -215.22,0 -380.46,62.5 -495.74,187.4 -115.29,124.8 -172.93,304.2 -172.93,537.9 0,233.8 57.8,412.4 173.41,535.6 115.6,123.3 281.32,185 497.16,185 215.8,0 380.9,-62.2 495.2,-186.4 114.4,-124.3 171.5,-302.9 171.5,-536.1"
         style="fill:#ffffff;fill-opacity:1;fill-rule:nonzero;stroke:none"
         id="path820" /><path
         d="m 11340.2,23685.5 v 1404.6 h 297.8 v -1158.6 h 569.7 v -246 h -867.5"
         style="fill:#ffffff;fill-opacity:1;fill-rule:nonzero;stroke:none"
         id="path822" /><path
         d="m 13335.5,24269.6 c -94.2,303 -147.2,474.3 -159,514 -11.9,39.7 -20.4,71.1 -25.5,94.2 -21.1,-82 -81.7,-284.7 -181.6,-608.2 z m 172.9,-584.1 -101.9,334.4 h -512 l -101.8,-334.4 h -320.9 l 495.7,1410.3 h 364.1 l 497.7,-1410.3 h -320.9"
         style="fill:#ffffff;fill-opacity:1;fill-rule:nonzero;stroke:none"
         id="path824" /><path
         d="m 24549.9,17990.2 c -398,-498.4 -627.2,-1083.6 -627.2,-1709.5 0,-1820.2 1938.1,-3295.7 4328.7,-3295.7 2390.7,0 4328.7,1475.5 4328.7,3295.7 0,1820.1 -1938,3295.6 -4328.7,3295.6 -896,0 -1728.4,-207.2 -2419,-562.2 -456.5,77.9 -1165.1,208.7 -1539,278.3 -110.1,20.5 -200.3,-87.2 -160.9,-192 l 417.4,-1110.2"
         style="fill:#7d97f4;fill-opacity:1;fill-rule:nonzero;stroke:none"
         id="path826" /><path
         d="m 26276.1,15680.3 h -255.5 v 521.7 h -478.8 v -521.7 h -256.3 v 1208.8 h 256.3 v -473.8 h 478.8 v 473.8 h 255.5 v -1208.8"
         style="fill:#ffffff;fill-opacity:1;fill-rule:nonzero;stroke:none"
         id="path828" /><path
         d="m 27446.7,15680.3 h -696.2 v 1208.8 h 696.2 v -210 h -439.9 v -265.5 h 409.3 v -210 h -409.3 v -311.7 h 439.9 v -211.6"
         style="fill:#ffffff;fill-opacity:1;fill-rule:nonzero;stroke:none"
         id="path830" /><path
         d="m 27868.2,15680.3 v 1208.8 h 256.3 v -997.2 h 490.3 v -211.6 h -746.6"
         style="fill:#ffffff;fill-opacity:1;fill-rule:nonzero;stroke:none"
         id="path832" /><path
         d="m 28994.2,15680.3 v 1208.8 h 256.3 v -997.2 h 490.3 v -211.6 h -746.6"
         style="fill:#ffffff;fill-opacity:1;fill-rule:nonzero;stroke:none"
         id="path834" /><path
         d="m 30335.1,16286.3 c 0,-135 25.6,-236.7 76.9,-305.1 51.2,-68.3 127.9,-102.5 229.8,-102.5 204.5,0 306.8,135.9 306.8,407.6 0,272.3 -101.7,408.5 -305.1,408.5 -102,0 -178.9,-34.4 -230.7,-103 -51.8,-68.6 -77.7,-170.4 -77.7,-305.5 z m 882.2,0 c 0,-200.1 -49.6,-353.9 -148.8,-461.3 -99.2,-107.5 -241.5,-161.3 -426.7,-161.3 -185.2,0 -327.4,53.8 -426.6,161.3 -99.2,107.4 -148.8,261.8 -148.8,463 0,201.2 49.7,354.8 149.2,460.9 99.5,106.1 242.1,159.2 427.9,159.2 185.7,0 327.8,-53.5 426.2,-160.4 98.4,-106.9 147.6,-260.7 147.6,-461.4"
         style="fill:#ffffff;fill-opacity:1;fill-rule:nonzero;stroke:none"
         id="path836" /><g
         id="g838"><g
           id="g840"
           clip-path="url(#clipPath844)"><path
             d="m 21100.4,22794.2 c -358.7,482.2 -554.7,1033.1 -533.4,1607.6 61.7,1670.7 1947.4,2932.8 4241.6,2817.5 2328,-117 4189.1,-1603.7 4125.7,-3319.1 -63.5,-1715.4 -2026,-2972.9 -4352.2,-2810.9 -863.2,60.1 -1653.8,307.4 -2300.5,680.7 -436.6,-42.3 -1112.2,-116.9 -1467.7,-156.6 -104.5,-11.7 -185.8,93 -145.1,186.7 l 431.6,994.1"
             style="fill:url(#linearGradient850);fill-opacity:1;fill-rule:nonzero;stroke:none"
             id="path852" /></g></g><path
         d="m 23840.3,24193.7 c -4.7,-18.9 -28.4,-30.7 -59,-30.7 -70.8,-276.2 -191.2,-580.6 -330.5,-771.8 -54.2,42.5 -158.1,106.2 -221.8,139.3 132.2,169.9 240.8,467.3 299.8,743.4 z m 944,649 c 0,-11.8 -30.6,-287.9 -103.8,-578.2 l -174.7,30.7 c 134.6,-250.2 250.2,-573.6 292.7,-793 l -271.4,-99.2 c -33,219.5 -148.7,557 -276.1,807.2 l 245.4,87.3 -56.6,9.4 c 11.8,73.2 23.5,174.7 37.7,278.6 h -290.3 v -1222.6 c 0,-217.1 -47.2,-318.6 -457.8,-318.6 -14.2,82.6 -56.7,210 -96.8,285.6 99.1,-2.4 200.6,-2.4 233.6,-2.4 30.7,0 40.2,9.4 40.2,40.1 v 1217.9 h -252.6 c -75.5,-165.3 -160.5,-313.9 -254.9,-431.9 -49.5,51.9 -151,136.8 -214.7,179.3 174.6,207.7 318.6,575.9 396.5,934.6 l 330.4,-87.3 c -7.1,-18.9 -28.3,-33 -63.7,-30.7 -26,-101.5 -56.7,-202.9 -92.1,-302.1 h 875.6 z m -1383,330.4 c -7.1,-21.2 -30.7,-33 -66.1,-30.7 -61.4,-179.3 -134.5,-361.1 -214.7,-533.4 l 89.6,-21.2 c -4.7,-23.6 -23.6,-40.1 -63.7,-44.8 v -1496.4 h -280.8 v 1099.9 c -52,-80.3 -106.2,-155.8 -160.5,-221.9 -37.8,63.7 -120.4,188.8 -170,250.2 210.1,245.4 417.8,682 540.5,1099.8 l 325.7,-101.5"
         style="fill:#ffffff;fill-opacity:1;fill-rule:nonzero;stroke:none"
         id="path854" /><path
         d="m 27378.1,24238.5 v -269 h -519.3 v -609 c 0,-233.6 -80.2,-318.6 -521.6,-313.9 -14.1,77.9 -61.3,200.7 -99.1,278.6 87.3,-2.4 179.4,-4.8 236,-4.8 80.3,0 99.1,0 99.1,42.5 v 606.6 h -502.7 v 269 h 502.7 v 363.5 l 87.4,-4.7 c 80.2,82.5 160.5,191.1 228.9,295 h -734 v 261.9 h 939.3 l 47.3,14.2 219.4,-132.2 c -9.4,-16.5 -33,-28.3 -56.6,-33 -110.9,-165.2 -283.2,-384.7 -446.1,-540.5 v -224.2 z m -1765.4,299.7 c -37.8,-177 -77.9,-356.3 -115.7,-521.6 56.7,-35.3 118,-75.5 179.4,-118 66.1,181.8 113.3,396.6 141.6,639.6 z m 349.3,269.1 151,-35.4 -14.2,-47.2 c -28.3,-401.2 -89.6,-731.6 -198.2,-996 106.2,-87.3 200.6,-174.6 259.6,-250.2 l -169.9,-228.9 c -51.9,68.5 -127.5,146.3 -214.8,226.6 -110.9,-184.1 -254.8,-325.7 -431.9,-436.6 -37.8,70.8 -110.9,172.3 -169.9,224.2 158.1,84.9 287.9,217.1 389.4,391.7 -42.4,35.5 -87.3,66.1 -129.8,99.2 l -18.9,-75.5 -231.3,120.3 c 54.3,195.9 113.3,462.6 170,738.7 h -186.5 v 262 h 236 c 30.7,165.2 59,325.7 82.6,472 l 321,-33 c -2.4,-21.3 -21.2,-35.4 -61.4,-37.8 -23.6,-122.7 -49.5,-259.6 -77.8,-401.2 h 247.8 l 47.2,7.1"
         style="fill:#ffffff;fill-opacity:1;fill-rule:nonzero;stroke:none"
         id="path856" /></g></g></svg>
