<?xml version="1.0" encoding="UTF-8" standalone="no"?>
<svg
   xmlns:dc="http://purl.org/dc/elements/1.1/"
   xmlns:cc="http://creativecommons.org/ns#"
   xmlns:rdf="http://www.w3.org/1999/02/22-rdf-syntax-ns#"
   xmlns:svg="http://www.w3.org/2000/svg"
   xmlns="http://www.w3.org/2000/svg"
   xmlns:sodipodi="http://sodipodi.sourceforge.net/DTD/sodipodi-0.dtd"
   xmlns:inkscape="http://www.inkscape.org/namespaces/inkscape"
   version="1.1"
   id="svg2"
   xml:space="preserve"
   width="666.66669"
   height="570.08002"
   viewBox="0 0 666.66669 570.08002"
   sodipodi:docname="404-3"><metadata
     id="metadata8"><rdf:RDF><cc:Work
         rdf:about=""><dc:format>image/svg+xml</dc:format><dc:type
           rdf:resource="http://purl.org/dc/dcmitype/StillImage" /></cc:Work></rdf:RDF></metadata><defs
     id="defs6" /><sodipodi:namedview
     pagecolor="#ffffff"
     bordercolor="#666666"
     borderopacity="1"
     objecttolerance="10"
     gridtolerance="10"
     guidetolerance="10"
     inkscape:pageopacity="0"
     inkscape:pageshadow="2"
     inkscape:window-width="640"
     inkscape:window-height="480"
     id="namedview4" /><g
     id="g10"
     inkscape:groupmode="layer"
     inkscape:label="ink_ext_XXXXXX"
     transform="matrix(1.3333333,0,0,-1.3333333,0,570.08)"><g
       id="g12"
       transform="scale(0.1)"><path
         d="m 0,449.129 h 5000 v 2.5 H 0 Z"
         style="fill:#e7e8e5;fill-opacity:1;fill-rule:nonzero;stroke:none"
         id="path14" /><path
         d="m 3931.05,289.41 h 165.62 v -2.5 h -165.62 v 2.5"
         style="fill:#e7e8e5;fill-opacity:1;fill-rule:nonzero;stroke:none"
         id="path16" /><path
         d="M 3291.93,325.75 H 3670 v -2.5 h -378.07 v 2.5"
         style="fill:#e7e8e5;fill-opacity:1;fill-rule:nonzero;stroke:none"
         id="path18" /><path
         d="m 2650,381.031 h 690.809 v 2.5 H 2650 Z"
         style="fill:#e7e8e5;fill-opacity:1;fill-rule:nonzero;stroke:none"
         id="path20" /><path
         d="m 524.59,366.719 h 126.933 v -2.5 H 524.59 v 2.5"
         style="fill:#e7e8e5;fill-opacity:1;fill-rule:nonzero;stroke:none"
         id="path22" /><path
         d="m 740.559,366.719 h 368.331 v -2.5 H 740.559 v 2.5"
         style="fill:#e7e8e5;fill-opacity:1;fill-rule:nonzero;stroke:none"
         id="path24" /><path
         d="m 1523.33,322 h 595.293 v 2.5 H 1523.33 Z"
         style="fill:#e7e8e5;fill-opacity:1;fill-rule:nonzero;stroke:none"
         id="path26" /><path
         d="m 439.152,3723.59 c -30.101,0 -54.582,-24.49 -54.582,-54.58 V 954.691 c 0,-30.101 24.481,-54.582 54.582,-54.582 H 2370.14 c 30.08,0 54.57,24.481 54.57,54.582 V 3669.01 c 0,30.09 -24.49,54.58 -54.57,54.58 H 439.152 M 2370.14,897.609 H 439.152 c -31.476,0 -57.082,25.61 -57.082,57.082 V 3669.01 c 0,31.47 25.606,57.07 57.082,57.07 H 2370.14 c 31.46,0 57.07,-25.6 57.07,-57.07 V 954.691 c 0,-31.472 -25.61,-57.082 -57.07,-57.082"
         style="fill:#e7e8e5;fill-opacity:1;fill-rule:nonzero;stroke:none"
         id="path28" /><path
         d="m 2602.12,3723.59 c -30.09,0 -54.57,-24.49 -54.57,-54.58 V 954.691 c 0,-30.101 24.48,-54.582 54.57,-54.582 h 1930.99 c 30.09,0 54.58,24.481 54.58,54.582 V 3669.01 c 0,30.09 -24.49,54.58 -54.58,54.58 H 2602.12 M 4533.11,897.609 H 2602.12 c -31.47,0 -57.07,25.61 -57.07,57.082 V 3669.01 c 0,31.47 25.6,57.07 57.07,57.07 h 1930.99 c 31.47,0 57.08,-25.6 57.08,-57.07 V 954.691 c 0,-31.472 -25.61,-57.082 -57.08,-57.082"
         style="fill:#e7e8e5;fill-opacity:1;fill-rule:nonzero;stroke:none"
         id="path30" /><path
         d="m 2339.04,451.629 h 215.551 v 3823.98 H 2339.04 Z"
         style="fill:#f3f2f1;fill-opacity:1;fill-rule:nonzero;stroke:none"
         id="path32" /><path
         d="m 2554.59,451.629 h 30.2695 v 3823.98 H 2554.59 Z"
         style="fill:#dadbd8;fill-opacity:1;fill-rule:nonzero;stroke:none"
         id="path34" /><path
         d="M 1391.67,836.781 H 255.004 c 0,69.949 56.711,126.668 126.668,126.668 H 1391.67 V 836.781"
         style="fill:#e2e2e0;fill-opacity:1;fill-rule:nonzero;stroke:none"
         id="path36" /><path
         d="M 1475,836.781 H 978.34 c 0,69.949 56.71,126.668 126.66,126.668 h 370 V 836.781"
         style="fill:#dadbd8;fill-opacity:1;fill-rule:nonzero;stroke:none"
         id="path38" /><path
         d="M 2185.87,836.781 H 1049.2 c 0,69.949 56.71,126.668 126.67,126.668 h 1010 V 836.781"
         style="fill:#e2e2e0;fill-opacity:1;fill-rule:nonzero;stroke:none"
         id="path40" /><path
         d="m 2269.2,836.781 h -496.66 c 0,69.949 56.71,126.668 126.66,126.668 h 370 V 836.781"
         style="fill:#dadbd8;fill-opacity:1;fill-rule:nonzero;stroke:none"
         id="path42" /><path
         d="M 3799.57,836.781 H 2662.9 c 0,69.949 56.71,126.668 126.67,126.668 h 1010 V 836.781"
         style="fill:#e2e2e0;fill-opacity:1;fill-rule:nonzero;stroke:none"
         id="path44" /><path
         d="m 3882.9,836.781 h -496.66 c 0,69.949 56.7,126.668 126.66,126.668 h 370 V 836.781"
         style="fill:#dadbd8;fill-opacity:1;fill-rule:nonzero;stroke:none"
         id="path46" /><path
         d="m 4284.2,1232.28 h -503.4 l 70.87,-780.651 h 361.66 l 70.87,780.651"
         style="fill:#e7e8e5;fill-opacity:1;fill-rule:nonzero;stroke:none"
         id="path48" /><path
         d="m 4027.5,1102.13 c -9.25,322.94 66.34,991.67 201.36,1263.71 l 8.95,-4.44 C 4108.17,2100.19 4028.17,1428.06 4037.5,1102.42 l -10,-0.29"
         style="fill:#e7e8e5;fill-opacity:1;fill-rule:nonzero;stroke:none"
         id="path50" /><path
         d="m 4077.47,1738.03 c 0,0 -33.03,312.66 -155.25,408.6 -65.55,-197.4 68.66,-265.46 155.25,-408.6"
         style="fill:#e7e8e5;fill-opacity:1;fill-rule:nonzero;stroke:none"
         id="path52" /><path
         d="m 3924.73,2138.1 c -43.32,-138.53 15.38,-211.67 83.17,-296.15 20.73,-25.83 42.04,-52.38 61.73,-82.19 -10.09,71.53 -48.66,295.54 -144.9,378.34 z m 152.74,-405.07 c -1.71,0 -3.35,0.89 -4.28,2.41 -22.53,37.25 -48.23,69.28 -73.09,100.25 -70.75,88.16 -131.85,164.29 -82.62,312.52 0.51,1.54 1.74,2.74 3.3,3.21 1.55,0.46 3.25,0.15 4.53,-0.86 122.47,-96.13 155.77,-399.15 157.13,-412 0.25,-2.33 -1.16,-4.52 -3.37,-5.27 l -1.6,-0.26"
         style="fill:#e7e8e5;fill-opacity:1;fill-rule:nonzero;stroke:none"
         id="path54" /><path
         d="m 4095.65,1856.47 c 0,0 129.66,289.1 276.35,340.34 -1.83,-207.99 -148.11,-232.91 -276.35,-340.34"
         style="fill:#e7e8e5;fill-opacity:1;fill-rule:nonzero;stroke:none"
         id="path56" /><path
         d="m 4366.87,2189.54 c -118.17,-47.46 -225.62,-250.85 -257.28,-315.39 27.29,21.21 54.92,39.2 81.8,56.7 92,59.91 171.66,111.77 175.48,258.69 z m -271.22,-338.07 c -1.06,0 -2.12,0.34 -3.02,1.01 -1.85,1.41 -2.5,3.92 -1.54,6.04 5.33,11.88 132.23,291.65 279.26,343.01 1.53,0.54 3.23,0.3 4.56,-0.66 1.32,-0.95 2.1,-2.48 2.09,-4.11 -1.39,-157.88 -84.24,-211.83 -180.16,-274.29 -32.28,-21.02 -65.67,-42.76 -97.98,-69.83 -0.93,-0.78 -2.07,-1.17 -3.21,-1.17"
         style="fill:#e7e8e5;fill-opacity:1;fill-rule:nonzero;stroke:none"
         id="path58" /><path
         d="m 4035.39,1297.9 c 0,0 -50.1,435.03 -201.83,549.85 -75.99,-243.11 92.71,-376.48 201.83,-549.85"
         style="fill:#e7e8e5;fill-opacity:1;fill-rule:nonzero;stroke:none"
         id="path60" /><path
         d="m 3836.81,1837.33 c -53.4,-183.02 34.72,-302.12 127.93,-428.1 20.42,-27.59 41.38,-55.92 60.96,-85.19 -13.64,94.5 -67.52,411.25 -188.89,513.29 z m 198.58,-545.56 c -2.06,0 -4.04,1.04 -5.18,2.86 -23.33,37.06 -49.76,72.78 -75.31,107.32 -96.57,130.51 -187.77,253.78 -127.18,447.63 0.6,1.9 2.08,3.4 3.97,4 1.92,0.61 3.98,0.26 5.57,-0.94 152.06,-115.08 202.15,-536.18 204.21,-554.05 0.33,-2.83 -1.36,-5.52 -4.05,-6.47 l -2.03,-0.35"
         style="fill:#e7e8e5;fill-opacity:1;fill-rule:nonzero;stroke:none"
         id="path62" /><path
         d="m 4052.87,1532.43 c 0,0 169.18,309.83 347.67,375.74 2.26,-254.7 -192.99,-241.43 -347.67,-375.74"
         style="fill:#e7e8e5;fill-opacity:1;fill-rule:nonzero;stroke:none"
         id="path64" /><path
         d="m 4394.41,1899.2 c -139.55,-57.6 -273.73,-264.68 -319.57,-341.12 40.99,30.95 83.43,53.32 124.71,75.08 103.53,54.57 193.19,101.85 194.86,266.04 z m -341.54,-372.89 c -1.36,0 -2.71,0.45 -3.84,1.35 -2.31,1.86 -2.95,5.1 -1.53,7.71 6.95,12.73 172.32,312.6 350.92,378.55 1.88,0.68 3.97,0.43 5.6,-0.71 1.64,-1.13 2.63,-2.99 2.65,-4.98 1.58,-178.89 -92.49,-228.48 -201.41,-285.91 -49.46,-26.07 -100.6,-53.03 -148.38,-94.51 -1.14,-1 -2.58,-1.5 -4.01,-1.5"
         style="fill:#e7e8e5;fill-opacity:1;fill-rule:nonzero;stroke:none"
         id="path66" /><path
         d="m 4132.55,2054.29 c 0,0 -23.04,218.11 -108.31,285.04 -45.73,-137.71 47.9,-185.19 108.31,-285.04"
         style="fill:#e7e8e5;fill-opacity:1;fill-rule:nonzero;stroke:none"
         id="path68" /><path
         d="m 4025.99,2333.38 c -30.22,-96.64 10.73,-147.67 58.02,-206.6 14.46,-18.02 29.33,-36.54 43.07,-57.33 -7.04,49.9 -33.95,206.17 -101.09,263.93 z m 106.56,-282.58 c -1.2,0 -2.34,0.62 -2.98,1.68 -15.72,25.99 -33.66,48.33 -51,69.94 -49.35,61.5 -91.98,114.61 -57.64,218.01 0.36,1.08 1.22,1.91 2.31,2.24 1.08,0.34 2.27,0.11 3.16,-0.6 85.44,-67.07 108.67,-278.45 109.62,-287.42 0.17,-1.62 -0.81,-3.15 -2.36,-3.67 l -1.11,-0.18"
         style="fill:#e7e8e5;fill-opacity:1;fill-rule:nonzero;stroke:none"
         id="path70" /><path
         d="m 4172.22,2201.17 c 0,0 90.45,201.68 192.78,237.42 -1.28,-145.09 -103.33,-162.48 -192.78,-237.42"
         style="fill:#e7e8e5;fill-opacity:1;fill-rule:nonzero;stroke:none"
         id="path72" /><path
         d="m 4361.43,2433.52 c -82.45,-33.11 -157.4,-175 -179.49,-220.02 19.04,14.79 38.31,27.34 57.06,39.56 64.18,41.79 119.75,77.98 122.43,180.46 z m -189.21,-235.84 -2.11,0.7 c -1.29,0.98 -1.74,2.73 -1.08,4.21 3.72,8.29 92.25,203.46 194.82,239.29 1.08,0.37 2.26,0.2 3.18,-0.45 0.92,-0.67 1.47,-1.74 1.46,-2.87 -0.98,-110.14 -58.76,-147.77 -125.68,-191.35 -22.52,-14.67 -45.81,-29.83 -68.35,-48.72 l -2.24,-0.81"
         style="fill:#e7e8e5;fill-opacity:1;fill-rule:nonzero;stroke:none"
         id="path74" /><path
         d="m 1560.4,2328.81 c -95.07,6.67 -136.19,-4.45 -177.3,81.12 -41.12,85.56 -184.46,131.36 -231.14,56.79 -46.67,-74.57 -63.34,-126.44 -171.12,-82.17 -107.793,44.27 -143.352,12.05 -158.906,-46.85 -15.555,-58.9 -262.246,-30.5 -190.02,-114.7 h 913.426 c 0,0 110.13,99.14 15.06,105.81"
         style="fill:#f3f2f1;fill-opacity:1;fill-rule:nonzero;stroke:none"
         id="path76" /><path
         d="m 4388.01,2785.95 c -53.79,3.77 -77.05,-2.52 -100.32,45.89 -23.26,48.41 -104.36,74.32 -130.77,32.13 -26.41,-42.19 -35.84,-71.53 -96.82,-46.49 -60.99,25.05 -81.11,6.82 -89.9,-26.5 -8.81,-33.33 -148.38,-17.26 -107.52,-64.9 h 516.8 c 0,0 62.32,56.09 8.53,59.87"
         style="fill:#f3f2f1;fill-opacity:1;fill-rule:nonzero;stroke:none"
         id="path78" /><path
         d="m 3744.17,3958.43 c -26.68,43.35 -102.95,57.8 -171.2,24.09 -68.25,-33.73 -21.76,177.52 -149.34,142.11 -182.26,-50.59 -131.5,-201.74 -207.44,-187.87 -75.94,13.87 -298.53,-23.3 -180.84,-98.77 h 673.53 c 0,0 61.96,77.08 35.29,120.44"
         style="fill:#f3f2f1;fill-opacity:1;fill-rule:nonzero;stroke:none"
         id="path80" /><path
         d="M 4438.89,113.23 C 4438.89,50.6914 3570.83,-0.0117188 2500,-0.0117188 1429.18,-0.0117188 561.109,50.6914 561.109,113.23 c 0,62.532 868.071,113.231 1938.891,113.231 1070.83,0 1938.89,-50.699 1938.89,-113.231"
         style="fill:#f3f2f1;fill-opacity:1;fill-rule:nonzero;stroke:none"
         id="path82" /><path
         d="m 814.645,3020.37 h 17.293 v 1255.24 h -17.293 z"
         style="fill:#406fbf;fill-opacity:1;fill-rule:nonzero;stroke:none"
         id="path84" /><path
         d="m 1830.85,3020.37 h 17.2891 V 4275.61 H 1830.85 Z"
         style="fill:#406fbf;fill-opacity:1;fill-rule:nonzero;stroke:none"
         id="path86" /><path
         d="m 617.973,3163.12 h 1426.84 v 324.594 H 617.973 Z"
         style="fill:#406fbf;fill-opacity:1;fill-rule:nonzero;stroke:none"
         id="path88" /><path
         d="M 2044.81,3163.12 H 617.973 v 324.59 H 2044.81 v -324.59 m -594.69,209.71 v -94.82 h 512.9 v 94.82 h -512.9 m -297.26,0 v -94.82 h 219.67 v 94.82 h -219.67"
         style="fill:#6d97d6;fill-opacity:1;fill-rule:nonzero;stroke:none"
         id="path90" /><path
         d="m 792.938,3349.87 -35.372,35.37 h -48.878 l 42.55,-42.55 h -85.707 v -34.54 h 85.746 l -42.589,-42.53 h 48.878 l 35.372,35.37 24.398,24.49 -24.398,24.39"
         style="fill:#ffffff;fill-opacity:1;fill-rule:nonzero;stroke:none"
         id="path92" /><path
         d="m 1450.12,3278.01 h 512.898 v 94.8164 H 1450.12 Z"
         style="fill:#4c78c5;fill-opacity:1;fill-rule:nonzero;stroke:none"
         id="path94" /><path
         d="m 1152.86,3278.01 h 219.672 v 94.8164 H 1152.86 Z"
         style="fill:#4c78c5;fill-opacity:1;fill-rule:nonzero;stroke:none"
         id="path96" /><path
         d="M 1072.12,3228.69 H 878.652 v 193.46 h 193.468 v -193.46"
         style="fill:#ffffff;fill-opacity:1;fill-rule:nonzero;stroke:none"
         id="path98" /><path
         d="m 1050.25,3372.81 -4.83,0.02 -1.82,-0.06 h -0.13 l -0.02,-0.01 c -3.99,-0.26 -7.9,-1.31 -11.49,-3.1 l -29.92,-15.01 -56.243,9.37 c -4.766,0.61 -9.606,-0.18 -13.938,-2.26 l -5.332,-2.56 36.661,-25.65 -34.09,-16.02 -22.555,6.51 -10.043,-4.84 26.438,-20.02 55.539,26.71 31.853,15.33 31.64,15.22 c 2.38,1.15 4.58,2.6 6.57,4.31 l 0.38,0.34 -0.02,-0.01 c 1.76,1.58 3.35,3.35 4.71,5.31 1.86,2.72 -0.07,6.42 -3.36,6.42"
         style="fill:#17282f;fill-opacity:1;fill-rule:nonzero;stroke:none"
         id="path100" /><path
         d="M 1058.9,3251.81 H 891.879 v 16.25 H 1058.9 v -16.25"
         style="fill:#17282f;fill-opacity:1;fill-rule:nonzero;stroke:none"
         id="path102" /><path
         d="m 617.973,2742.04 h 1426.84 v 324.59 H 617.973 Z"
         style="fill:#406fbf;fill-opacity:1;fill-rule:nonzero;stroke:none"
         id="path104" /><path
         d="M 2044.81,2742.04 H 617.973 v 324.59 H 2044.81 v -324.59 m -594.69,209.7 v -94.81 h 512.9 v 94.81 h -512.9 m -297.26,0 v -94.81 h 219.67 v 94.81 h -219.67"
         style="fill:#6d97d6;fill-opacity:1;fill-rule:nonzero;stroke:none"
         id="path106" /><path
         d="m 689.926,2928.79 35.371,35.36 h 48.883 l -42.555,-42.55 h 85.711 v -34.53 h -85.75 l 42.594,-42.53 h -48.883 l -35.371,35.37 -24.395,24.48 24.395,24.4"
         style="fill:#ffffff;fill-opacity:1;fill-rule:nonzero;stroke:none"
         id="path108" /><path
         d="m 1450.12,2856.93 h 512.898 v 94.8086 H 1450.12 Z"
         style="fill:#4c78c5;fill-opacity:1;fill-rule:nonzero;stroke:none"
         id="path110" /><path
         d="m 1152.86,2856.93 h 219.672 v 94.8086 H 1152.86 Z"
         style="fill:#4c78c5;fill-opacity:1;fill-rule:nonzero;stroke:none"
         id="path112" /><path
         d="M 1072.12,2807.6 H 878.652 v 193.47 H 1072.12 V 2807.6"
         style="fill:#ffffff;fill-opacity:1;fill-rule:nonzero;stroke:none"
         id="path114" /><path
         d="m 1050.25,2951.73 -4.83,0.01 -1.82,-0.05 -0.13,-0.01 -0.02,-0.01 c -3.99,-0.25 -7.9,-1.3 -11.49,-3.1 l -29.92,-15.01 -56.243,9.38 c -4.766,0.6 -9.606,-0.18 -13.938,-2.27 l -5.332,-2.56 36.661,-25.64 -34.09,-16.03 -22.555,6.51 -10.043,-4.83 26.438,-20.03 55.539,26.72 31.853,15.33 31.64,15.22 c 2.38,1.14 4.58,2.59 6.57,4.31 l 0.38,0.33 -0.02,-0.01 c 1.76,1.58 3.35,3.36 4.71,5.32 1.86,2.72 -0.07,6.41 -3.36,6.42"
         style="fill:#17282f;fill-opacity:1;fill-rule:nonzero;stroke:none"
         id="path116" /><path
         d="M 1058.9,2830.73 H 891.879 v 16.24 H 1058.9 v -16.24"
         style="fill:#17282f;fill-opacity:1;fill-rule:nonzero;stroke:none"
         id="path118" /><path
         d="m 3270.39,3170.34 -81.32,48.59 47.33,9.27 125.98,-24.98 -91.99,-32.88"
         style="fill:#406fbf;fill-opacity:1;fill-rule:nonzero;stroke:none"
         id="path120" /><path
         d="m 3261.43,3175.69 -72.36,43.24 47.33,9.27 85.83,-17.02 -55.78,-12.65 -5.02,-22.84"
         style="fill:#3665b9;fill-opacity:1;fill-rule:nonzero;stroke:none"
         id="path122" /><path
         d="m 3832.85,3319.28 -98.98,124.18 36.6,7.18 c 29.7,5.81 60.44,2.91 88.53,-8.35 l 191.37,-76.76 -217.52,-46.25"
         style="fill:#406fbf;fill-opacity:1;fill-rule:nonzero;stroke:none"
         id="path124" /><path
         d="m 3827.65,3325.8 -93.78,117.66 36.6,7.18 c 9.98,1.95 20.07,2.92 30.14,2.92 19.91,0 39.74,-3.79 58.39,-11.27 l 174.2,-69.87 -205.55,-46.62"
         style="fill:#3665b9;fill-opacity:1;fill-rule:nonzero;stroke:none"
         id="path126" /><path
         d="m 4351.43,3408.36 -29.38,7.73 c -28.48,7.5 -58.31,8.21 -87.11,2.08 l -968.49,-219.64 -9.17,-41.75 37.79,-26.95 979.88,191.87 c 32.1,6.29 62,20.84 86.76,42.2 15.71,13.56 9.78,39.17 -10.28,44.46"
         style="fill:#406fbf;fill-opacity:1;fill-rule:nonzero;stroke:none"
         id="path128" /><path
         d="m 3336.34,3009.24 -1.09,5.15 423.95,90.32 1.09,-5.14 -423.95,-90.33"
         style="fill:#406fbf;fill-opacity:1;fill-rule:nonzero;stroke:none"
         id="path130" /><path
         d="m 3429.18,3312.93 -1.09,5.15 276.33,58.88 1.1,-5.15 -276.34,-58.88"
         style="fill:#406fbf;fill-opacity:1;fill-rule:nonzero;stroke:none"
         id="path132" /><path
         d="m 3143.55,2968.17 -1.09,5.15 113.6,24.2 1.09,-5.15 -113.6,-24.2"
         style="fill:#406fbf;fill-opacity:1;fill-rule:nonzero;stroke:none"
         id="path134" /><path
         d="m 3286.65,3129.03 c -1.89,0 -3.77,0.13 -5.63,0.38 2.84,1.68 5.87,3 9.09,3.96 l 4.93,-3.52 c -2.82,-0.55 -5.62,-0.82 -8.39,-0.82"
         style="fill:#b2baba;fill-opacity:1;fill-rule:nonzero;stroke:none"
         id="path136" /><path
         d="m 3295.04,3129.85 -4.93,3.52 c 1.09,0.32 2.21,0.6 3.35,0.84 l 546.66,116.46 -0.76,-14.23 -544.26,-106.58 c -0.02,0 -0.04,0 -0.06,-0.01 m 762.88,149.39 11.23,20.21 181.49,38.66 c 12.89,2.76 26,4.13 39.09,4.13 11.71,0 23.42,-1.1 34.95,-3.29 -1.18,-0.59 -2.42,-1.19 -3.61,-1.78 -14.57,-7.1 -30.09,-12.3 -46.16,-15.44 l -216.99,-42.49"
         style="fill:#3665b9;fill-opacity:1;fill-rule:nonzero;stroke:none"
         id="path138" /><path
         d="m 3257.28,3156.78 -24.6,-103.89 47.32,9.27 86.14,112.49 -108.86,-17.87"
         style="fill:#406fbf;fill-opacity:1;fill-rule:nonzero;stroke:none"
         id="path140" /><path
         d="m 3266.45,3198.53 -57.47,103.9 44.17,8.64 127.22,-90.24 -113.92,-22.3"
         style="fill:#406fbf;fill-opacity:1;fill-rule:nonzero;stroke:none"
         id="path142" /><path
         d="m 3841.43,3275.4 -15.94,-299.79 c 45.37,8.88 84.52,37.33 106.97,77.75 l 149.49,269.14 -240.52,-47.1"
         style="fill:#406fbf;fill-opacity:1;fill-rule:nonzero;stroke:none"
         id="path144" /><path
         d="m 3585.05,3214.56 -4.53,22.08 12.1,2.49 4.53,-22.09 -12.1,-2.48"
         style="fill:#90b4e3;fill-opacity:1;fill-rule:nonzero;stroke:none"
         id="path146" /><path
         d="m 3609.47,3219.57 -4.53,22.08 12.1,2.48 4.53,-22.08 -12.1,-2.48"
         style="fill:#90b4e3;fill-opacity:1;fill-rule:nonzero;stroke:none"
         id="path148" /><path
         d="m 3633.88,3224.57 -4.53,22.08 12.11,2.49 4.52,-22.09 -12.1,-2.48"
         style="fill:#90b4e3;fill-opacity:1;fill-rule:nonzero;stroke:none"
         id="path150" /><path
         d="m 3658.3,3229.57 -4.53,22.09 12.1,2.48 4.53,-22.08 -12.1,-2.49"
         style="fill:#90b4e3;fill-opacity:1;fill-rule:nonzero;stroke:none"
         id="path152" /><path
         d="m 3682.71,3234.58 -4.52,22.08 12.09,2.49 4.53,-22.09 -12.1,-2.48"
         style="fill:#90b4e3;fill-opacity:1;fill-rule:nonzero;stroke:none"
         id="path154" /><path
         d="m 3707.13,3239.58 -4.53,22.09 12.1,2.48 4.53,-22.08 -12.1,-2.49"
         style="fill:#90b4e3;fill-opacity:1;fill-rule:nonzero;stroke:none"
         id="path156" /><path
         d="m 3731.54,3244.59 -4.52,22.08 12.1,2.48 4.52,-22.08 -12.1,-2.48"
         style="fill:#90b4e3;fill-opacity:1;fill-rule:nonzero;stroke:none"
         id="path158" /><path
         d="m 3755.96,3249.6 -4.52,22.08 12.09,2.48 4.53,-22.08 -12.1,-2.48"
         style="fill:#90b4e3;fill-opacity:1;fill-rule:nonzero;stroke:none"
         id="path160" /><path
         d="m 3780.38,3254.6 -4.53,22.09 12.1,2.47 4.52,-22.08 -12.09,-2.48"
         style="fill:#90b4e3;fill-opacity:1;fill-rule:nonzero;stroke:none"
         id="path162" /><path
         d="m 3804.79,3259.61 -4.53,22.09 12.1,2.48 4.53,-22.09 -12.1,-2.48"
         style="fill:#90b4e3;fill-opacity:1;fill-rule:nonzero;stroke:none"
         id="path164" /><path
         d="m 3829.21,3264.61 -4.53,22.09 12.1,2.48 4.28,-20.88 -0.07,-1.27 -11.78,-2.42"
         style="fill:#90b4e3;fill-opacity:1;fill-rule:nonzero;stroke:none"
         id="path166" /><path
         d="m 3840.99,3267.03 0.07,1.27 0.24,-1.21 -0.31,-0.06"
         style="fill:#90b4e3;fill-opacity:1;fill-rule:nonzero;stroke:none"
         id="path168" /><path
         d="m 3852.01,3277.48 -2.91,14.22 12.1,2.48 2.93,-14.33 -12.12,-2.37"
         style="fill:#90b4e3;fill-opacity:1;fill-rule:nonzero;stroke:none"
         id="path170" /><path
         d="m 3853.62,3269.62 -1.61,7.86 12.12,2.37 1.59,-7.75 -12.1,-2.48"
         style="fill:#90b4e3;fill-opacity:1;fill-rule:nonzero;stroke:none"
         id="path172" /><path
         d="m 3876.47,3282.27 -2.96,14.44 12.1,2.48 2.98,-14.55 -12.12,-2.37"
         style="fill:#90b4e3;fill-opacity:1;fill-rule:nonzero;stroke:none"
         id="path174" /><path
         d="m 3878.04,3274.62 -1.57,7.65 12.12,2.37 1.55,-7.53 -12.1,-2.49"
         style="fill:#90b4e3;fill-opacity:1;fill-rule:nonzero;stroke:none"
         id="path176" /><path
         d="m 3900.93,3287.05 -3,14.66 12.09,2.49 3.03,-14.77 -12.12,-2.38"
         style="fill:#90b4e3;fill-opacity:1;fill-rule:nonzero;stroke:none"
         id="path178" /><path
         d="m 3902.46,3279.63 -1.53,7.42 12.12,2.38 1.5,-7.32 -12.09,-2.48"
         style="fill:#90b4e3;fill-opacity:1;fill-rule:nonzero;stroke:none"
         id="path180" /><path
         d="m 3925.39,3291.85 -3.05,14.87 12.1,2.48 3.07,-14.98 -12.12,-2.37"
         style="fill:#90b4e3;fill-opacity:1;fill-rule:nonzero;stroke:none"
         id="path182" /><path
         d="m 3926.87,3284.63 -1.48,7.22 12.12,2.37 1.46,-7.11 -12.1,-2.48"
         style="fill:#90b4e3;fill-opacity:1;fill-rule:nonzero;stroke:none"
         id="path184" /><path
         d="m 3949.85,3296.64 -3.09,15.08 12.1,2.48 3.11,-15.19 -12.12,-2.37"
         style="fill:#90b4e3;fill-opacity:1;fill-rule:nonzero;stroke:none"
         id="path186" /><path
         d="m 3951.28,3289.64 -1.43,7 12.12,2.37 1.41,-6.89 -12.1,-2.48"
         style="fill:#90b4e3;fill-opacity:1;fill-rule:nonzero;stroke:none"
         id="path188" /><path
         d="m 3974.31,3301.43 -3.13,15.3 12.09,2.48 3.16,-15.41 -12.12,-2.37"
         style="fill:#90b4e3;fill-opacity:1;fill-rule:nonzero;stroke:none"
         id="path190" /><path
         d="m 3975.7,3294.65 -1.39,6.78 12.12,2.37 1.37,-6.67 -12.1,-2.48"
         style="fill:#90b4e3;fill-opacity:1;fill-rule:nonzero;stroke:none"
         id="path192" /><path
         d="m 3998.77,3306.21 -3.18,15.53 12.1,2.47 3.2,-15.62 -12.12,-2.38"
         style="fill:#90b4e3;fill-opacity:1;fill-rule:nonzero;stroke:none"
         id="path194" /><path
         d="m 4000.12,3299.65 -1.35,6.56 12.12,2.38 1.33,-6.46 -12.1,-2.48"
         style="fill:#90b4e3;fill-opacity:1;fill-rule:nonzero;stroke:none"
         id="path196" /><path
         d="m 4023.23,3311 -3.23,15.74 12.1,2.48 3.25,-15.84 -12.12,-2.38"
         style="fill:#90b4e3;fill-opacity:1;fill-rule:nonzero;stroke:none"
         id="path198" /><path
         d="m 4024.53,3304.66 -1.3,6.34 12.12,2.38 1.28,-6.24 -12.1,-2.48"
         style="fill:#90b4e3;fill-opacity:1;fill-rule:nonzero;stroke:none"
         id="path200" /><path
         d="m 4047.69,3315.8 -3.27,15.95 12.1,2.48 3.29,-16.06 -12.12,-2.37"
         style="fill:#90b4e3;fill-opacity:1;fill-rule:nonzero;stroke:none"
         id="path202" /><path
         d="m 4048.95,3309.66 -1.26,6.14 12.12,2.37 1.23,-6.03 -12.09,-2.48"
         style="fill:#90b4e3;fill-opacity:1;fill-rule:nonzero;stroke:none"
         id="path204" /><path
         d="m 4078.14,3315.65 3.81,6.85 -9.8,-1.91 -3.31,16.16 12.1,2.48 4.52,-22.08 -7.32,-1.5"
         style="fill:#90b4e3;fill-opacity:1;fill-rule:nonzero;stroke:none"
         id="path206" /><path
         d="m 4073.36,3314.67 -1.21,5.92 9.8,1.91 -3.81,-6.85 -4.78,-0.98"
         style="fill:#90b4e3;fill-opacity:1;fill-rule:nonzero;stroke:none"
         id="path208" /><path
         d="m 4097.78,3319.67 -4.53,22.09 12.1,2.48 4.53,-22.09 -12.1,-2.48"
         style="fill:#90b4e3;fill-opacity:1;fill-rule:nonzero;stroke:none"
         id="path210" /><path
         d="m 4315.1,3417.78 c -1.69,0.38 -3.39,0.74 -5.1,1.06 l 0.04,0.01 c 1.7,-0.33 3.38,-0.69 5.06,-1.07"
         style="fill:#ffffff;fill-opacity:1;fill-rule:nonzero;stroke:none"
         id="path212" /><path
         d="m 4268.87,3388.21 c -5.23,0 -9.94,3.75 -10.98,9.07 -1.18,6.02 2.77,11.9 8.8,13.09 l 43.31,8.47 c 1.71,-0.32 3.41,-0.68 5.1,-1.06 2.32,-0.52 4.63,-1.09 6.92,-1.69 l 29.42,-7.75 c 2.5,-0.66 4.69,-1.6 6.74,-2.86 l -87.19,-17.07 c -0.71,-0.14 -1.42,-0.2 -2.12,-0.2"
         style="fill:#90b4e3;fill-opacity:1;fill-rule:nonzero;stroke:none"
         id="path214" /><path
         d="m 2780.49,2926.69 c 122.29,-264.29 422.07,-408.1 109.56,-554.17 -312.5,-146.06 -343.37,254.04 -334.27,375.91 9.11,121.88 158.63,321.08 224.71,178.26"
         style="fill:#17282f;fill-opacity:1;fill-rule:nonzero;stroke:none"
         id="path216" /><path
         d="m 3013.35,2551 -0.53,0.05 c -1.37,0.3 -2.25,1.65 -1.96,3.03 16.17,76.01 -40.49,132.26 -106.09,197.39 -48.9,48.54 -104.32,103.56 -133.57,174.25 -14.34,34.66 -33.7,49.7 -57.47,44.82 -63.9,-13.21 -135.8,-159.94 -134.47,-245.71 0.02,-1.4 -1.11,-2.56 -2.51,-2.58 -1.44,0.08 -2.57,1.1 -2.59,2.51 -1.34,87.42 72.72,237.16 138.54,250.77 18.23,3.78 44.01,-1.47 63.21,-47.86 28.86,-69.75 83.89,-124.38 132.44,-172.59 66.67,-66.17 124.24,-123.33 107.49,-202.07 -0.25,-1.19 -1.31,-2.01 -2.49,-2.01"
         style="fill:#17282f;fill-opacity:1;fill-rule:nonzero;stroke:none"
         id="path218" /><path
         d="m 2543.45,2834.99 c 30.75,-20.85 83.54,59.51 108.92,164.68 -63.48,52.33 -102.06,44.2 -127.47,-1.57 -29.63,-53.38 -16.64,-139.24 18.55,-163.11"
         style="fill:#17282f;fill-opacity:1;fill-rule:nonzero;stroke:none"
         id="path220" /><path
         d="m 2438.29,1178.64 c 0,0 429.12,87.41 741.62,14.23 -91.71,137.41 -480.59,746.17 -480.59,746.17 l -184.87,-219.83 -76.16,-540.57"
         style="fill:#406fbf;fill-opacity:1;fill-rule:nonzero;stroke:none"
         id="path222" /><path
         d="m 2438.29,1178.64 v 0 0 0 m 0,0 c 0,0 16.03,21.12 46.13,41.34 1.22,-10.85 2.55,-21.62 4,-32.33 -31.83,-5.28 -50.13,-9.01 -50.13,-9.01 m 741.62,14.23 v 0 0 0 m 0,0 c -92.22,21.59 -194.59,29.2 -293.09,29.2 -63.88,0 -126.15,-3.2 -182.94,-7.86 -7.4,201.97 21.62,437.23 48.98,606.88 16.33,-166.34 45.9,-358.24 98.76,-561.42 227.52,-1.29 328.29,-66.8 328.29,-66.8"
         style="fill:#3563b7;fill-opacity:1;fill-rule:nonzero;stroke:none"
         id="path224" /><path
         d="m 2571.87,2502.27 c -6.68,-29.36 -14.17,-56.01 -22.69,-83.59 -8.45,-27.32 -17.79,-54.46 -28.2,-81.46 -10.49,-26.98 -21.71,-53.93 -35.02,-80.67 -13.22,-26.82 -27.7,-53.56 -46.97,-80.33 -2.33,-3.34 -4.8,-6.69 -7.46,-10.07 -2.67,-3.42 -4.76,-6.35 -8.97,-11.09 -3.75,-4.42 -7.56,-8.48 -11.34,-11.92 -3.82,-3.76 -7.62,-7.04 -11.39,-10.02 -15.18,-12.25 -30.18,-20.89 -44.82,-28.51 -29.24,-15.16 -57.93,-24.61 -86.36,-33.08 -28.53,-7.97 -56.82,-14.22 -85.22,-18.85 -28.55,-4.66 -56.37,-8.09 -85.94,-9.53 l -13.35,69.4 c 49.42,19.07 100.37,38.52 146.37,60.92 22.98,10.99 45.14,23.15 63.45,35.76 9.08,6.28 17.04,13.01 22.59,18.87 1.5,1.46 2.75,2.85 3.62,4.12 1.21,1.32 1.89,2.47 2.4,3.44 l 3.43,5.4 c 1.41,2.18 2.8,4.5 4.17,6.97 11.03,19.2 21.41,41.77 30.94,65 9.4,23.39 18.36,47.68 26.61,72.43 8.32,24.73 16.22,49.88 23.79,75.19 7.49,25.06 15.04,51.37 21.74,75.38 l 138.62,-33.76"
         style="fill:#406fbf;fill-opacity:1;fill-rule:nonzero;stroke:none"
         id="path226" /><path
         d="m 2099.94,2102.76 -80.73,-4.19 45.78,-82.78 c 0,0 51.67,18.4 64.35,69.16 l -29.4,17.81"
         style="fill:#f9a8b3;fill-opacity:1;fill-rule:nonzero;stroke:none"
         id="path228" /><path
         d="m 1959.69,2045.72 65.32,-51.37 39.98,21.44 -45.78,82.78 -59.52,-52.85"
         style="fill:#f9a8b3;fill-opacity:1;fill-rule:nonzero;stroke:none"
         id="path230" /><path
         d="m 2767.26,188.711 -90.42,-8.539 -18.62,208.117 90.41,8.551 18.63,-208.129"
         style="fill:#f9a8b3;fill-opacity:1;fill-rule:nonzero;stroke:none"
         id="path232" /><path
         d="m 3475.88,496.398 -65.67,-61.66 -141.78,155.821 65.67,61.671 141.78,-155.832"
         style="fill:#f9a8b3;fill-opacity:1;fill-rule:nonzero;stroke:none"
         id="path234" /><path
         d="m 3392.22,450.762 49.35,88.918 c 1.79,3.238 5.5,4.621 8.91,3.32 l 75.98,-28.922 c 7.88,-3 11.3,-13.109 7.03,-20.5 -17.74,-30.699 -27.86,-44.637 -49.56,-83.738 -13.35,-24.051 -39.35,-79.231 -57.79,-112.449 -18.03,-32.5 -52.27,-16.762 -47.57,-1.282 21.09,69.43 17.12,108.082 11.17,138.719 -1.07,5.531 -0.16,11.203 2.48,15.934"
         style="fill:#17282f;fill-opacity:1;fill-rule:nonzero;stroke:none"
         id="path236" /><path
         d="m 2664.83,207.191 h 107.39 c 3.9,0 7.43,-2.722 8.48,-6.531 l 23.35,-84.969 c 2.42,-8.812 -4.06,-16.9215 -13.1,-16.9918 -37.84,-0.3476 -55.78,-0.1797 -103.01,-0.1797 -29.05,0 -104.22,0 -144.34,0 -39.24,0 -47.45,39.6715 -31.21,43.2615 72.8,16.117 114.77,38.328 137.23,59.528 4.05,3.82 9.49,5.882 15.21,5.882"
         style="fill:#17282f;fill-opacity:1;fill-rule:nonzero;stroke:none"
         id="path238" /><path
         d="M 2759.04,280.961 H 2759 l -3.07,34.309 h 0.04 l 3.07,-34.309"
         style="fill:#c3c5c2;fill-opacity:1;fill-rule:nonzero;stroke:none"
         id="path240" /><path
         d="m 2759,280.961 h -91.18 l -2.85,31.969 90.96,2.34 3.07,-34.309"
         style="fill:#d8898c;fill-opacity:1;fill-rule:nonzero;stroke:none"
         id="path242" /><path
         d="m 3297.9,558.172 -29.45,32.34 0.01,0.008 29.44,-32.348 m 109.32,13.687 -73.08,80.321 0.01,0.019 73.12,-80.289 -0.05,-0.051"
         style="fill:#c3c5c2;fill-opacity:1;fill-rule:nonzero;stroke:none"
         id="path244" /><path
         d="m 3341.57,510.219 -43.67,47.953 -29.44,32.348 65.68,61.66 73.08,-80.321 -65.65,-61.64"
         style="fill:#d8898c;fill-opacity:1;fill-rule:nonzero;stroke:none"
         id="path246" /><path
         d="m 2431.42,2498.78 c 5.99,-67.97 28.61,-202.86 96.17,-470.26 l 366.28,31.68 c -17.6,137.29 -25.87,226.2 8.35,485.3 4.92,37.29 -22.79,71.15 -60.34,73.22 -26.02,1.43 -56.78,2.25 -87.69,1.07 -61.89,-2.36 -112.56,-4.77 -166.32,-14.4 -33.18,-5.94 -68.79,-14.61 -97.27,-22.16 -37.7,-9.98 -62.6,-45.6 -59.18,-84.45"
         style="fill:#17282f;fill-opacity:1;fill-rule:nonzero;stroke:none"
         id="path248" /><path
         d="m 2721.51,2805.64 c -5.86,-54.42 -7.85,-153.38 32.68,-185.85 0,0 3.23,-56.22 -110.97,-74.59 -80.16,6.83 -55.35,60.19 -55.35,60.19 58.44,19.42 53.07,63.56 39.08,104.24 l 94.56,96.01"
         style="fill:#f9a8b3;fill-opacity:1;fill-rule:nonzero;stroke:none"
         id="path250" /><path
         d="m 2634.67,2680.61 c -0.11,0.72 -0.23,1.45 -0.36,2.17 0.13,-0.72 0.26,-1.45 0.38,-2.17 0,0 -0.01,0 -0.02,0 m -7.68,29.07 v 0 l 6.05,6.14 -6.05,-6.14"
         style="fill:#111d23;fill-opacity:1;fill-rule:nonzero;stroke:none"
         id="path252" /><path
         d="m 2634.69,2680.61 c -0.12,0.72 -0.25,1.45 -0.38,2.17 -1.59,8.94 -4.22,18 -7.32,26.9 l 6.05,6.14 49.92,50.65 c 2.42,-5.38 7.35,-21.12 7.17,-33.13 -0.35,-24.07 -32.93,-47.46 -55.44,-52.73"
         style="fill:#d8898c;fill-opacity:1;fill-rule:nonzero;stroke:none"
         id="path254" /><path
         d="m 2769.38,2890.67 c -22.7,-86.93 -30.44,-124.21 -83.76,-160.63 -80.2,-54.79 -182.01,-7.9 -185.74,84.06 -3.35,82.76 34.33,211.02 127.35,229.1 91.63,17.82 164.85,-65.61 142.15,-152.53"
         style="fill:#f9a8b3;fill-opacity:1;fill-rule:nonzero;stroke:none"
         id="path256" /><path
         d="m 2579.23,3050.15 c -36.9,-37.08 40.21,-130.75 168.16,-213.4 99.07,60.01 65.12,140.4 19.82,185.97 -44.43,44.69 -145.74,69.87 -187.98,27.43"
         style="fill:#17282f;fill-opacity:1;fill-rule:nonzero;stroke:none"
         id="path258" /><path
         d="m 2613.75,2953.81 -1.8,0.75 c -40.8,40.73 -56.69,71.62 -47.24,91.82 13.9,29.73 76.65,24.37 79.31,24.13 1.4,-0.13 2.44,-1.37 2.31,-2.77 -0.13,-1.4 -1.32,-2.42 -2.77,-2.31 -0.62,0.05 -61.85,5.28 -74.24,-21.21 -8.32,-17.8 7.67,-47.56 46.24,-86.06 0.99,-0.99 0.99,-2.6 0,-3.6 l -1.81,-0.75"
         style="fill:#17282f;fill-opacity:1;fill-rule:nonzero;stroke:none"
         id="path260" /><path
         d="m 2776.57,2812.2 c -8.55,-16.55 -23.95,-27.61 -38.61,-32.01 -22.04,-6.64 -33.52,12.97 -27.77,34.01 5.17,18.94 22.87,45.22 45.18,42.65 21.98,-2.54 30.97,-25.73 21.2,-44.65"
         style="fill:#f9a8b3;fill-opacity:1;fill-rule:nonzero;stroke:none"
         id="path262" /><path
         d="m 2527.59,2028.52 c 0,0 -105.79,-547.82 -23.06,-934.31 55.4,-258.851 126.45,-782.151 126.45,-782.151 l 156.23,4.011 c 0,0 -40.62,548.75 -71.89,764.56 -53.49,369.16 80.49,971.09 80.49,971.09 l -268.22,-23.2"
         style="fill:#17282f;fill-opacity:1;fill-rule:nonzero;stroke:none"
         id="path264" /><path
         d="m 2703.92,1353.32 c -109.86,196.67 -57.85,460.38 -33.43,564.5 l 78.12,-123.2 c -19.88,-127.75 -39.65,-287.54 -44.69,-441.3"
         style="fill:#111d23;fill-opacity:1;fill-rule:nonzero;stroke:none"
         id="path266" /><path
         d="m 2617.23,306.012 184.07,0.5 -0.56,61.629 -194.92,2.55 11.41,-64.679"
         style="fill:#406fbf;fill-opacity:1;fill-rule:nonzero;stroke:none"
         id="path268" /><path
         d="m 2607.68,2034.36 c 0,0 72.7,-581.39 230.29,-898.79 127.29,-256.371 466.95,-621.32 466.95,-621.32 l 86.85,89.469 c 0,0 -229.43,396.621 -324.03,566.921 -231.97,417.58 -42.39,736.23 -173.87,889.56 l -286.19,-25.84"
         style="fill:#17282f;fill-opacity:1;fill-rule:nonzero;stroke:none"
         id="path270" /><path
         d="m 3296.12,502.281 112.07,109.239 -37.17,50.589 -118.85,-118.629 43.95,-41.199"
         style="fill:#406fbf;fill-opacity:1;fill-rule:nonzero;stroke:none"
         id="path272" /><path
         d="m 2897.5,2082.17 19.35,-31.36 c 1.5,-2.43 -1.28,-5.29 -5.52,-5.65 l -384.13,-33.23 c -3.3,-0.28 -6.17,1.1 -6.56,3.16 l -6.14,32.5 c -0.43,2.25 2.27,4.42 5.88,4.73 l 370.91,32.08 c 2.73,0.24 5.24,-0.67 6.21,-2.23"
         style="fill:#ffffff;fill-opacity:1;fill-rule:nonzero;stroke:none"
         id="path274" /><path
         d="m 2851.27,2036.39 9.94,0.86 c 1.97,0.17 3.39,1.31 3.15,2.55 l -8.34,42.19 c -0.25,1.24 -2.06,2.11 -4.05,1.94 l -9.93,-0.86 c -1.98,-0.17 -3.4,-1.32 -3.15,-2.56 l 8.34,-42.19 c 0.25,-1.24 2.06,-2.1 4.04,-1.93"
         style="fill:#17282f;fill-opacity:1;fill-rule:nonzero;stroke:none"
         id="path276" /><path
         d="m 2555.43,2010.8 9.93,0.85 c 1.98,0.18 3.4,1.33 3.16,2.56 l -8.35,42.2 c -0.24,1.23 -2.06,2.1 -4.04,1.93 l -9.93,-0.86 c -1.98,-0.17 -3.4,-1.32 -3.15,-2.55 l 8.34,-42.2 c 0.24,-1.23 2.06,-2.11 4.04,-1.93"
         style="fill:#17282f;fill-opacity:1;fill-rule:nonzero;stroke:none"
         id="path278" /><path
         d="m 2703.35,2023.59 9.94,0.86 c 1.97,0.17 3.39,1.32 3.15,2.56 l -8.34,42.19 c -0.25,1.23 -2.07,2.1 -4.05,1.93 l -9.93,-0.86 c -1.98,-0.17 -3.4,-1.32 -3.15,-2.55 l 8.34,-42.19 c 0.25,-1.24 2.06,-2.11 4.04,-1.94"
         style="fill:#17282f;fill-opacity:1;fill-rule:nonzero;stroke:none"
         id="path280" /><path
         d="m 2622.24,2893.65 c -1.41,-7.17 -6.35,-12.22 -11.03,-11.31 -4.69,0.93 -7.34,7.48 -5.94,14.64 1.41,7.17 6.35,12.23 11.03,11.31 4.69,-0.92 7.34,-7.47 5.94,-14.64"
         style="fill:#17282f;fill-opacity:1;fill-rule:nonzero;stroke:none"
         id="path282" /><path
         d="m 2541.25,2909.57 c -1.4,-7.16 -6.34,-12.23 -11.03,-11.3 -4.68,0.91 -7.33,7.47 -5.92,14.63 1.4,7.17 6.34,12.23 11.03,11.31 4.68,-0.92 7.33,-7.48 5.92,-14.64"
         style="fill:#17282f;fill-opacity:1;fill-rule:nonzero;stroke:none"
         id="path284" /><path
         d="m 2537.31,2923.4 -16.23,8.35 c 0,0 6.19,-15.18 16.23,-8.35"
         style="fill:#17282f;fill-opacity:1;fill-rule:nonzero;stroke:none"
         id="path286" /><path
         d="m 2569.1,2891.71 c 0,0 -18.23,-28.45 -34.53,-40.7 7.72,-10.69 24.6,-9.81 24.6,-9.81 l 9.93,50.51"
         style="fill:#f46878;fill-opacity:1;fill-rule:nonzero;stroke:none"
         id="path288" /><path
         d="m 2592.29,2807.05 c 25.37,0 40.11,14.8 40.82,15.53 l -0.03,2.52 -2.53,-0.03 c -0.19,-0.2 -19.44,-19.41 -50.96,-13.2 -1,0.22 -1.9,-0.44 -2.09,-1.4 -0.2,-0.97 0.44,-1.9 1.4,-2.09 4.74,-0.93 9.22,-1.33 13.39,-1.33"
         style="fill:#17282f;fill-opacity:1;fill-rule:nonzero;stroke:none"
         id="path290" /><path
         d="m 2670.88,2921.43 1.84,0.52 c 1.68,1.02 2.22,3.2 1.2,4.89 -12.07,19.97 -31.46,20.85 -32.28,20.87 -2.08,-0.07 -3.6,-1.47 -3.68,-3.42 -0.08,-1.96 1.45,-3.62 3.42,-3.7 0.67,-0.02 16.43,-0.88 26.44,-17.44 0.67,-1.1 1.85,-1.72 3.06,-1.72"
         style="fill:#17282f;fill-opacity:1;fill-rule:nonzero;stroke:none"
         id="path292" /><path
         d="m 2518.77,2950.13 1.73,0.45 c 17.05,9.52 31.46,2.15 31.6,2.08 1.75,-0.92 3.91,-0.24 4.81,1.49 0.92,1.74 0.25,3.9 -1.49,4.81 -0.73,0.4 -18.02,9.23 -38.39,-2.15 -1.72,-0.97 -2.33,-3.14 -1.38,-4.85 0.66,-1.17 1.87,-1.83 3.12,-1.83"
         style="fill:#17282f;fill-opacity:1;fill-rule:nonzero;stroke:none"
         id="path294" /><path
         d="m 2748.61,2630 c 0,0 -14.97,-96.54 -13.67,-253.93 0.85,-104.04 -25.61,-569.52 116.68,-1116.4 227.52,-1.29 328.29,-66.8 328.29,-66.8 0,0 -220.62,890.34 -248.54,1350.56 -2.79,45.86 -39.18,82.35 -85.03,85.23 -45.21,2.83 -97.73,1.34 -97.73,1.34"
         style="fill:#406fbf;fill-opacity:1;fill-rule:nonzero;stroke:none"
         id="path296" /><path
         d="m 2978.65,1871.62 -1.78,0.49 c -63.93,38.14 -129.36,145.12 -132.11,149.65 -1,1.64 -0.48,3.79 1.16,4.78 1.66,1 3.79,0.48 4.78,-1.16 0.67,-1.1 67.3,-110.04 129.73,-147.29 1.65,-0.99 2.2,-3.12 1.21,-4.77 -0.65,-1.1 -1.81,-1.7 -2.99,-1.7"
         style="fill:#ffffff;fill-opacity:1;fill-rule:nonzero;stroke:none"
         id="path298" /><path
         d="m 2967.58,2228.9 c -0.02,0.03 -0.04,0.06 -0.06,0.09 -9.1,59.79 -17.02,117.75 -23.3,172.5 0.04,0.03 0.07,0.05 0.11,0.07 6.17,-54.8 14.17,-112.81 23.25,-172.66"
         style="fill:#c3c5c2;fill-opacity:1;fill-rule:nonzero;stroke:none"
         id="path300" /><path
         d="m 2944.22,2401.49 c -0.14,1.23 -0.29,2.5 -0.43,3.73 l 0.15,-0.13 c 0.13,-1.17 0.26,-2.35 0.39,-3.53 -0.04,-0.02 -0.07,-0.04 -0.11,-0.07"
         style="fill:#111d23;fill-opacity:1;fill-rule:nonzero;stroke:none"
         id="path302" /><path
         d="m 2967.52,2228.99 c -65.18,101.19 -97.46,240.91 -97.46,240.91 l 73.73,-64.68 c 0.14,-1.23 0.29,-2.5 0.43,-3.73 6.28,-54.75 14.2,-112.71 23.3,-172.5"
         style="fill:#3563b7;fill-opacity:1;fill-rule:nonzero;stroke:none"
         id="path304" /><path
         d="m 2576.68,2612.29 c 0,0 -8.14,-96.38 -8.14,-344.28 0,-239.19 29.53,-583.75 -15.9,-1017.55 -73.59,-18.12 -114.35,-71.82 -114.35,-71.82 0,0 61.39,787.56 -9.16,1321.27 -6.09,46.07 28.03,87.87 73.71,96.46 44.39,8.34 73.84,15.92 73.84,15.92"
         style="fill:#406fbf;fill-opacity:1;fill-rule:nonzero;stroke:none"
         id="path306" /><path
         d="m 3288.41,1819.21 -220.35,-57.35 -20.38,78.32 220.34,57.35 20.39,-78.32"
         style="fill:#406fbf;fill-opacity:1;fill-rule:nonzero;stroke:none"
         id="path308" /><path
         d="m 3281.41,1846.09 -0.48,1.84 v 0 l 0.48,-1.84"
         style="fill:#ffffff;fill-opacity:1;fill-rule:nonzero;stroke:none"
         id="path310" /><path
         d="m 3064.26,1776.48 -3.67,14.1 220.34,57.35 0.48,-1.84 3.19,-12.26 -220.34,-57.35"
         style="fill:#cfe0f5;fill-opacity:1;fill-rule:nonzero;stroke:none"
         id="path312" /><path
         d="m 3277.96,1815.73 -189.05,-39.57 -19.51,93.21 189.06,39.57 19.5,-93.21"
         style="fill:#17282f;fill-opacity:1;fill-rule:nonzero;stroke:none"
         id="path314" /><path
         d="m 3094.23,1927.07 -15.62,-79.32 74.85,18.9 c 0,0 5.08,54.56 -25.69,76.21 l -33.54,-15.79"
         style="fill:#f9a8b3;fill-opacity:1;fill-rule:nonzero;stroke:none"
         id="path316" /><path
         d="m 3097.65,1806.4 75.27,7.33 -19.46,52.92 -74.85,-18.9 19.04,-41.35"
         style="fill:#f9a8b3;fill-opacity:1;fill-rule:nonzero;stroke:none"
         id="path318" /><path
         d="m 2903.88,2602.19 c 21.94,-22.66 41.42,-44.98 61.18,-68.35 19.44,-23.37 38.59,-47.03 56.76,-71.87 18.33,-24.75 36.04,-50.06 52.74,-77.19 8.33,-13.71 16.65,-27.23 24.21,-42.3 l 5.76,-11.05 5.5,-11.85 5.4,-11.92 c 1.79,-3.91 3.63,-9 5.39,-13.46 6.52,-17.96 10.6,-34.29 13.94,-50.46 3.32,-16.08 5.96,-31.79 8.16,-47.31 4.27,-31.05 6.8,-61.55 8.54,-91.9 3.2,-60.78 3.14,-120.47 -1.21,-181.14 l -70.56,-3.74 c -11.37,57.06 -22.05,114.9 -33.94,171.09 -5.91,28.13 -12.28,55.95 -19.31,82.79 -3.47,13.41 -7.25,26.49 -11.33,38.94 -4.13,12.34 -8.46,24.34 -12.96,33.74 -1.25,2.28 -1.97,4.12 -3.55,6.77 l -4.55,7.82 -4.56,7.85 -5.29,8.09 c -6.78,10.71 -14.77,21.8 -22.5,32.79 -15.91,22.02 -33.6,43.93 -51.28,65.87 -35.6,43.53 -74.13,87.41 -110.9,129.51 l 104.36,97.28"
         style="fill:#406fbf;fill-opacity:1;fill-rule:nonzero;stroke:none"
         id="path320" /><path
         d="m 3394.77,435.41 c -4.98,-15.898 -11.42,-26.43 -17.52,-28.488 -2.64,-0.883 -5.26,-0.274 -8.07,1.84 -1.61,1.218 -1.71,2.41 -1.65,3.199 0.58,6.949 17.39,17.867 27.24,23.449 z m -19.87,-32.449 c 1.16,0 2.33,0.199 3.49,0.578 10.74,3.633 17.79,23.512 21.03,35.031 l -0.59,1.871 -1.95,0.188 c -3.27,-1.707 -31.96,-17.051 -32.9,-28.379 -0.14,-1.73 0.28,-4.23 3.06,-6.328 2.6,-1.973 5.24,-2.961 7.86,-2.961"
         style="fill:#406fbf;fill-opacity:1;fill-rule:nonzero;stroke:none"
         id="path322" /><path
         d="m 3393.78,439.059 c -9.72,-4.137 -28.57,-6.688 -33.89,-2.2 -0.88,0.762 -1.76,1.981 -0.62,4.75 0.85,2.121 2.36,3.539 4.57,4.313 8.34,2.976 23.48,-3.684 29.94,-6.863 z m -23.32,-8.129 c 10.19,0 22.68,3.238 28.18,6.601 l 0.85,1.559 -0.92,1.519 c -0.96,0.532 -23.69,13.032 -35.91,8.68 -3.2,-1.129 -5.45,-3.258 -6.7,-6.34 -1.95,-4.801 0.18,-7.578 1.63,-8.801 2.71,-2.308 7.47,-3.218 12.87,-3.218"
         style="fill:#406fbf;fill-opacity:1;fill-rule:nonzero;stroke:none"
         id="path324" /><path
         d="m 2640.37,195.922 c -11.57,-2.16 -32.96,-4.981 -41.77,1.68 -2.44,1.847 -3.71,4.269 -3.9,7.41 -0.08,1.449 0.49,2.027 0.98,2.359 5.48,3.731 28.51,-4.332 44.69,-11.449 z m -23.19,-6.113 c 10.32,0 21.53,2 29.32,3.722 l 1.38,1.547 -1.01,1.801 c -4.42,2.082 -43.37,20.082 -53.19,13.449 -1.25,-0.848 -2.71,-2.488 -2.54,-5.519 0.25,-4.188 2.03,-7.571 5.31,-10.047 4.86,-3.684 12.51,-4.953 20.73,-4.953"
         style="fill:#406fbf;fill-opacity:1;fill-rule:nonzero;stroke:none"
         id="path326" /><path
         d="m 2619.4,229.828 c 13.51,0 21.39,-22.348 23.99,-31.308 -12.69,6.652 -30.24,22.671 -29.4,28.929 0.07,0.449 0.26,1.86 3.93,2.301 z m 26.71,-36.34 1.15,0.434 0.59,1.75 c -0.37,1.637 -9.22,40.058 -30.36,37.609 -5.29,-0.633 -6.74,-3.261 -7.03,-5.351 -1.32,-9.789 23.25,-29.508 34.97,-34.301 l 0.68,-0.141"
         style="fill:#406fbf;fill-opacity:1;fill-rule:nonzero;stroke:none"
         id="path328" /><path
         d="m 2618.3,2907.48 -16.24,8.35 c 0,0 6.19,-15.18 16.24,-8.35"
         style="fill:#17282f;fill-opacity:1;fill-rule:nonzero;stroke:none"
         id="path330" /><path
         d="m 2775.31,2632.45 -27.78,-0.71 c -1.58,-0.04 -2.92,-1.14 -3.23,-2.69 -3.49,-17.53 -22.16,-122.8 -10,-312 11.89,55.19 40.97,171.96 53.29,197.43 -10.62,8.07 -27.6,21.66 -27.6,21.66 l 31.17,19.95 -12.42,73.53 c -0.29,1.66 -1.75,2.87 -3.43,2.83"
         style="fill:#406fbf;fill-opacity:1;fill-rule:nonzero;stroke:none"
         id="path332" /><path
         d="m 2734.3,2317.05 c -2.92,45.45 -4.06,86.06 -4.06,121.77 -0.01,112.94 11.41,176.91 14.06,190.23 0.31,1.55 1.65,2.65 3.23,2.69 l 27.78,0.71 c 0.03,0 0.06,0 0.09,0 1.64,0 3.06,-1.2 3.34,-2.83 l 12.42,-73.53 -31.17,-19.95 v 0 c 0,0 16.98,-13.59 27.6,-21.66 -12.32,-25.47 -41.4,-142.22 -53.29,-197.42 0,-0.01 0,-0.01 0,-0.01"
         style="fill:#5d87cd;fill-opacity:1;fill-rule:nonzero;stroke:none"
         id="path334" /><path
         d="m 2546.23,2609.42 32.92,5.74 c 0,0 2.87,-94.03 -10.51,-302.08 -11.89,55.2 -36.66,169.56 -38.07,201.4 10.62,8.07 27.6,21.66 27.6,21.66 l -31.17,19.95 19.23,53.33"
         style="fill:#406fbf;fill-opacity:1;fill-rule:nonzero;stroke:none"
         id="path336" /><path
         d="m 2568.64,2313.08 c -11.89,55.2 -36.66,169.56 -38.07,201.4 10.62,8.07 27.6,21.66 27.6,21.66 v 0 0 l -31.17,19.95 19.23,53.33 32.92,5.74 c 0,0 0.26,-8.51 0.25,-26.06 0,-40.82 -1.41,-130.55 -10.76,-276.02"
         style="fill:#5d87cd;fill-opacity:1;fill-rule:nonzero;stroke:none"
         id="path338" /><path
         d="m 2121.53,1320.34 h -377.07 c -90.54,0 -164.62,-74.08 -164.62,-164.62 V 361.512 c 0,-90.532 74.08,-164.621 164.62,-164.621 h 377.07 c 90.54,0 164.61,74.089 164.61,164.621 v 794.208 c 0,90.54 -74.07,164.62 -164.61,164.62"
         style="fill:#17282f;fill-opacity:1;fill-rule:nonzero;stroke:none"
         id="path340" /><path
         d="m 1982.72,2067.44 h -99.46 c -61.1,0 -111.09,-49.99 -111.09,-111.09 V 882.77 c 0,-61.102 49.99,-111.09 111.09,-111.09 h 99.46 c 61.1,0 111.09,49.988 111.09,111.09 v 1073.58 c 0,61.1 -49.99,111.09 -111.09,111.09 m 0,-17.96 c 51.35,0 93.13,-41.78 93.13,-93.13 V 882.77 c 0,-51.348 -41.78,-93.122 -93.13,-93.122 h -99.46 c -51.35,0 -93.13,41.774 -93.13,93.122 v 1073.58 c 0,51.35 41.78,93.13 93.13,93.13 h 99.46"
         style="fill:#17282f;fill-opacity:1;fill-rule:nonzero;stroke:none"
         id="path342" /><path
         d="m 2189.74,184.168 c 0,-23.137 -18.77,-41.906 -41.92,-41.906 -23.15,0 -41.91,18.769 -41.91,41.906 0,23.152 18.76,41.922 41.91,41.922 23.15,0 41.92,-18.77 41.92,-41.922"
         style="fill:#17282f;fill-opacity:1;fill-rule:nonzero;stroke:none"
         id="path344" /><path
         d="m 2042.26,184.168 c 0,-23.137 -18.76,-41.906 -41.91,-41.906 -23.15,0 -41.92,18.769 -41.92,41.906 0,23.152 18.77,41.922 41.92,41.922 23.15,0 41.91,-18.77 41.91,-41.922"
         style="fill:#17282f;fill-opacity:1;fill-rule:nonzero;stroke:none"
         id="path346" /><path
         d="m 1801.1,184.168 c 0,-23.137 -18.76,-41.906 -41.91,-41.906 -23.15,0 -41.91,18.769 -41.91,41.906 0,23.152 18.76,41.922 41.91,41.922 23.15,0 41.91,-18.77 41.91,-41.922"
         style="fill:#17282f;fill-opacity:1;fill-rule:nonzero;stroke:none"
         id="path348" /><path
         d="m 1653.63,184.168 c 0,-23.137 -18.77,-41.906 -41.92,-41.906 -23.15,0 -41.91,18.769 -41.91,41.906 0,23.152 18.76,41.922 41.91,41.922 23.15,0 41.92,-18.77 41.92,-41.922"
         style="fill:#17282f;fill-opacity:1;fill-rule:nonzero;stroke:none"
         id="path350" /><path
         d="m 2015.08,1320.34 h -377.07 c -90.54,0 -164.62,-74.08 -164.62,-164.62 V 361.512 c 0,-90.532 74.08,-164.621 164.62,-164.621 h 377.07 c 90.54,0 164.62,74.089 164.62,164.621 v 794.208 c 0,90.54 -74.08,164.62 -164.62,164.62"
         style="fill:#406fbf;fill-opacity:1;fill-rule:nonzero;stroke:none"
         id="path352" /><path
         d="m 2015.08,196.891 h -377.07 c -21.32,0 -41.72,4.109 -60.46,11.57 -60.86,24.23 -104.16,83.828 -104.16,153.051 v 794.208 c 0,90.54 74.08,164.62 164.62,164.62 h 377.07 c 90.54,0 164.62,-74.08 164.62,-164.62 V 361.512 c 0,-90.532 -74.08,-164.621 -164.62,-164.621"
         style="fill:#5d87cd;fill-opacity:1;fill-rule:nonzero;stroke:none"
         id="path354" /><path
         d="m 1940.69,1215.67 h -306.8 c -73.67,0 -133.95,-60.27 -133.95,-133.94 V 435.512 c 0,-73.672 60.28,-133.942 133.95,-133.942 h 306.8 c 73.68,0 133.95,60.27 133.95,133.942 v 646.218 c 0,73.67 -60.27,133.94 -133.95,133.94"
         style="fill:#406fbf;fill-opacity:1;fill-rule:nonzero;stroke:none"
         id="path356" /><path
         d="m 1597.26,1140.5 c -16.09,0 -29.17,-13.09 -29.17,-29.18 V 405.91 c 0,-16.09 13.08,-29.172 29.17,-29.172 16.09,0 29.18,13.082 29.18,29.172 v 705.41 c 0,16.09 -13.09,29.18 -29.18,29.18 z m 0,-772.75 c -21.04,0 -38.16,17.121 -38.16,38.16 v 705.41 c 0,21.04 17.12,38.16 38.16,38.16 21.04,0 38.16,-17.12 38.16,-38.16 V 405.91 c 0,-21.039 -17.12,-38.16 -38.16,-38.16"
         style="fill:#ffffff;fill-opacity:1;fill-rule:nonzero;stroke:none"
         id="path358" /><path
         d="m 1978.61,1140.5 c -16.09,0 -29.18,-13.09 -29.18,-29.18 V 405.91 c 0,-16.09 13.09,-29.172 29.18,-29.172 16.09,0 29.18,13.082 29.18,29.172 v 705.41 c 0,16.09 -13.09,29.18 -29.18,29.18 z m 0,-772.75 c -21.04,0 -38.16,17.121 -38.16,38.16 v 705.41 c 0,21.04 17.12,38.16 38.16,38.16 21.04,0 38.16,-17.12 38.16,-38.16 V 405.91 c 0,-21.039 -17.12,-38.16 -38.16,-38.16"
         style="fill:#ffffff;fill-opacity:1;fill-rule:nonzero;stroke:none"
         id="path360" /><path
         d="m 1851.49,1140.5 c -16.08,0 -29.17,-13.09 -29.17,-29.18 V 405.91 c 0,-16.09 13.09,-29.172 29.17,-29.172 16.09,0 29.18,13.082 29.18,29.172 v 705.41 c 0,16.09 -13.09,29.18 -29.18,29.18 z m 0,-772.75 c -21.04,0 -38.16,17.121 -38.16,38.16 v 705.41 c 0,21.04 17.12,38.16 38.16,38.16 21.04,0 38.16,-17.12 38.16,-38.16 V 405.91 c 0,-21.039 -17.12,-38.16 -38.16,-38.16"
         style="fill:#ffffff;fill-opacity:1;fill-rule:nonzero;stroke:none"
         id="path362" /><path
         d="m 1724.38,1140.5 c -16.09,0 -29.18,-13.09 -29.18,-29.18 V 405.91 c 0,-16.09 13.09,-29.172 29.18,-29.172 16.08,0 29.17,13.082 29.17,29.172 v 705.41 c 0,16.09 -13.09,29.18 -29.17,29.18 z m 0,-772.75 c -21.05,0 -38.16,17.121 -38.16,38.16 v 705.41 c 0,21.04 17.11,38.16 38.16,38.16 21.04,0 38.15,-17.12 38.15,-38.16 V 405.91 c 0,-21.039 -17.11,-38.16 -38.15,-38.16"
         style="fill:#ffffff;fill-opacity:1;fill-rule:nonzero;stroke:none"
         id="path364" /></g></g></svg>
