<svg xmlns="http://www.w3.org/2000/svg" viewBox="0 0 64 64"><title>family 2</title><g class="nc-icon-wrapper" stroke-linecap="square" stroke-linejoin="miter" stroke-width="4" fill="#3552b3" stroke="#3552b3"><polyline points="24 60 24 52 40 52 40 60" fill="none" stroke-miterlimit="10" data-color="color-2"/><line x1="24" y1="52" x2="14" y2="44" fill="none" stroke-miterlimit="10" data-color="color-2"/><line x1="40" y1="52" x2="50" y2="44" fill="none" stroke-miterlimit="10" data-color="color-2"/><circle cx="32" cy="41" r="6" fill="none" stroke-miterlimit="10" data-color="color-2"/><circle cx="21" cy="11" r="7" fill="none" stroke="#3552b3" stroke-miterlimit="10"/><path d="M5,50,7.736,31.534A10,10,0,0,1,17.628,23h6.744a10,10,0,0,1,9.541,7" fill="none" stroke="#3552b3" stroke-miterlimit="10"/><circle cx="43" cy="11" r="7" fill="none" stroke="#3552b3" stroke-miterlimit="10"/><path d="M59,50,56.264,31.534A10,10,0,0,0,46.372,23H39.628A9.989,9.989,0,0,0,32,26.533" fill="none" stroke="#3552b3" stroke-miterlimit="10" data-cap="butt" stroke-linecap="butt"/></g></svg>