<svg xmlns="http://www.w3.org/2000/svg" viewBox="0 0 64 64"><title>presentation</title><g class="nc-icon-wrapper" stroke-linecap="square" stroke-linejoin="miter" stroke-width="4" fill="#0098f0" stroke="#0098f0"><circle cx="14" cy="8" r="6" fill="none" stroke="#0098f0" stroke-miterlimit="10"/> <polyline points="26 8 59 8 59 46 28 46" fill="none" stroke-miterlimit="10" data-color="color-2"/> <line x1="45" y1="46" x2="55" y2="62" fill="none" stroke-miterlimit="10" data-cap="butt" data-color="color-2" stroke-linecap="butt"/> <path d="M40.44,19H11a6,6,0,0,0-6,6V58.831A3.115,3.115,0,0,0,7.84,62,3,3,0,0,0,11,59V42h5V58.831A3.115,3.115,0,0,0,18.84,62,3,3,0,0,0,22,59V25l18.412-.877a2.666,2.666,0,0,0,2.579-2.342A2.56,2.56,0,0,0,40.44,19Z" fill="none" stroke="#0098f0" stroke-miterlimit="10"/> <line x1="35" y1="8" x2="35" y2="3" fill="none" stroke-miterlimit="10" data-color="color-2"/></g></svg>