<svg width="106" height="24" viewBox="0 0 106 24" fill="none" xmlns="http://www.w3.org/2000/svg">
<path d="M7.44121 23.3081C7.42161 23.3081 7.4023 23.3034 7.38489 23.2944C7.36748 23.2854 7.35246 23.2724 7.3411 23.2565L0.0225019 12.8922C0.010076 12.8746 0.00249384 12.8541 0.000517901 12.8326C-0.00145804 12.8112 0.00224185 12.7896 0.0112445 12.7701L5.31193 1.23884C5.3209 1.21927 5.33487 1.20241 5.35245 1.18997C5.37003 1.17753 5.39058 1.16995 5.41202 1.16801L18.031 0.000850591C18.0525 -0.00175824 18.0743 0.00166185 18.094 0.0107277C18.1136 0.0197936 18.1304 0.0341484 18.1424 0.0521899L25.461 10.4163C25.4734 10.4338 25.481 10.4544 25.483 10.4758C25.4849 10.4973 25.4812 10.5189 25.4722 10.5384L20.1717 22.07C20.1627 22.0895 20.1487 22.1063 20.1311 22.1188C20.1136 22.1312 20.0931 22.1388 20.0716 22.1408L7.45248 23.3078C7.44877 23.3081 7.44494 23.3081 7.44122 23.3081L7.44121 23.3081ZM0.263595 12.8084L7.50042 23.0569L19.9786 21.903L25.2199 10.5001L17.9831 0.251519L5.50508 1.4055L0.263595 12.8084Z" fill="#2F3134"/>
<path d="M7.39765 23.2818L5.3722 12.7365L5.3623 1.20801L15.2305 4.11263L25.4633 10.4785L17.8634 17.234L7.39765 23.2818ZM5.48514 1.37193L5.49367 12.7249L7.48558 23.0894L17.792 17.1351L25.2593 10.4956L15.1728 4.2211L5.48514 1.37193Z" fill="#2F3134"/>
<path d="M15.3919 4.59583C15.5949 4.59583 15.7594 4.4313 15.7594 4.22834C15.7594 4.02537 15.5949 3.86084 15.3919 3.86084C15.1889 3.86084 15.0244 4.02537 15.0244 4.22834C15.0244 4.4313 15.1889 4.59583 15.3919 4.59583Z" fill="#2F3134"/>
<path d="M15.3918 4.98678C15.2418 4.98693 15.0952 4.94258 14.9704 4.85936C14.8456 4.77613 14.7483 4.65776 14.6908 4.51922C14.6332 4.38068 14.6181 4.2282 14.6473 4.08106C14.6765 3.93392 14.7486 3.79873 14.8546 3.69261C14.9606 3.58648 15.0957 3.51418 15.2428 3.48485C15.3899 3.45552 15.5424 3.47048 15.681 3.52784C15.8196 3.5852 15.9381 3.68237 16.0215 3.80708C16.1049 3.93178 16.1494 4.07841 16.1494 4.22841C16.1492 4.42935 16.0694 4.62203 15.9274 4.7642C15.7854 4.90636 15.5928 4.98641 15.3918 4.98678ZM15.3918 4.20651L15.3691 4.2284C15.3692 4.23434 15.3717 4.23999 15.3759 4.24412C15.3802 4.24825 15.3859 4.25053 15.3918 4.25046V4.20651Z" fill="#2F3134"/>
<path d="M17.845 17.5338C18.048 17.5338 18.2125 17.3693 18.2125 17.1663C18.2125 16.9634 18.048 16.7988 17.845 16.7988C17.6421 16.7988 17.4775 16.9634 17.4775 17.1663C17.4775 17.3693 17.6421 17.5338 17.845 17.5338Z" fill="#2F3134"/>
<path d="M17.845 17.9245C17.695 17.9246 17.5483 17.8802 17.4235 17.797C17.2987 17.7137 17.2014 17.5953 17.1439 17.4568C17.0864 17.3182 17.0712 17.1657 17.1004 17.0185C17.1296 16.8714 17.2018 16.7362 17.3078 16.6301C17.4139 16.5239 17.549 16.4517 17.6961 16.4223C17.8432 16.393 17.9958 16.408 18.1344 16.4654C18.273 16.5228 18.3915 16.62 18.4748 16.7447C18.5582 16.8694 18.6027 17.0161 18.6027 17.1661C18.6026 17.3671 18.5227 17.5598 18.3807 17.702C18.2386 17.8441 18.046 17.9242 17.845 17.9245V17.9245ZM17.845 17.1442L17.8224 17.1661C17.8225 17.172 17.825 17.1776 17.8292 17.1817C17.8334 17.1858 17.8391 17.1881 17.845 17.188V17.1442Z" fill="#2F3134"/>
<path d="M7.53156 23.5534C7.73452 23.5534 7.89906 23.3888 7.89906 23.1859C7.89906 22.9829 7.73452 22.8184 7.53156 22.8184C7.3286 22.8184 7.16406 22.9829 7.16406 23.1859C7.16406 23.3888 7.3286 23.5534 7.53156 23.5534Z" fill="#2F3134"/>
<path d="M7.53151 23.944C7.38149 23.9441 7.2348 23.8998 7.11 23.8165C6.9852 23.7333 6.88789 23.6149 6.83039 23.4763C6.77288 23.3377 6.75777 23.1852 6.78695 23.0381C6.81613 22.8909 6.88831 22.7557 6.99434 22.6496C7.10037 22.5435 7.2355 22.4712 7.38263 22.4419C7.52975 22.4126 7.68227 22.4275 7.82088 22.4849C7.9595 22.5423 8.07798 22.6395 8.16134 22.7642C8.2447 22.8889 8.2892 23.0356 8.2892 23.1856C8.28908 23.3866 8.20924 23.5793 8.06719 23.7215C7.92514 23.8637 7.73249 23.9437 7.53151 23.944V23.944ZM7.53151 23.1637L7.50894 23.1856C7.50905 23.1915 7.51148 23.1971 7.51571 23.2012C7.51994 23.2053 7.52562 23.2076 7.53151 23.2075V23.1637Z" fill="#2F3134"/>
<path d="M5.42316 13.215C5.62612 13.215 5.79066 13.0504 5.79066 12.8475C5.79066 12.6445 5.62612 12.48 5.42316 12.48C5.2202 12.48 5.05566 12.6445 5.05566 12.8475C5.05566 13.0504 5.2202 13.215 5.42316 13.215Z" fill="#2F3134"/>
<path d="M5.42294 13.6057C5.27295 13.6059 5.12629 13.5615 5.00151 13.4783C4.87673 13.3951 4.77944 13.2767 4.72196 13.1381C4.66447 12.9996 4.64937 12.8471 4.67856 12.7C4.70775 12.5529 4.77993 12.4177 4.88595 12.3116C4.99198 12.2055 5.12709 12.1332 5.2742 12.104C5.4213 12.0747 5.57379 12.0897 5.71237 12.1471C5.85095 12.2044 5.96939 12.3017 6.05271 12.4264C6.13603 12.5511 6.18049 12.6977 6.18046 12.8477C6.18024 13.0486 6.10037 13.2412 5.95837 13.3833C5.81637 13.5254 5.62383 13.6054 5.42294 13.6057V13.6057ZM5.42294 12.8255L5.40018 12.8477C5.40036 12.8536 5.40284 12.8592 5.4071 12.8633C5.41135 12.8674 5.41704 12.8697 5.42294 12.8696V12.8255Z" fill="#2F3134"/>
<path d="M25.3607 10.8732C25.5636 10.8732 25.7282 10.7086 25.7282 10.5057C25.7282 10.3027 25.5636 10.1382 25.3607 10.1382C25.1577 10.1382 24.9932 10.3027 24.9932 10.5057C24.9932 10.7086 25.1577 10.8732 25.3607 10.8732Z" fill="#2F3134"/>
<path d="M25.3612 11.2635C25.2113 11.2636 25.0646 11.2192 24.9399 11.1359C24.8151 11.0527 24.7178 10.9343 24.6604 10.7957C24.6029 10.6572 24.5878 10.5047 24.6171 10.3576C24.6463 10.2105 24.7185 10.0753 24.8245 9.96926C24.9305 9.86318 25.0656 9.79093 25.2127 9.76166C25.3598 9.73238 25.5123 9.74739 25.6509 9.80478C25.7895 9.86218 25.9079 9.95939 25.9912 10.0841C26.0745 10.2088 26.119 10.3555 26.1189 10.5054C26.1187 10.7064 26.0388 10.899 25.8968 11.0411C25.7548 11.1832 25.5622 11.2632 25.3612 11.2635ZM25.3612 10.4832L25.3387 10.5054C25.3388 10.5113 25.3412 10.5169 25.3454 10.521C25.3497 10.5251 25.3554 10.5274 25.3612 10.5273V10.4832Z" fill="#2F3134"/>
<path d="M5.42316 1.65735C5.62612 1.65735 5.79066 1.49282 5.79066 1.28986C5.79066 1.0869 5.62612 0.922363 5.42316 0.922363C5.2202 0.922363 5.05566 1.0869 5.05566 1.28986C5.05566 1.49282 5.2202 1.65735 5.42316 1.65735Z" fill="#2F3134"/>
<path d="M5.42311 2.0483C5.27311 2.04845 5.12643 2.00411 5.00163 1.92089C4.87684 1.83766 4.77953 1.71929 4.72201 1.58075C4.6645 1.44221 4.64937 1.28973 4.67853 1.14259C4.7077 0.995449 4.77985 0.860263 4.88586 0.754135C4.99186 0.648007 5.12697 0.575706 5.27408 0.546375C5.42118 0.517045 5.57368 0.532005 5.71229 0.589362C5.85089 0.646719 5.96937 0.743895 6.05274 0.868599C6.1361 0.993303 6.18061 1.13993 6.18063 1.28993C6.18048 1.49087 6.10065 1.68355 5.95864 1.82572C5.81664 1.96788 5.62405 2.04793 5.42311 2.0483ZM5.42311 1.26803L5.40034 1.28994C5.40046 1.29587 5.40291 1.30152 5.40718 1.30566C5.41144 1.30979 5.41716 1.31207 5.4231 1.312L5.42311 1.26803Z" fill="#2F3134"/>
<path d="M20.0604 22.141C20.0465 22.1411 20.0326 22.1388 20.0195 22.1342L10.3979 18.7377L0.0625813 12.9281C0.0456798 12.9186 0.0312672 12.9053 0.020528 12.8891C0.00978883 12.873 0.00303022 12.8546 0.000808 12.8353C-0.00141422 12.8161 0.000963103 12.7966 0.00774511 12.7784C0.0145271 12.7603 0.0255194 12.744 0.0398186 12.731L7.81583 5.60552L17.9833 0.0152989C17.9999 0.00607771 18.0184 0.000874229 18.0374 0.00010092C18.0564 -0.000672389 18.0753 0.00300696 18.0926 0.0108464C18.1099 0.0186717 18.1252 0.0303882 18.1372 0.0450812C18.1492 0.0597743 18.1577 0.0770464 18.1619 0.0955499L20.4399 10.11L20.1829 22.0213C20.1825 22.0407 20.1775 22.0597 20.1683 22.0767C20.1591 22.0938 20.146 22.1085 20.1301 22.1195C20.1096 22.1336 20.0853 22.1412 20.0604 22.1411L20.0604 22.141ZM0.330205 12.7973L10.4989 18.5152L19.9415 21.8467L20.1978 10.1345L17.9588 0.30838L7.95768 5.8033L0.330205 12.7973Z" fill="#2F3134"/>
<path d="M17.8856 17.2124L17.8354 17.1953L5.36328 12.8593L5.40349 12.8244L15.4125 4.17041L17.8856 17.2124ZM5.48375 12.836L17.8055 17.12L15.3721 4.28643L5.48375 12.836Z" fill="#2F3134"/>
<path d="M10.3586 18.852L7.73633 5.50781L20.5598 10.0928L10.3586 18.852ZM8.06007 5.88392L10.5181 18.392L20.08 10.1817L8.06007 5.88392Z" fill="#2F3134"/>
<path d="M5.31641 1.3501L5.53028 1.22994L8.00558 5.6359L7.79171 5.75605L5.31641 1.3501Z" fill="#2F3134"/>
<path d="M7.42773 23.1199L10.3356 18.5562L10.5423 18.6885L7.63445 23.2519L7.42773 23.1199Z" fill="#2F3134"/>
<path d="M20.3115 10.2593L20.3294 10.0148L25.37 10.3831L25.3521 10.6275L20.3115 10.2593Z" fill="#2F3134"/>
<path d="M30.1426 8.50023L31.7826 8.49123L31.7974 11.2644L34.9834 11.2475L34.9686 8.47432L36.6086 8.46582L36.6477 15.9038L35.0077 15.9123L34.9908 12.6978L31.8048 12.7147L31.8217 15.9292L30.1817 15.9382L30.1426 8.50023Z" fill="#2F3134"/>
<path d="M39.8695 12.7143L37.0498 8.46384L39.0894 8.45274L40.6813 11.2286L42.3382 8.43582L44.2832 8.42578L41.5095 12.7058L41.5259 15.8785L39.8859 15.887L39.8695 12.7143Z" fill="#2F3134"/>
<path d="M44.7246 8.42278L47.4899 8.40852C47.857 8.40453 48.2235 8.43782 48.5839 8.50788C48.9047 8.56717 49.2108 8.68854 49.485 8.86517C49.7447 9.03943 49.9557 9.27699 50.0981 9.55542C50.2618 9.89727 50.3413 10.2733 50.3302 10.6521C50.3437 11.0274 50.2739 11.4011 50.1256 11.7462C49.9978 12.027 49.8 12.2704 49.5511 12.4528C49.2896 12.6368 48.9932 12.7653 48.6801 12.8302C48.321 12.9082 47.9545 12.9471 47.5871 12.9465L46.3884 12.9528L46.4037 15.8523L44.7637 15.8607L44.7246 8.42278ZM46.3815 11.5659L47.4751 11.5601C47.618 11.5599 47.7605 11.5453 47.9005 11.5163C48.0304 11.4899 48.1547 11.4411 48.2678 11.372C48.3767 11.3041 48.4665 11.2097 48.5289 11.0977C48.5992 10.9632 48.633 10.8127 48.6267 10.6611C48.6335 10.4985 48.5865 10.3382 48.493 10.205C48.4043 10.0893 48.288 9.99775 48.1547 9.93861C48.0096 9.87449 47.855 9.8345 47.697 9.82022C47.5363 9.80411 47.3749 9.79635 47.2134 9.79696L46.372 9.80116L46.3815 11.5659Z" fill="#2F3134"/>
<path d="M51.3066 8.38873L56.3636 8.3623L56.3715 9.87495L52.9546 9.89291L52.962 11.2798L56.1897 11.2623L56.1976 12.775L52.9699 12.7924L52.9778 14.3056L56.5839 14.2865L56.5918 15.7992L51.3456 15.8267L51.3066 8.38873Z" fill="#2F3134"/>
<path d="M57.7617 8.35496L60.6427 8.33963C61.0046 8.33588 61.3659 8.37097 61.7204 8.44427C62.0392 8.50756 62.3432 8.63058 62.6162 8.80684C62.8759 8.98111 63.0869 9.21867 63.2293 9.4971C63.3922 9.83544 63.4718 10.2079 63.4613 10.5832C63.4778 11.0627 63.3361 11.5342 63.0581 11.9252C62.7667 12.3067 62.338 12.5597 61.8631 12.6302L63.7721 15.7612L61.806 15.7718L60.2352 12.8067L59.4255 12.8109L59.4409 15.7839L57.8008 15.7929L57.7617 8.35496ZM59.4181 11.4241L60.3859 11.4193C60.5328 11.4183 60.6887 11.4124 60.8536 11.4008C61.0064 11.392 61.1569 11.3593 61.2997 11.3041C61.4301 11.2524 61.544 11.1664 61.6295 11.0552C61.7236 10.9161 61.7688 10.7497 61.7579 10.5821C61.765 10.4232 61.7239 10.2659 61.64 10.1308C61.5652 10.0215 61.4634 9.9334 61.3446 9.87496C61.2151 9.81317 61.0764 9.77299 60.9339 9.75604C60.784 9.73623 60.6328 9.7267 60.4815 9.72751L59.4091 9.73281L59.4181 11.4241Z" fill="#2F3134"/>
<path d="M64.5312 8.31905L66.1713 8.31055L66.2025 14.2359L69.241 14.22L69.2489 15.7327L64.5703 15.757L64.5312 8.31905Z" fill="#2F3134"/>
<path d="M70.0723 8.2896L75.1292 8.26318L75.1371 9.77583L71.7202 9.79379L71.7276 11.1806L74.9553 11.1637L74.9632 12.6764L71.7355 12.6933L71.7434 14.2065L75.3495 14.1874L75.3574 15.7001L70.1113 15.7276L70.0723 8.2896Z" fill="#2F3134"/>
<path d="M76.5273 8.25623L78.9876 8.24301C79.5597 8.23743 80.1302 8.30132 80.6869 8.43329C81.1938 8.55044 81.6722 8.76788 82.0938 9.0728C82.501 9.37563 82.8294 9.77187 83.0515 10.2282C83.3033 10.7701 83.4268 11.3628 83.4125 11.9601C83.427 12.51 83.3128 13.0557 83.079 13.5537C82.8627 14.0023 82.551 14.3982 82.1657 14.7138C81.7704 15.0334 81.3189 15.2763 80.8343 15.4299C80.3216 15.5952 79.7863 15.6795 79.2477 15.6799L76.5665 15.6942L76.5273 8.25623ZM78.1985 14.1731L79.0505 14.1683C79.406 14.1689 79.7604 14.1283 80.1065 14.0473C80.4118 13.9776 80.6992 13.8453 80.9506 13.6588C81.1927 13.4736 81.3847 13.2309 81.5092 12.9527C81.6534 12.6158 81.7216 12.2513 81.709 11.8851C81.7151 11.5563 81.643 11.2308 81.4987 10.9353C81.3672 10.6739 81.1771 10.4466 80.9432 10.2709C80.698 10.0908 80.4209 9.95859 80.1266 9.88141C79.8061 9.7944 79.4751 9.7519 79.143 9.75509L78.1753 9.76039L78.1985 14.1731Z" fill="#2F3134"/>
<path d="M91.1782 15.0914C90.702 15.3439 90.1936 15.5306 89.6672 15.6464C89.1389 15.7614 88.6 15.8205 88.0594 15.8229C87.5113 15.8312 86.9661 15.7415 86.4495 15.5581C85.9756 15.3894 85.5413 15.1251 85.1736 14.7817C84.8085 14.4365 84.5211 14.0174 84.3307 13.5524C83.9256 12.5127 83.9196 11.36 84.3137 10.3162C84.4994 9.84909 84.7823 9.4268 85.1435 9.07732C85.5077 8.73024 85.9392 8.46166 86.4115 8.28823C86.9258 8.0987 87.47 8.00327 88.0182 8.00652C88.5739 7.99824 89.128 8.06762 89.6645 8.21265C90.1578 8.34888 90.6117 8.60052 90.9885 8.94677L89.8384 10.2137C89.6227 9.99049 89.3642 9.81307 89.0784 9.69198C88.7427 9.56485 88.3849 9.50609 88.0261 9.51915C87.7003 9.51603 87.3771 9.5784 87.0758 9.70255C86.8008 9.81769 86.5527 9.98887 86.3475 10.2052C86.1423 10.4257 85.9846 10.686 85.884 10.97C85.6699 11.5916 85.6734 12.2676 85.894 12.8869C85.9985 13.1675 86.1589 13.4239 86.3655 13.6406C86.5728 13.8552 86.8226 14.0241 87.0991 14.1364C87.4018 14.257 87.7256 14.316 88.0515 14.3097C88.3643 14.314 88.6761 14.2716 88.9764 14.1839C89.1902 14.1209 89.3973 14.0372 89.5948 13.9339L89.5885 12.7257L88.2534 12.7326L88.2455 11.2195L91.1577 11.2041L91.1782 15.0914Z" fill="#2F3134"/>
<path d="M92.54 8.17197L97.597 8.14502L97.605 9.65766L94.1881 9.67562L94.1955 11.0625L97.4232 11.0456L97.4312 12.5582L94.2035 12.5751L94.2114 14.0883L97.8175 14.0693L97.8255 15.5819L92.5794 15.6099L92.54 8.17197Z" fill="#2F3134"/>
<path d="M98.9951 8.13766L101.876 8.12286C102.238 8.11888 102.599 8.15397 102.954 8.22751C103.273 8.2908 103.577 8.41382 103.85 8.59008C104.11 8.76408 104.321 9.00171 104.463 9.28034C104.626 9.61866 104.705 9.99109 104.695 10.3665C104.711 10.8459 104.569 11.3174 104.291 11.7084C104 12.0896 103.571 12.3425 103.096 12.4135L105.006 15.5445L103.039 15.5545L101.468 12.59L100.658 12.5942L100.674 15.5671L99.0342 15.5756L98.9951 8.13766ZM100.651 11.2073L101.619 11.202C101.766 11.2015 101.922 11.1951 102.086 11.1841C102.239 11.1753 102.39 11.1425 102.533 11.0868C102.663 11.0355 102.777 10.9497 102.862 10.8384C102.957 10.6996 103.002 10.533 102.991 10.3654C102.998 10.2065 102.957 10.0492 102.873 9.91403C102.798 9.80486 102.696 9.71679 102.577 9.65823C102.448 9.5962 102.309 9.55601 102.167 9.53931C102.017 9.51932 101.866 9.50961 101.714 9.51024L100.642 9.51604L100.651 11.2073Z" fill="#2F3134"/>
</svg>
