<svg width="2498" height="712" viewBox="0 0 2498 712" fill="none" xmlns="http://www.w3.org/2000/svg">
<path fill-rule="evenodd" clip-rule="evenodd" d="M2327.7 294.238C2325.45 294.688 2323.2 299.644 2323.2 302.344C2322.75 320.371 2322.3 368.135 2322.3 400.576C2322.3 401.479 2323.65 403.281 2325 403.281C2331.76 403.73 2347.98 404.18 2361.95 404.18C2381.32 404.18 2392.59 401.479 2398.9 398.779C2415.12 390.664 2422.78 373.091 2422.78 353.711C2422.78 310.01 2392.14 293.335 2346.63 293.335C2343.47 292.886 2334.47 292.886 2327.7 294.238V294.238ZM2443.96 495.654C2443.96 451.045 2411.06 426.26 2351.59 426.26C2348.88 426.26 2329.96 425.811 2325.45 426.709C2324.1 427.163 2322.3 428.066 2322.3 429.419C2322.3 461.406 2321.85 512.329 2323.2 532.153C2324.1 540.713 2330.41 552.881 2338.07 556.484C2346.18 560.991 2364.65 561.89 2377.27 561.89C2412.87 561.89 2443.96 542.065 2443.96 495.654V495.654ZM2235.79 269.458C2240.29 269.458 2253.8 270.806 2288.5 270.806C2321.4 270.806 2347.53 269.907 2379.52 269.907C2418.72 269.907 2472.79 283.872 2472.79 342.451C2472.79 371.289 2452.51 394.272 2425.93 405.537C2424.58 405.986 2424.58 406.885 2425.93 407.334C2463.78 416.802 2497.13 440.229 2497.13 484.385C2497.13 527.646 2470.09 555.132 2430.89 572.256C2407.01 582.617 2377.27 586.221 2347.08 586.221C2324.1 586.221 2262.37 583.52 2228.12 584.424C2224.52 583.066 2231.28 566.846 2234.43 564.145C2242.54 563.691 2248.85 563.242 2257.41 560.537C2269.58 557.388 2270.93 553.779 2272.73 535.308C2273.63 519.536 2273.63 463.657 2273.63 424.009C2273.63 369.487 2274.09 332.539 2273.63 314.517C2273.18 300.552 2268.23 296.04 2258.31 293.335C2250.65 291.987 2238.04 290.181 2227.67 288.833C2225.41 286.577 2233.08 271.255 2235.79 269.458ZM1975.79 549.727C1986.61 558.281 2007.78 561.885 2026.71 561.885C2051.04 561.885 2075.37 557.388 2098.8 536.201C2122.69 514.58 2139.36 481.235 2139.36 428.066C2139.36 377.144 2119.98 335.688 2080.33 311.362C2057.8 297.388 2028.96 291.538 1995.61 291.538C1985.7 291.538 1976.24 291.987 1970.39 294.687C1969.03 295.591 1965.88 299.644 1965.88 301.895C1964.98 310.908 1964.98 380.298 1964.98 420.854C1964.98 462.759 1964.98 521.338 1965.88 528.096C1965.88 534.858 1969.03 545.22 1975.79 549.727H1975.79ZM1873.5 269.453C1882.06 269.453 1914.96 270.806 1930.73 270.806C1959.12 270.806 1979.39 269.458 2033.01 269.458C2078.07 269.458 2115.92 281.621 2142.96 304.6C2175.85 332.988 2192.98 372.192 2192.98 419.951C2192.98 487.993 2161.88 527.197 2130.79 549.727C2099.71 572.705 2059.15 586.221 2001.47 586.221C1970.83 586.221 1918.11 585.322 1874.4 584.868H1873.95C1871.7 580.815 1877.56 565.044 1881.16 564.595C1892.88 563.242 1896.03 562.788 1901.89 560.542C1911.35 556.934 1913.16 551.978 1914.51 535.308C1915.86 504.214 1915.41 466.816 1915.41 424.458C1915.41 394.272 1915.86 335.239 1914.96 316.313C1913.61 300.547 1906.85 296.489 1893.33 293.784C1886.57 292.437 1877.56 290.63 1864.95 289.282C1863.14 286.123 1871.25 272.158 1873.5 269.458V269.453Z" fill="#8E714E"/>
<path fill-rule="evenodd" clip-rule="evenodd" d="M1328.29 567.295C1317.02 565.942 1308.91 564.146 1299 559.639C1297.65 558.735 1295.39 554.233 1295.39 552.427C1294.49 536.655 1294.49 491.597 1294.49 461.411C1294.49 437.075 1290.44 415.898 1280.07 401.03C1267.91 383.901 1250.34 373.994 1227.8 373.994C1207.98 373.994 1181.39 387.51 1159.31 406.436C1158.86 406.885 1155.26 410.044 1155.71 405.083C1155.71 400.127 1156.61 390.215 1157.06 383.452C1157.52 377.144 1153.91 373.994 1153.91 373.994C1139.49 381.201 1098.94 390.664 1084.06 392.012C1073.25 394.272 1070.55 404.634 1081.82 408.237H1082.27C1094.42 411.841 1102.54 415.898 1108.84 419.956C1113.35 423.56 1112.9 428.516 1112.9 432.573C1113.35 466.362 1113.35 518.184 1112 546.572C1111.55 557.837 1108.4 561.89 1100.28 563.691L1101.19 563.242C1094.88 564.595 1089.92 565.942 1082.26 566.846C1079.56 569.551 1079.56 583.97 1082.26 587.124C1087.22 587.124 1113.35 585.771 1134.99 585.771C1164.72 585.771 1180.04 587.124 1187.7 587.124C1190.86 583.521 1191.76 570 1189.96 566.846C1181.39 566.396 1175.08 565.498 1169.23 563.691C1161.12 561.885 1158.86 557.837 1158.41 548.374C1157.52 524.487 1157.52 474.023 1157.52 439.78C1157.52 430.317 1160.22 425.811 1162.92 423.105C1173.28 414.097 1189.96 407.788 1204.83 407.788C1219.24 407.788 1228.7 412.295 1235.91 418.154C1245.83 426.26 1248.98 437.979 1250.33 446.538C1252.58 465.913 1251.69 504.214 1251.69 537.559C1251.69 555.581 1250.33 560.088 1243.58 562.339C1240.42 563.691 1232.31 565.498 1222.85 566.392C1219.69 569.551 1220.6 583.521 1222.85 586.675C1235.91 586.675 1251.24 585.322 1273.77 585.322C1301.7 585.322 1319.73 586.675 1326.94 586.675C1329.19 583.97 1330.09 570.903 1328.29 567.295V567.295ZM1453.1 395.176C1429.22 395.176 1414.35 413.647 1414.35 442.48C1414.35 471.772 1427.42 505.566 1464.37 505.566C1470.67 505.566 1482.39 502.861 1487.79 496.553C1496.36 488.447 1502.22 472.222 1502.22 455.098C1502.22 417.7 1483.74 395.171 1453.1 395.171V395.176ZM1449.95 594.331C1440.94 594.331 1434.62 597.036 1430.57 599.292C1411.65 611.45 1403.09 623.169 1403.09 637.144C1403.09 650.205 1408.04 660.566 1418.86 669.58C1431.92 680.845 1449.95 686.255 1472.93 686.255C1518.89 686.255 1539.17 661.47 1539.17 637.144C1539.17 620.015 1530.6 608.75 1513.03 602.446C1500.42 597.036 1477.44 594.331 1449.95 594.331V594.331ZM1453.1 711.489C1425.62 711.489 1405.79 705.63 1388.67 692.563C1371.99 679.946 1364.79 661.021 1364.79 647.954C1364.79 644.351 1365.69 634.434 1373.8 625.425C1378.75 620.015 1389.57 609.653 1415.25 592.08C1416.15 591.631 1416.6 591.182 1416.6 590.273C1416.6 589.375 1415.7 588.472 1414.8 588.027C1393.62 579.917 1387.32 566.846 1385.51 559.639V558.735C1385.06 556.03 1384.16 553.33 1388.22 550.625C1391.37 548.374 1395.88 545.669 1400.83 542.52C1408.49 538.008 1416.6 533.052 1421.56 528.994C1422.46 528.096 1422.46 527.197 1422.46 526.294C1422.46 525.391 1421.56 524.487 1420.66 524.043C1389.12 513.677 1373.35 490.244 1373.35 455.098C1373.35 432.119 1383.71 411.392 1402.18 398.325C1414.8 388.413 1446.34 376.245 1467.07 376.245H1468.42C1489.6 376.694 1501.31 381.201 1517.98 387.061C1527 390.215 1535.56 391.562 1547.28 391.562C1564.85 391.562 1572.51 386.157 1578.81 379.854C1579.27 380.752 1580.17 383.008 1580.62 388.862C1581.07 394.722 1579.27 403.281 1574.76 409.59C1571.16 414.546 1563.05 418.154 1554.94 418.154H1552.68C1544.57 417.251 1540.96 416.348 1540.96 416.348L1539.17 417.251C1538.72 418.154 1539.17 419.053 1539.62 420.405L1540.07 421.309C1540.97 425.361 1542.77 437.524 1542.77 440.684C1542.77 477.632 1527.9 493.848 1512.13 506.016C1496.81 517.28 1479.24 524.487 1459.41 526.294C1458.96 526.294 1457.16 526.294 1453.1 526.743C1450.85 526.743 1447.7 527.197 1447.24 527.197H1446.79C1443.19 528.096 1434.18 532.603 1434.18 540.259C1434.18 547.017 1438.23 555.132 1457.61 556.484C1461.66 556.934 1465.71 556.934 1470.23 557.388C1495.91 559.185 1527.9 561.44 1542.77 566.396C1563.5 574.053 1576.56 592.529 1576.56 614.609C1576.56 647.959 1552.69 679.048 1513.03 698.418C1493.66 706.982 1474.28 711.489 1453.1 711.489V711.489ZM1709.94 397.427C1700.48 397.427 1691.91 399.673 1685.61 404.18C1668.04 414.995 1659.02 436.626 1659.02 468.164C1659.02 527.197 1688.76 568.652 1731.12 568.652C1743.74 568.652 1753.65 565.044 1762.21 557.837C1775.27 547.017 1782.04 525.391 1782.04 495.2C1782.04 436.626 1752.74 397.422 1709.94 397.422L1709.94 397.427ZM1718.05 590.278C1641.45 590.278 1613.97 533.955 1613.97 481.235C1613.97 444.287 1628.83 415.898 1658.57 395.62C1679.75 382.554 1704.99 375.347 1727.52 375.347C1786.09 375.347 1827.1 417.251 1827.1 477.632C1827.1 518.633 1810.87 551.074 1779.78 570.903C1764.91 580.815 1739.23 590.278 1718.05 590.278H1718.05V590.278ZM915.094 397.422C905.631 397.422 897.071 399.673 890.758 404.18C873.189 414.995 864.176 436.626 864.176 468.164C864.176 527.197 893.912 568.652 936.27 568.652C948.888 568.652 958.8 565.044 967.364 557.837C980.426 547.017 987.188 525.391 987.188 495.2C987.188 436.626 958.35 397.422 915.094 397.422ZM923.204 590.278C846.602 590.278 819.117 533.955 819.117 481.235C819.117 444.287 833.985 415.898 863.722 395.62C884.903 382.554 910.138 375.347 932.667 375.347C991.246 375.347 1032.25 417.251 1032.25 477.632C1032.25 518.633 1016.03 551.074 984.932 570.903C970.514 580.815 944.83 590.278 923.204 590.278ZM408.175 585.771C407.271 584.424 406.368 580.366 406.822 575.41C406.822 571.802 407.725 569.551 408.175 568.652C417.638 567.295 422.594 565.942 427.999 564.595C437.013 562.339 440.616 557.388 441.065 546.123C442.423 519.087 442.423 467.715 441.969 432.119V431.216C441.969 427.163 441.969 422.202 437.013 418.599C429.801 414.097 421.241 410.044 409.976 406.88C405.924 405.537 403.219 403.281 403.668 400.581C403.668 397.876 406.373 394.722 412.232 393.818C427.1 392.466 465.846 383.008 481.168 376.245C482.071 377.144 483.424 379.854 483.424 383.457L482.974 388.408C482.52 393.369 482.071 399.229 482.071 405.083C482.071 406.885 483.878 408.237 485.675 408.237C486.578 408.237 487.481 407.788 488.38 407.334C517.218 384.805 543.35 376.694 556.866 376.694C578.951 376.694 596.075 387.061 609.141 408.687C610.04 410.044 610.943 410.493 612.296 410.493C613.194 410.493 614.542 410.044 614.996 409.141C641.583 388.862 668.17 376.694 685.738 376.694C727.642 376.694 752.428 407.788 752.428 460.508C752.428 475.376 752.428 494.751 751.978 512.329C751.978 528.096 751.529 542.515 751.529 552.881C751.529 555.127 754.679 562.339 759.635 563.691C765.943 566.846 774.508 568.198 785.772 570H786.222C787.125 573.154 785.323 584.868 783.521 587.124C780.816 587.124 776.759 587.124 772.257 586.675C760.85 586.08 749.43 585.778 738.009 585.771C710.074 585.771 695.655 586.221 681.681 587.124C680.787 583.521 680.333 572.705 681.681 570C689.796 568.652 693.848 567.295 698.809 565.947C707.823 563.242 710.074 559.185 710.528 547.471C710.528 538.911 712.325 465.913 709.62 448.34C706.92 430.317 693.399 409.141 663.658 409.141C652.393 409.141 634.825 413.647 617.701 426.709C616.803 427.612 615.894 429.863 615.894 431.216V431.67C617.701 441.128 617.701 451.948 617.701 468.618V497.905C617.701 518.184 617.247 537.109 617.701 551.523C617.701 561.44 623.56 563.691 628.516 565.498C631.222 565.942 633.018 566.396 635.274 566.846C639.327 567.749 643.385 568.652 649.693 570C650.597 571.807 650.596 577.661 649.244 582.617C648.79 585.322 647.887 586.67 647.437 587.124C632.12 586.675 616.348 586.221 593.37 586.221C586.612 586.221 574.893 586.675 564.981 586.675C556.866 586.675 549.21 587.124 544.708 587.124C544.254 586.221 543.35 583.071 543.35 578.11C543.35 574.058 544.254 570.903 545.157 570C547.408 569.551 549.21 569.102 551.466 569.102C556.866 568.198 561.378 567.295 565.88 566.396C573.546 564.146 576.246 560.088 576.695 550.176C578.048 527.646 579.4 463.213 576.246 446.987C570.841 420.855 555.972 407.788 532.086 407.788C518.121 407.788 500.543 414.546 486.129 425.366C483.873 427.163 482.071 431.665 482.071 435.723V462.31C482.071 494.751 482.071 535.308 482.52 552.881C482.974 558.281 484.771 564.595 495.138 566.846C497.393 567.295 500.997 568.198 505.504 568.652L513.609 570C514.517 572.705 514.063 583.521 512.262 587.124C507.755 587.124 502.349 586.675 496.036 586.675C486.578 586.221 474.41 585.771 460.894 585.771C445.123 585.771 433.858 586.221 424.845 586.675C418.536 585.771 413.58 585.771 408.175 585.771V585.771Z" fill="#442D22"/>
<path fill-rule="evenodd" clip-rule="evenodd" d="M171.158 693.916L152.686 687.603C152.686 687.603 154.942 593.433 121.143 586.675C98.619 560.537 124.757 -521.787 205.86 583.067C205.86 583.067 177.921 597.031 172.965 620.918C167.555 644.351 171.158 693.916 171.158 693.916V693.916Z" fill="white"/>
<path fill-rule="evenodd" clip-rule="evenodd" d="M171.158 693.916L152.686 687.603C152.686 687.603 154.942 593.433 121.143 586.675C98.619 560.537 124.757 -521.787 205.86 583.067C205.86 583.067 177.921 597.031 172.965 620.918C167.555 644.351 171.158 693.916 171.158 693.916V693.916Z" fill="#A6A385"/>
<path fill-rule="evenodd" clip-rule="evenodd" d="M181.074 602.896C181.074 602.896 342.842 496.553 304.985 275.308C268.491 114.453 182.427 61.7334 172.964 41.4551C162.603 27.0361 152.686 1.80664 152.686 1.80664L159.448 449.238C159.448 449.692 145.479 586.221 181.079 602.9" fill="white"/>
<path fill-rule="evenodd" clip-rule="evenodd" d="M181.074 602.896C181.074 602.896 342.842 496.553 304.985 275.308C268.491 114.453 182.427 61.7334 172.964 41.4551C162.603 27.0361 152.686 1.80664 152.686 1.80664L159.448 449.238C159.448 449.692 145.479 586.221 181.079 602.9" fill="#499D4A"/>
<path fill-rule="evenodd" clip-rule="evenodd" d="M143.228 608.75C143.228 608.75 -8.62771 505.112 0.385958 322.627C8.94553 140.137 116.187 50.4687 136.914 34.248C150.435 19.8291 150.884 14.4189 151.787 0C161.25 20.2783 159.448 303.252 160.796 336.592C164.849 465.01 153.589 584.424 143.228 608.75Z" fill="white"/>
<path fill-rule="evenodd" clip-rule="evenodd" d="M143.228 608.75C143.228 608.75 -8.62771 505.112 0.385958 322.627C8.94553 140.137 116.187 50.4687 136.914 34.248C150.435 19.8291 150.884 14.4189 151.787 0C161.25 20.2783 159.448 303.252 160.796 336.592C164.849 465.01 153.589 584.424 143.228 608.75Z" fill="#58AA50"/>
</svg>
